<svg width="400" height="240" viewBox="0 0 400 240" fill="none" xmlns="http://www.w3.org/2000/svg">
    <rect width="400" height="240" />
    <g clip-path="url(#clip0_8_2)">
        <path
            d="M151.002 64.8257C139.063 80.0527 143.104 93.2085 155.859 105.24C151.539 106.098 143.223 98.3936 141.107 92.7778C136.032 79.3144 140.728 67.0234 149.003 60.6489C153.764 56.9814 160.104 56.2158 162.333 58.7827C158.385 60.3994 154.301 61.541 151.002 64.8257Z"
            fill="#784C16" />
        <path
            d="M234.261 60.5874C234.179 53.6763 230.768 49.3218 222.934 46.1807C225.203 43.8188 227.719 44.9502 229.578 45.7329C234.633 47.8555 237.938 52.0527 239.189 57.8667C239.617 59.8457 240.235 60.3481 242.211 60.4917C252.554 61.2471 260.996 68.0454 259.899 81.3105C259.82 82.2539 259.776 83.3784 258.648 83.4228C257.267 83.4741 257.373 82.1821 257.277 81.1636C256.539 73.0425 251.58 67.8745 243.995 66.8423C241.565 66.5107 239.323 65.646 236.821 66.7944C235.573 67.3686 234.415 66.3262 234.309 64.6309C234.233 63.3833 234.274 62.1289 234.261 60.5874Z"
            fill="#784C16" />
        <path
            d="M184.071 45.7227C178.158 47.2573 173.872 51.4375 169.418 55.2827C168.14 53.2217 169.313 51.957 170.01 50.9248C174.559 44.1743 180.708 40.5478 188.292 38.7978C193.283 37.646 197.955 37.8989 202.689 39.0884C207.084 40.1924 211.101 42.3184 214.054 46.2661C214.573 46.9634 214.542 46.9907 214.628 48.9321C211.661 48.3511 209.521 45.8765 206.565 45.2202C202.043 44.2153 197.559 43.6411 192.975 44.0273C190.039 44.2768 187.137 44.7964 184.071 45.7227Z"
            fill="#784C19" />
        <path
            d="M213.743 72.1128C212.153 66.8867 212.492 61.1514 214.689 56.0723C215.486 58.8579 216.282 61.6675 216.467 64.5557C216.648 67.4404 216.18 70.4448 213.743 72.1128Z"
            fill="#074F27" stroke="black" stroke-width="0.2" stroke-miterlimit="10" />
        <g opacity="0.7">
            <path
                d="M186.437 101.166C188.32 101.193 190.237 101.077 192.035 100.94C195.867 100.649 199.1 101.237 202.839 100.848C207.525 100.359 212.174 100.67 217.055 100.075C218.172 99.9419 219.297 99.8018 220.421 99.6377C220.982 99.5591 221.546 99.4805 222.11 99.4019C222.674 99.313 223.238 99.2241 223.802 99.1318C226.061 98.7798 228.324 98.3526 230.576 97.8399C231.137 97.6997 231.701 97.5767 232.261 97.4263L233.936 96.9478C234.497 96.7734 235.05 96.582 235.601 96.3564C236.154 96.1274 236.667 95.9019 237.299 95.5156C237.891 95.1397 238.438 94.6987 238.776 94.1211C238.94 93.834 239.046 93.5059 239.042 93.1675C239.029 92.8291 238.913 92.5078 238.731 92.2275C238.017 91.1235 236.428 90.5083 235.447 90.1494C233.358 89.4146 231.246 89.0181 229.158 88.6899C227.066 88.3721 224.984 88.1567 222.92 87.9927C218.788 87.6714 214.71 87.5518 210.656 87.5142C202.597 87.4424 194.609 87.1553 186.478 86.2256C184.116 85.9487 181.682 85.6275 179.225 85.2241C176.771 84.8106 174.282 84.3252 171.869 83.6484C170.666 83.3066 169.477 82.9204 168.366 82.4453C167.812 82.2061 167.279 81.9429 166.793 81.6523C166.308 81.3652 165.871 81.0337 165.58 80.7056C165.437 80.5449 165.334 80.3843 165.283 80.2612C165.231 80.1348 165.221 80.0527 165.231 79.957C165.242 79.8613 165.283 79.7349 165.382 79.5845C165.481 79.4341 165.631 79.27 165.809 79.1094C166.171 78.7881 166.636 78.4907 167.142 78.2344C167.634 77.9678 168.208 77.7695 168.759 77.5576C169.548 77.2158 170.536 76.98 171.575 76.6724C172.098 76.522 172.662 76.4194 173.233 76.2861C173.807 76.1665 174.392 76.0059 175.007 75.9102C176.234 75.7017 177.505 75.4385 178.821 75.2642C180.134 75.0728 181.47 74.8677 182.807 74.7173C188.149 74.0508 193.402 73.5996 196.53 73.2817C194.431 73.4321 192.309 73.6441 190.172 73.8149C189.106 73.9175 188.04 74.02 186.97 74.126L185.367 74.2798L183.767 74.4609C179.512 74.9429 175.26 75.4692 171.315 76.4399C171.842 76.2725 172.402 76.1768 172.946 76.0435C173.493 75.9238 174.04 75.7905 174.593 75.6777C175.708 75.4829 176.818 75.2642 177.943 75.0864C179.071 74.9224 180.202 74.7583 181.333 74.5942C182.472 74.4575 183.61 74.3208 184.751 74.1841C185.893 74.0508 187.042 73.9517 188.187 73.832L189.906 73.6646L191.632 73.521L195.084 73.2407L198.54 73.0015C207.751 72.3794 216.949 71.9829 225.873 71.6719C217.509 71.9487 209.122 72.3145 200.778 72.8066C198.693 72.9434 196.612 73.0767 194.53 73.2134C193.491 73.292 192.452 73.374 191.417 73.4526L189.861 73.5723L188.31 73.7124C187.277 73.8081 186.242 73.9004 185.213 73.9961C184.184 74.1089 183.155 74.2217 182.13 74.3345C181.101 74.4336 180.083 74.5908 179.061 74.7207L177.533 74.9258L176.015 75.1753L174.498 75.4248L173 75.7324C172.501 75.8418 171.999 75.9273 171.507 76.0503L170.041 76.4399C169.798 76.5083 169.548 76.563 169.309 76.6382L168.602 76.8877L167.894 77.1372C167.655 77.2158 167.422 77.3013 167.197 77.4038C166.305 77.8003 165.426 78.2925 164.845 78.9727C164.705 79.1436 164.592 79.3247 164.51 79.5093C164.435 79.6973 164.397 79.8887 164.397 80.0835C164.397 80.4732 164.592 80.8662 164.873 81.2217C165.457 81.9292 166.301 82.4761 167.169 82.9307C168.926 83.8467 170.844 84.4653 172.761 85.0088C176.613 86.0684 180.544 86.7588 184.437 87.3433C188.337 87.9209 192.216 88.3687 196.055 88.7617C191.557 88.4404 186.898 87.9995 182.147 87.2988C179.771 86.9468 177.375 86.5264 174.976 85.9795C172.583 85.4224 170.17 84.7695 167.874 83.7544C166.739 83.2314 165.597 82.6333 164.715 81.7105C164.292 81.249 163.936 80.6577 163.957 80.0083C163.974 79.3589 164.36 78.7915 164.818 78.3677C165.276 77.9302 165.823 77.5986 166.383 77.3081C166.664 77.1611 166.954 77.0347 167.245 76.9116C167.539 76.7954 167.843 76.6997 168.14 76.5938L169.039 76.2793C169.336 76.1665 169.651 76.1084 169.958 76.0195C170.577 75.8623 171.186 75.6812 171.811 75.5479C176.805 74.4746 181.935 73.9414 187.055 73.4834C189.615 73.2476 192.182 73.0869 194.739 72.9023C197.299 72.7588 199.852 72.5845 202.395 72.4717C203.667 72.4067 204.935 72.3452 206.199 72.2803C207.464 72.2256 208.725 72.1743 209.983 72.1196C212.499 72.0034 214.997 71.9214 217.472 71.8291C227.377 71.4805 236.923 71.248 245.762 71.1182C247.102 71.1011 248.517 71.084 249.877 71.0669C250.558 71.0601 251.224 71.0532 251.86 71.0464C252.021 71.0464 252.178 71.043 252.332 71.043H252.376C252.379 71.043 252.39 71.043 252.39 71.043L252.376 71.0327L252.287 70.9746L252.096 70.8516C251.843 70.6875 251.597 70.5303 251.361 70.3765L252.055 70.8242L252.386 71.0361C252.386 71.043 252.284 71.0396 252.222 71.043L252.014 71.0464C251.46 71.0498 250.906 71.0566 250.346 71.0601C249.228 71.0737 248.104 71.084 246.969 71.0977C244.699 71.1216 242.396 71.1592 240.061 71.2036C235.389 71.2856 230.593 71.4019 225.706 71.5352C215.937 71.812 205.813 72.1675 195.648 72.752C190.569 73.0664 185.473 73.4185 180.421 73.9961C177.898 74.3003 175.379 74.6216 172.901 75.1274C170.43 75.6265 167.935 76.1768 165.689 77.4209C165.143 77.7559 164.609 78.1387 164.199 78.6787C163.998 78.9487 163.83 79.2598 163.748 79.605C163.663 79.9502 163.676 80.3228 163.775 80.6611C163.871 81.0029 164.042 81.3105 164.247 81.5737C164.449 81.8438 164.678 82.083 164.924 82.2949C165.413 82.7256 165.949 83.0742 166.503 83.3853C167.607 84.0039 168.769 84.4722 169.935 84.8857C171.104 85.2959 172.283 85.6377 173.465 85.9453C178.199 87.1553 182.93 87.8457 187.527 88.3926C191.751 88.8848 195.997 89.23 200.255 89.4829C202.385 89.6094 204.518 89.7119 206.654 89.794C208.783 89.8657 210.913 89.9341 213.045 90.0059C217.28 90.1733 221.525 90.4297 225.706 90.9287C227.794 91.1817 229.872 91.4927 231.865 91.9404C232.856 92.166 233.83 92.4292 234.712 92.7539C234.931 92.8359 235.143 92.9214 235.344 93.0103L235.45 93.0581L235.481 93.0752C235.522 93.0991 235.56 93.1231 235.587 93.1607C235.611 93.2017 235.594 93.2598 235.556 93.2905C235.522 93.3213 235.478 93.3418 235.44 93.3555L235.426 93.3589C235.413 93.3623 235.378 93.376 235.354 93.3897L235.317 93.4067L235.242 93.4409L235.078 93.5093C234.855 93.6016 234.626 93.6904 234.384 93.7725C233.902 93.9365 233.406 94.0869 232.873 94.2134C230.754 94.7603 228.478 95.0986 226.208 95.3857C221.525 95.9531 216.727 96.2402 211.921 96.459C207.112 96.6709 202.286 96.8008 197.473 96.9307C193.201 97.0537 187.247 97.1084 181.952 97.3613C176.658 97.6074 172.02 98.0586 170.389 99.0293C173.141 99.0977 176.183 98.8892 178.828 99.0054C177.83 99.1763 176.682 99.3882 175.499 99.5044C176.627 99.501 177.878 99.5522 178.927 99.4429C178.059 99.5454 177.17 99.6685 176.835 99.8599C178.192 99.9009 180.11 99.6172 181.18 99.4976C181.805 99.4292 184.673 98.9746 185.497 99.043C183.371 99.4087 180.677 99.7505 178.944 100.188C179.683 100.195 180.411 100.164 181.128 100.198C180.243 100.369 178.507 100.455 178.056 100.68C179.891 100.636 181.511 100.502 183.412 100.489C184.953 100.475 186.341 100.485 187.814 100.366C186.057 100.55 183.688 100.704 182.475 101.025C183.292 101.087 184.15 101.029 184.987 100.978C184.885 101.008 184.827 101.042 184.806 101.08C185.179 101.07 185.671 101.104 186.057 101.087C186.067 101.138 186.153 101.183 186.081 101.234C186.091 101.2 186.095 101.162 186.102 101.128"
                fill="white" />
        </g>
        <g opacity="0.7">
            <path
                d="M186.437 101.166C188.32 101.193 190.237 101.077 192.035 100.94C195.867 100.649 199.1 101.237 202.839 100.848C207.525 100.359 212.174 100.67 217.055 100.075C218.172 99.9419 219.297 99.8018 220.421 99.6377C220.982 99.5591 221.546 99.4805 222.11 99.4019C222.674 99.313 223.238 99.2241 223.802 99.1318C226.061 98.7798 228.324 98.3526 230.576 97.8399C231.137 97.6997 231.701 97.5767 232.261 97.4263L233.936 96.9478C234.497 96.7734 235.05 96.582 235.601 96.3564C236.154 96.1274 236.667 95.9019 237.299 95.5156C237.891 95.1397 238.438 94.6987 238.776 94.1211C238.94 93.834 239.046 93.5059 239.042 93.1675C239.029 92.8291 238.913 92.5078 238.731 92.2275C238.017 91.1235 236.428 90.5083 235.447 90.1494C233.358 89.4146 231.246 89.0181 229.158 88.6899C227.066 88.3721 224.984 88.1567 222.92 87.9927C218.788 87.6714 214.71 87.5518 210.656 87.5142C202.597 87.4424 194.609 87.1553 186.478 86.2256C184.116 85.9487 181.682 85.6275 179.225 85.2241C176.771 84.8106 174.282 84.3252 171.869 83.6484C170.666 83.3066 169.477 82.9204 168.366 82.4453C167.812 82.2061 167.279 81.9429 166.793 81.6523C166.308 81.3652 165.871 81.0337 165.58 80.7056C165.437 80.5449 165.334 80.3843 165.283 80.2612C165.231 80.1348 165.221 80.0527 165.231 79.957C165.242 79.8613 165.283 79.7349 165.382 79.5845C165.481 79.4341 165.631 79.27 165.809 79.1094C166.171 78.7881 166.636 78.4907 167.142 78.2344C167.634 77.9678 168.208 77.7695 168.759 77.5576C169.548 77.2158 170.536 76.98 171.575 76.6724C172.098 76.522 172.662 76.4194 173.233 76.2861C173.807 76.1665 174.392 76.0059 175.007 75.9102C176.234 75.7017 177.505 75.4385 178.821 75.2642C180.134 75.0728 181.47 74.8677 182.807 74.7173C188.149 74.0508 193.402 73.5996 196.53 73.2817C194.431 73.4321 192.309 73.6441 190.172 73.8149C189.106 73.9175 188.04 74.02 186.97 74.126L185.367 74.2798L183.767 74.4609C179.512 74.9429 175.26 75.4692 171.315 76.4399C171.842 76.2725 172.402 76.1768 172.946 76.0435C173.493 75.9238 174.04 75.7905 174.593 75.6777C175.708 75.4829 176.818 75.2642 177.943 75.0864C179.071 74.9224 180.202 74.7583 181.333 74.5942C182.472 74.4575 183.61 74.3208 184.751 74.1841C185.893 74.0508 187.042 73.9517 188.187 73.832L189.906 73.6646L191.632 73.521L195.084 73.2407L198.54 73.0015C207.751 72.3794 216.949 71.9829 225.873 71.6719C217.509 71.9487 209.122 72.3145 200.778 72.8066C198.693 72.9434 196.612 73.0767 194.53 73.2134C193.491 73.292 192.452 73.374 191.417 73.4526L189.861 73.5723L188.31 73.7124C187.277 73.8081 186.242 73.9004 185.213 73.9961C184.184 74.1089 183.155 74.2217 182.13 74.3345C181.101 74.4336 180.083 74.5908 179.061 74.7207L177.533 74.9258L176.015 75.1753L174.498 75.4248L173 75.7324C172.501 75.8418 171.999 75.9273 171.507 76.0503L170.041 76.4399C169.798 76.5083 169.548 76.563 169.309 76.6382L168.602 76.8877L167.894 77.1372C167.655 77.2158 167.422 77.3013 167.197 77.4038C166.305 77.8003 165.426 78.2925 164.845 78.9727C164.705 79.1436 164.592 79.3247 164.51 79.5093C164.435 79.6973 164.397 79.8887 164.397 80.0835C164.397 80.4732 164.592 80.8662 164.873 81.2217C165.457 81.9292 166.301 82.4761 167.169 82.9307C168.926 83.8467 170.844 84.4653 172.761 85.0088C176.613 86.0684 180.544 86.7588 184.437 87.3433C188.337 87.9209 192.216 88.3687 196.055 88.7617C191.557 88.4404 186.898 87.9995 182.147 87.2988C179.771 86.9468 177.375 86.5264 174.976 85.9795C172.583 85.4224 170.17 84.7695 167.874 83.7544C166.739 83.2314 165.597 82.6333 164.715 81.7105C164.292 81.249 163.936 80.6577 163.957 80.0083C163.974 79.3589 164.36 78.7915 164.818 78.3677C165.276 77.9302 165.823 77.5986 166.383 77.3081C166.664 77.1611 166.954 77.0347 167.245 76.9116C167.539 76.7954 167.843 76.6997 168.14 76.5938L169.039 76.2793C169.336 76.1665 169.651 76.1084 169.958 76.0195C170.577 75.8623 171.186 75.6812 171.811 75.5479C176.805 74.4746 181.935 73.9414 187.055 73.4834C189.615 73.2476 192.182 73.0869 194.739 72.9023C197.299 72.7588 199.852 72.5845 202.395 72.4717C203.667 72.4067 204.935 72.3452 206.199 72.2803C207.464 72.2256 208.725 72.1743 209.983 72.1196C212.499 72.0034 214.997 71.9214 217.472 71.8291C227.377 71.4805 236.923 71.248 245.762 71.1182C247.102 71.1011 248.517 71.084 249.877 71.0669C250.558 71.0601 251.224 71.0532 251.86 71.0464C252.021 71.0464 252.178 71.043 252.332 71.043H252.376C252.379 71.043 252.39 71.043 252.39 71.043L252.376 71.0327L252.287 70.9746L252.096 70.8516C251.843 70.6875 251.597 70.5303 251.361 70.3765L252.055 70.8242L252.386 71.0361C252.386 71.043 252.284 71.0396 252.222 71.043L252.014 71.0464C251.46 71.0498 250.906 71.0566 250.346 71.0601C249.228 71.0737 248.104 71.084 246.969 71.0977C244.699 71.1216 242.396 71.1592 240.061 71.2036C235.389 71.2856 230.593 71.4019 225.706 71.5352C215.937 71.812 205.813 72.1675 195.648 72.752C190.569 73.0664 185.473 73.4185 180.421 73.9961C177.898 74.3003 175.379 74.6216 172.901 75.1274C170.43 75.6265 167.935 76.1768 165.689 77.4209C165.143 77.7559 164.609 78.1387 164.199 78.6787C163.998 78.9487 163.83 79.2598 163.748 79.605C163.663 79.9502 163.676 80.3228 163.775 80.6611C163.871 81.0029 164.042 81.3105 164.247 81.5737C164.449 81.8438 164.678 82.083 164.924 82.2949C165.413 82.7256 165.949 83.0742 166.503 83.3853C167.607 84.0039 168.769 84.4722 169.935 84.8857C171.104 85.2959 172.283 85.6377 173.465 85.9453C178.199 87.1553 182.93 87.8457 187.527 88.3926C191.751 88.8848 195.997 89.23 200.255 89.4829C202.385 89.6094 204.518 89.7119 206.654 89.794C208.783 89.8657 210.913 89.9341 213.045 90.0059C217.28 90.1733 221.525 90.4297 225.706 90.9287C227.794 91.1817 229.872 91.4927 231.865 91.9404C232.856 92.166 233.83 92.4292 234.712 92.7539C234.931 92.8359 235.143 92.9214 235.344 93.0103L235.45 93.0581L235.481 93.0752C235.522 93.0991 235.56 93.1231 235.587 93.1607C235.611 93.2017 235.594 93.2598 235.556 93.2905C235.522 93.3213 235.478 93.3418 235.44 93.3555L235.426 93.3589C235.413 93.3623 235.378 93.376 235.354 93.3897L235.317 93.4067L235.242 93.4409L235.078 93.5093C234.855 93.6016 234.626 93.6904 234.384 93.7725C233.902 93.9365 233.406 94.0869 232.873 94.2134C230.754 94.7603 228.478 95.0986 226.208 95.3857C221.525 95.9531 216.727 96.2402 211.921 96.459C207.112 96.6709 202.286 96.8008 197.473 96.9307C193.201 97.0537 187.247 97.1084 181.952 97.3613C176.658 97.6074 172.02 98.0586 170.389 99.0293C173.141 99.0977 176.183 98.8892 178.828 99.0054C177.83 99.1763 176.682 99.3882 175.499 99.5044C176.627 99.501 177.878 99.5522 178.927 99.4429C178.059 99.5454 177.17 99.6685 176.835 99.8599C178.192 99.9009 180.11 99.6172 181.18 99.4976C181.805 99.4292 184.673 98.9746 185.497 99.043C183.371 99.4087 180.677 99.7505 178.944 100.188C179.683 100.195 180.411 100.164 181.128 100.198C180.243 100.369 178.507 100.455 178.056 100.68C179.891 100.636 181.511 100.502 183.412 100.489C184.953 100.475 186.341 100.485 187.814 100.366C186.057 100.55 183.688 100.704 182.475 101.025C183.292 101.087 184.15 101.029 184.987 100.978C184.885 101.008 184.827 101.042 184.806 101.08C185.179 101.07 185.671 101.104 186.057 101.087C186.067 101.138 186.153 101.183 186.081 101.234C186.091 101.2 186.095 101.162 186.102 101.128"
                fill="white" />
        </g>
        <g opacity="0.7">
            <path
                d="M186.437 101.166C188.32 101.193 190.237 101.077 192.035 100.94C195.867 100.649 199.1 101.237 202.839 100.848C207.525 100.359 212.174 100.67 217.055 100.075C218.172 99.9419 219.297 99.8018 220.421 99.6377C220.982 99.5591 221.546 99.4805 222.11 99.4019C222.674 99.313 223.238 99.2241 223.802 99.1318C226.061 98.7798 228.324 98.3526 230.576 97.8399C231.137 97.6997 231.701 97.5767 232.261 97.4263L233.936 96.9478C234.497 96.7734 235.05 96.582 235.601 96.3564C236.154 96.1274 236.667 95.9019 237.299 95.5156C237.891 95.1397 238.438 94.6987 238.776 94.1211C238.94 93.834 239.046 93.5059 239.042 93.1675C239.029 92.8291 238.913 92.5078 238.731 92.2275C238.017 91.1235 236.428 90.5083 235.447 90.1494C233.358 89.4146 231.246 89.0181 229.158 88.6899C227.066 88.3721 224.984 88.1567 222.92 87.9927C218.788 87.6714 214.71 87.5518 210.656 87.5142C202.597 87.4424 194.609 87.1553 186.478 86.2256C184.116 85.9487 181.682 85.6275 179.225 85.2241C176.771 84.8106 174.282 84.3252 171.869 83.6484C170.666 83.3066 169.477 82.9204 168.366 82.4453C167.812 82.2061 167.279 81.9429 166.793 81.6523C166.308 81.3652 165.871 81.0337 165.58 80.7056C165.437 80.5449 165.334 80.3843 165.283 80.2612C165.231 80.1348 165.221 80.0527 165.231 79.957C165.242 79.8613 165.283 79.7349 165.382 79.5845C165.481 79.4341 165.631 79.27 165.809 79.1094C166.171 78.7881 166.636 78.4907 167.142 78.2344C167.634 77.9678 168.208 77.7695 168.759 77.5576C169.548 77.2158 170.536 76.98 171.575 76.6724C172.098 76.522 172.662 76.4194 173.233 76.2861C173.807 76.1665 174.392 76.0059 175.007 75.9102C176.234 75.7017 177.505 75.4385 178.821 75.2642C180.134 75.0728 181.47 74.8677 182.807 74.7173C188.149 74.0508 193.402 73.5996 196.53 73.2817C194.431 73.4321 192.309 73.6441 190.172 73.8149C189.106 73.9175 188.04 74.02 186.97 74.126L185.367 74.2798L183.767 74.4609C179.512 74.9429 175.26 75.4692 171.315 76.4399C171.842 76.2725 172.402 76.1768 172.946 76.0435C173.493 75.9238 174.04 75.7905 174.593 75.6777C175.708 75.4829 176.818 75.2642 177.943 75.0864C179.071 74.9224 180.202 74.7583 181.333 74.5942C182.472 74.4575 183.61 74.3208 184.751 74.1841C185.893 74.0508 187.042 73.9517 188.187 73.832L189.906 73.6646L191.632 73.521L195.084 73.2407L198.54 73.0015C207.751 72.3794 216.949 71.9829 225.873 71.6719C217.509 71.9487 209.122 72.3145 200.778 72.8066C198.693 72.9434 196.612 73.0767 194.53 73.2134C193.491 73.292 192.452 73.374 191.417 73.4526L189.861 73.5723L188.31 73.7124C187.277 73.8081 186.242 73.9004 185.213 73.9961C184.184 74.1089 183.155 74.2217 182.13 74.3345C181.101 74.4336 180.083 74.5908 179.061 74.7207L177.533 74.9258L176.015 75.1753L174.498 75.4248L173 75.7324C172.501 75.8418 171.999 75.9273 171.507 76.0503L170.041 76.4399C169.798 76.5083 169.548 76.563 169.309 76.6382L168.602 76.8877L167.894 77.1372C167.655 77.2158 167.422 77.3013 167.197 77.4038C166.305 77.8003 165.426 78.2925 164.845 78.9727C164.705 79.1436 164.592 79.3247 164.51 79.5093C164.435 79.6973 164.397 79.8887 164.397 80.0835C164.397 80.4732 164.592 80.8662 164.873 81.2217C165.457 81.9292 166.301 82.4761 167.169 82.9307C168.926 83.8467 170.844 84.4653 172.761 85.0088C176.613 86.0684 180.544 86.7588 184.437 87.3433C188.337 87.9209 192.216 88.3687 196.055 88.7617C191.557 88.4404 186.898 87.9995 182.147 87.2988C179.771 86.9468 177.375 86.5264 174.976 85.9795C172.583 85.4224 170.17 84.7695 167.874 83.7544C166.739 83.2314 165.597 82.6333 164.715 81.7105C164.292 81.249 163.936 80.6577 163.957 80.0083C163.974 79.3589 164.36 78.7915 164.818 78.3677C165.276 77.9302 165.823 77.5986 166.383 77.3081C166.664 77.1611 166.954 77.0347 167.245 76.9116C167.539 76.7954 167.843 76.6997 168.14 76.5938L169.039 76.2793C169.336 76.1665 169.651 76.1084 169.958 76.0195C170.577 75.8623 171.186 75.6812 171.811 75.5479C176.805 74.4746 181.935 73.9414 187.055 73.4834C189.615 73.2476 192.182 73.0869 194.739 72.9023C197.299 72.7588 199.852 72.5845 202.395 72.4717C203.667 72.4067 204.935 72.3452 206.199 72.2803C207.464 72.2256 208.725 72.1743 209.983 72.1196C212.499 72.0034 214.997 71.9214 217.472 71.8291C227.377 71.4805 236.923 71.248 245.762 71.1182C247.102 71.1011 248.517 71.084 249.877 71.0669C250.558 71.0601 251.224 71.0532 251.86 71.0464C252.021 71.0464 252.178 71.043 252.332 71.043H252.376C252.379 71.043 252.39 71.043 252.39 71.043L252.376 71.0327L252.287 70.9746L252.096 70.8516C251.843 70.6875 251.597 70.5303 251.361 70.3765L252.055 70.8242L252.386 71.0361C252.386 71.043 252.284 71.0396 252.222 71.043L252.014 71.0464C251.46 71.0498 250.906 71.0566 250.346 71.0601C249.228 71.0737 248.104 71.084 246.969 71.0977C244.699 71.1216 242.396 71.1592 240.061 71.2036C235.389 71.2856 230.593 71.4019 225.706 71.5352C215.937 71.812 205.813 72.1675 195.648 72.752C190.569 73.0664 185.473 73.4185 180.421 73.9961C177.898 74.3003 175.379 74.6216 172.901 75.1274C170.43 75.6265 167.935 76.1768 165.689 77.4209C165.143 77.7559 164.609 78.1387 164.199 78.6787C163.998 78.9487 163.83 79.2598 163.748 79.605C163.663 79.9502 163.676 80.3228 163.775 80.6611C163.871 81.0029 164.042 81.3105 164.247 81.5737C164.449 81.8438 164.678 82.083 164.924 82.2949C165.413 82.7256 165.949 83.0742 166.503 83.3853C167.607 84.0039 168.769 84.4722 169.935 84.8857C171.104 85.2959 172.283 85.6377 173.465 85.9453C178.199 87.1553 182.93 87.8457 187.527 88.3926C191.751 88.8848 195.997 89.23 200.255 89.4829C202.385 89.6094 204.518 89.7119 206.654 89.794C208.783 89.8657 210.913 89.9341 213.045 90.0059C217.28 90.1733 221.525 90.4297 225.706 90.9287C227.794 91.1817 229.872 91.4927 231.865 91.9404C232.856 92.166 233.83 92.4292 234.712 92.7539C234.931 92.8359 235.143 92.9214 235.344 93.0103L235.45 93.0581L235.481 93.0752C235.522 93.0991 235.56 93.1231 235.587 93.1607C235.611 93.2017 235.594 93.2598 235.556 93.2905C235.522 93.3213 235.478 93.3418 235.44 93.3555L235.426 93.3589C235.413 93.3623 235.378 93.376 235.354 93.3897L235.317 93.4067L235.242 93.4409L235.078 93.5093C234.855 93.6016 234.626 93.6904 234.384 93.7725C233.902 93.9365 233.406 94.0869 232.873 94.2134C230.754 94.7603 228.478 95.0986 226.208 95.3857C221.525 95.9531 216.727 96.2402 211.921 96.459C207.112 96.6709 202.286 96.8008 197.473 96.9307C193.201 97.0537 187.247 97.1084 181.952 97.3613C176.658 97.6074 172.02 98.0586 170.389 99.0293C173.141 99.0977 176.183 98.8892 178.828 99.0054C177.83 99.1763 176.682 99.3882 175.499 99.5044C176.627 99.501 177.878 99.5522 178.927 99.4429C178.059 99.5454 177.17 99.6685 176.835 99.8599C178.192 99.9009 180.11 99.6172 181.18 99.4976C181.805 99.4292 184.673 98.9746 185.497 99.043C183.371 99.4087 180.677 99.7505 178.944 100.188C179.683 100.195 180.411 100.164 181.128 100.198C180.243 100.369 178.507 100.455 178.056 100.68C179.891 100.636 181.511 100.502 183.412 100.489C184.953 100.475 186.341 100.485 187.814 100.366C186.057 100.55 183.688 100.704 182.475 101.025C183.292 101.087 184.15 101.029 184.987 100.978C184.885 101.008 184.827 101.042 184.806 101.08C185.179 101.07 185.671 101.104 186.057 101.087C186.067 101.138 186.153 101.183 186.081 101.234C186.091 101.2 186.095 101.162 186.102 101.128"
                fill="#856F47" />
        </g>
        <path
            d="M174.874 85.4326C171.931 75.7256 172.03 64.9556 175.154 55.3169C176.641 60.4985 178.131 65.7212 178.65 71.1182C179.163 76.5185 178.644 82.1719 174.874 85.4326Z"
            fill="#074F27" stroke="black" stroke-width="0.2" stroke-miterlimit="10" />
        <path
            d="M198.646 110.462C199.469 111.994 198.57 113.576 196.731 114.178C191.765 115.801 184.013 113.433 181.2 108.781C179.426 105.845 177.786 106.241 175.332 107.171C169.367 109.427 163.526 109.013 158.136 105.168C154.964 102.902 153.07 99.6343 152.387 95.5361C152.26 94.7876 152.004 94.063 152.718 93.5845C153.658 92.9487 154.027 93.8545 154.547 94.456C156.15 96.3223 156.987 98.8105 159.134 100.284C165.901 104.925 172.255 102.782 178.514 99.1011C181.108 97.5732 182.024 97.71 182.94 100.653C183.948 103.893 185.5 106.686 188.132 108.589C191.283 110.873 194.605 112.482 198.646 110.462Z"
            fill="#784C19" />
        <path
            d="M197.459 100.024C193.536 86.1299 194.021 70.8311 198.816 57.248C200.785 64.6616 202.768 72.1333 203.338 79.8203C203.909 87.5107 202.979 95.5225 197.459 100.024Z"
            fill="#074F27" stroke="black" stroke-width="0.2" stroke-miterlimit="10" />
        <path
            d="M237.58 129.699C237.169 125.037 236.944 120.621 237.48 116.293C237.887 113.005 236.5 111.778 234.086 110.821C228.7 108.685 223.139 108.084 217.461 108.254C215.643 108.309 213.821 108.275 212.003 108.21C211.131 108.179 210.161 108.019 210.017 106.839C209.85 105.465 210.94 105.626 211.729 105.312C214.395 104.255 217.15 104.054 219.933 104.167C221.43 104.228 222.274 103.63 223.139 102.201C225.507 98.2808 226.444 93.8818 227.329 89.4317C227.466 88.7515 227.247 87.9448 228.173 87.3877C231.379 92.9658 228.577 98.2227 227.336 103.729C234.346 105.985 234.797 98.0825 238.786 95.1875C239.976 99.1455 237.532 101.853 236.551 105.165C241.015 106.357 244.686 104.45 248.312 102.488C252.096 100.441 254.283 96.5274 256.891 92.9863C258.627 94.3945 258.005 95.772 257.404 97.0332C255.083 101.894 251.323 105.206 246.733 106.908C242.898 108.33 240.847 110.401 240.697 114.947C240.512 120.569 240.194 126.113 241.107 131.753C241.777 135.909 242.276 140.113 242.956 144.283C243.332 146.597 241.148 148.416 237.556 149.608C231.735 151.543 225.917 153.519 219.857 154.294C215.828 154.811 211.764 155.156 207.689 154.8C207.023 154.742 206.35 154.694 205.683 154.715C198.194 154.961 190.832 153.809 183.483 152.408C182.267 152.175 181.005 152.251 179.765 152.138C178.753 152.045 177.574 152.223 177.297 150.647C177.813 149.332 178.808 149.619 179.748 149.731C191.307 151.126 202.911 150.552 214.484 150.319C218.921 150.23 223.604 149.848 227.644 147.564C227.896 146.666 227.521 146.139 227.083 146.146C223.901 146.18 220.979 144.615 217.769 144.608C210.301 144.598 202.836 144.143 195.368 144.143C188.576 144.143 181.72 143.938 175.021 144.902C170.693 145.524 166.076 145.298 161.981 147.773C159.875 149.048 157.907 147.472 158.495 144.926C160.163 137.683 159.465 130.437 159.038 123.17C158.949 121.636 159.014 121.632 160.251 119.363C162.548 126.906 161.629 134.713 163.618 142.342C168.034 140.817 172.525 140.8 176.839 139.597C177.3 139.467 177.765 139.293 178.237 139.266C188.549 138.667 198.864 137.054 209.183 138.086C217.786 138.948 226.454 139.642 234.869 142.003C237.368 142.704 237.747 141.525 237.72 139.378C237.675 136.248 237.651 133.117 237.58 129.699Z"
            fill="#764C1C" />
    </g>
    <path
        d="M103 205V194.824H99.064V193.8H108.12V194.824H104.184V205H103ZM114.588 198.808H120.508V199.816H114.588V198.808ZM114.716 203.976H121.452V205H113.532V193.8H121.212V194.824H114.716V203.976ZM125.963 205L131.083 193.8H132.251L137.371 205H136.123L131.419 194.488H131.899L127.195 205H125.963ZM127.979 202.008L128.331 201.048H134.843L135.195 202.008H127.979ZM147.451 205.096C146.608 205.096 145.83 204.957 145.115 204.68C144.4 204.392 143.782 203.992 143.259 203.48C142.736 202.968 142.326 202.365 142.027 201.672C141.739 200.979 141.595 200.221 141.595 199.4C141.595 198.579 141.739 197.821 142.027 197.128C142.326 196.435 142.736 195.832 143.259 195.32C143.792 194.808 144.416 194.413 145.131 194.136C145.846 193.848 146.624 193.704 147.467 193.704C148.278 193.704 149.04 193.843 149.755 194.12C150.47 194.387 151.072 194.792 151.563 195.336L150.811 196.088C150.352 195.619 149.846 195.283 149.291 195.08C148.736 194.867 148.139 194.76 147.499 194.76C146.827 194.76 146.203 194.877 145.627 195.112C145.051 195.336 144.55 195.661 144.123 196.088C143.696 196.504 143.36 196.995 143.115 197.56C142.88 198.115 142.763 198.728 142.763 199.4C142.763 200.072 142.88 200.691 143.115 201.256C143.36 201.811 143.696 202.301 144.123 202.728C144.55 203.144 145.051 203.469 145.627 203.704C146.203 203.928 146.827 204.04 147.499 204.04C148.139 204.04 148.736 203.933 149.291 203.72C149.846 203.507 150.352 203.165 150.811 202.696L151.563 203.448C151.072 203.992 150.47 204.403 149.755 204.68C149.04 204.957 148.272 205.096 147.451 205.096ZM165.799 193.8H166.967V205H165.799V193.8ZM158.791 205H157.607V193.8H158.791V205ZM165.911 199.832H158.663V198.792H165.911V199.832ZM180.058 205L185.178 193.8H186.346L191.466 205H190.218L185.514 194.488H185.994L181.29 205H180.058ZM182.074 202.008L182.426 201.048H188.938L189.29 202.008H182.074ZM196.839 205V193.8H197.815L205.543 203.528H205.031V193.8H206.199V205H205.223L197.511 195.272H198.023V205H196.839ZM213.375 205V193.8H217.935C219.129 193.8 220.175 194.04 221.071 194.52C221.977 194.989 222.681 195.645 223.183 196.488C223.684 197.331 223.935 198.301 223.935 199.4C223.935 200.499 223.684 201.469 223.183 202.312C222.681 203.155 221.977 203.816 221.071 204.296C220.175 204.765 219.129 205 217.935 205H213.375ZM214.559 203.976H217.871C218.863 203.976 219.721 203.784 220.447 203.4C221.183 203.005 221.753 202.467 222.159 201.784C222.564 201.091 222.767 200.296 222.767 199.4C222.767 198.493 222.564 197.699 222.159 197.016C221.753 196.333 221.183 195.8 220.447 195.416C219.721 195.021 218.863 194.824 217.871 194.824H214.559V203.976ZM239.997 205V194.824H236.061V193.8H245.117V194.824H241.181V205H239.997ZM248.174 205L253.294 193.8H254.462L259.582 205H258.334L253.63 194.488H254.11L249.406 205H248.174ZM250.19 202.008L250.542 201.048H257.054L257.406 202.008H250.19ZM268.043 205.096C267.211 205.096 266.411 204.963 265.643 204.696C264.885 204.419 264.299 204.067 263.883 203.64L264.347 202.728C264.741 203.112 265.269 203.437 265.931 203.704C266.603 203.96 267.307 204.088 268.043 204.088C268.747 204.088 269.317 204.003 269.755 203.832C270.203 203.651 270.528 203.411 270.731 203.112C270.944 202.813 271.051 202.483 271.051 202.12C271.051 201.683 270.923 201.331 270.667 201.064C270.421 200.797 270.096 200.589 269.691 200.44C269.285 200.28 268.837 200.141 268.347 200.024C267.856 199.907 267.365 199.784 266.875 199.656C266.384 199.517 265.931 199.336 265.515 199.112C265.109 198.888 264.779 198.595 264.523 198.232C264.277 197.859 264.155 197.373 264.155 196.776C264.155 196.221 264.299 195.715 264.587 195.256C264.885 194.787 265.339 194.413 265.947 194.136C266.555 193.848 267.333 193.704 268.283 193.704C268.912 193.704 269.536 193.795 270.155 193.976C270.773 194.147 271.307 194.387 271.755 194.696L271.355 195.64C270.875 195.32 270.363 195.085 269.819 194.936C269.285 194.787 268.768 194.712 268.267 194.712C267.595 194.712 267.04 194.803 266.603 194.984C266.165 195.165 265.84 195.411 265.627 195.72C265.424 196.019 265.323 196.36 265.323 196.744C265.323 197.181 265.445 197.533 265.691 197.8C265.947 198.067 266.277 198.275 266.683 198.424C267.099 198.573 267.552 198.707 268.043 198.824C268.533 198.941 269.019 199.069 269.499 199.208C269.989 199.347 270.437 199.528 270.843 199.752C271.259 199.965 271.589 200.253 271.835 200.616C272.091 200.979 272.219 201.453 272.219 202.04C272.219 202.584 272.069 203.091 271.771 203.56C271.472 204.019 271.013 204.392 270.395 204.68C269.787 204.957 269.003 205.096 268.043 205.096ZM280.338 205V194.824H276.402V193.8H285.458V194.824H281.522V205H280.338ZM291.926 198.808H297.846V199.816H291.926V198.808ZM292.054 203.976H298.79V205H290.87V193.8H298.55V194.824H292.054V203.976Z"
        fill="#764C1C" />
    <rect x="310" y="198" width="70" height="1" fill="#764C1C" fill-opacity="0.5" />
    <rect x="20" y="198" width="70" height="1" fill="#764C1C" fill-opacity="0.5" />
    <defs>
        <clipPath id="clip0_8_2">
            <rect width="175" height="175" fill="white" transform="translate(112 9)" />
        </clipPath>
    </defs>
</svg>