<?xml version="1.0" encoding="utf-8"?>
<!-- Generator: Adobe Adobe Illustrator 24.2.0, SVG Export Plug-In . SVG Version: 6.00 Build 0)  -->
<svg version="1.1" xmlns="http://www.w3.org/2000/svg" xmlns:xlink="http://www.w3.org/1999/xlink" x="0px" y="0px"
	width="512px" height="512px" viewBox="50 140 512 512" style="enable-background:new 0 0 512 512;"
	xml:space="preserve">
	<style type="text/css">
		.st0 {
			fill: none;
			stroke: #784C07;
			stroke-miterlimit: 10;
		}

		.st1 {
			fill: #784C16;
		}

		.st2 {
			fill: #784C19;
		}

		.st3 {
			fill: #074F27;
			stroke: #000000;
			stroke-width: 0.2;
			stroke-miterlimit: 10;
		}

		.st4 {
			fill: none;
		}

		.st5 {
			opacity: 0.7;
		}

		.st6 {
			fill: #FFFFFF;
		}

		.st7 {
			fill: #856F47;
		}

		.st8 {
			fill: #764C1C;
		}
	</style>
	<g id="Layer_1">
	</g>
	<g id="Layer_3">
		<g>
			<path class="st1" d="M164.11,303.33c-34.93,44.55-23.11,83.04,14.21,118.24c-12.64,2.51-36.97-20.03-43.16-36.46
			c-14.85-39.39-1.11-75.35,23.1-94c13.93-10.73,32.48-12.97,39-5.46C185.71,290.38,173.76,293.72,164.11,303.33z" />
			<path class="st1" d="M407.7,290.93c-0.24-20.22-10.22-32.96-33.14-42.15c6.64-6.91,14-3.6,19.44-1.31
			c14.79,6.21,24.46,18.49,28.12,35.5c1.25,5.79,3.06,7.26,8.84,7.68c30.26,2.21,54.96,22.1,51.75,60.91
			c-0.23,2.76-0.36,6.05-3.66,6.18c-4.04,0.15-3.73-3.63-4.01-6.61c-2.16-23.76-16.67-38.88-38.86-41.9
			c-7.11-0.97-13.67-3.5-20.99-0.14c-3.65,1.68-7.04-1.37-7.35-6.33C407.62,299.11,407.74,295.44,407.7,290.93z" />
			<path class="st2" d="M260.86,247.44c-17.3,4.49-29.84,16.72-42.87,27.97c-3.74-6.03-0.31-9.73,1.73-12.75
			c13.31-19.75,31.3-30.36,53.49-35.48c14.6-3.37,28.27-2.63,42.12,0.85c12.86,3.23,24.61,9.45,33.25,21
			c1.52,2.04,1.43,2.12,1.68,7.8c-8.68-1.7-14.94-8.94-23.59-10.86c-13.23-2.94-26.35-4.62-39.76-3.49
			C278.32,243.21,269.83,244.73,260.86,247.44z" />
			<path class="st3" d="M347.67,324.65c-4.65-15.29-3.66-32.07,2.77-46.93c2.33,8.15,4.66,16.37,5.2,24.82
			C356.17,310.98,354.8,319.77,347.67,324.65z" />
			<rect x="306" y="396" class="st4" width="0" height="0" />
			<g>
				<g>
					<g class="st5">
						<g>
							<path class="st6" d="M267.78,409.65c5.51,0.08,11.12-0.26,16.38-0.66c11.21-0.85,20.67,0.87,31.61-0.27
							c13.71-1.43,27.31-0.52,41.59-2.26c3.27-0.39,6.56-0.8,9.85-1.28c1.64-0.23,3.29-0.46,4.94-0.69c1.65-0.26,3.3-0.52,4.95-0.79
							c6.61-1.03,13.23-2.28,19.82-3.78c1.64-0.41,3.29-0.77,4.93-1.21l4.9-1.4c1.64-0.51,3.26-1.07,4.87-1.73
							c1.62-0.67,3.12-1.33,4.97-2.46c1.73-1.1,3.33-2.39,4.32-4.08c0.48-0.84,0.79-1.8,0.78-2.79c-0.04-0.99-0.38-1.93-0.91-2.75
							c-2.09-3.23-6.74-5.03-9.61-6.08c-6.11-2.15-12.29-3.31-18.4-4.27c-6.12-0.93-12.21-1.56-18.25-2.04
							c-12.09-0.94-24.02-1.29-35.88-1.4c-23.58-0.21-46.95-1.05-70.74-3.77c-6.91-0.81-14.03-1.75-21.22-2.93
							c-7.18-1.21-14.46-2.63-21.52-4.61c-3.52-1-7-2.13-10.25-3.52c-1.62-0.7-3.18-1.47-4.6-2.32c-1.42-0.84-2.7-1.81-3.55-2.77
							c-0.42-0.47-0.72-0.94-0.87-1.3c-0.15-0.37-0.18-0.61-0.15-0.89c0.03-0.28,0.15-0.65,0.44-1.09c0.29-0.44,0.73-0.92,1.25-1.39
							c1.06-0.94,2.42-1.81,3.9-2.56c1.44-0.78,3.12-1.36,4.73-1.98c2.31-1,5.2-1.69,8.24-2.59c1.53-0.44,3.18-0.74,4.85-1.13
							c1.68-0.35,3.39-0.82,5.19-1.1c3.59-0.61,7.31-1.38,11.16-1.89c3.84-0.56,7.75-1.16,11.66-1.6c15.63-1.95,31-3.27,40.15-4.2
							c-6.14,0.44-12.35,1.06-18.6,1.56c-3.12,0.3-6.24,0.6-9.37,0.91l-4.69,0.45l-4.68,0.53c-12.45,1.41-24.89,2.95-36.43,5.79
							c1.54-0.49,3.18-0.77,4.77-1.16c1.6-0.35,3.2-0.74,4.82-1.07c3.26-0.57,6.51-1.21,9.8-1.73c3.3-0.48,6.61-0.96,9.92-1.44
							c3.33-0.4,6.66-0.8,10-1.2c3.34-0.39,6.7-0.68,10.05-1.03l5.03-0.49l5.05-0.42l10.1-0.82l10.11-0.7
							c26.95-1.82,53.86-2.98,79.97-3.89c-24.47,0.81-49.01,1.88-73.42,3.32c-6.1,0.4-12.19,0.79-18.28,1.19
							c-3.04,0.23-6.08,0.47-9.11,0.7l-4.55,0.35l-4.54,0.41c-3.02,0.28-6.05,0.55-9.06,0.83c-3.01,0.33-6.02,0.66-9.02,0.99
							c-3.01,0.29-5.99,0.75-8.98,1.13l-4.47,0.6l-4.44,0.73l-4.44,0.73l-4.38,0.9c-1.46,0.32-2.93,0.57-4.37,0.93l-4.29,1.14
							c-0.71,0.2-1.44,0.36-2.14,0.58l-2.07,0.73l-2.07,0.73c-0.7,0.23-1.38,0.48-2.04,0.78c-2.61,1.16-5.18,2.6-6.88,4.59
							c-0.41,0.5-0.74,1.03-0.98,1.57c-0.22,0.55-0.33,1.11-0.33,1.68c0,1.14,0.57,2.29,1.39,3.33c1.71,2.07,4.18,3.67,6.72,5
							c5.14,2.68,10.75,4.49,16.36,6.08c11.27,3.1,22.77,5.12,34.16,6.83c11.41,1.69,22.76,3,33.99,4.15
							c-13.16-0.94-26.79-2.23-40.69-4.28c-6.95-1.03-13.96-2.26-20.98-3.86c-7-1.63-14.06-3.54-20.78-6.51
							c-3.32-1.53-6.66-3.28-9.24-5.98c-1.24-1.35-2.28-3.08-2.22-4.98c0.05-1.9,1.18-3.56,2.52-4.8c1.34-1.28,2.94-2.25,4.58-3.1
							c0.82-0.43,1.67-0.8,2.52-1.16c0.86-0.34,1.75-0.62,2.62-0.93l2.63-0.92c0.87-0.33,1.79-0.5,2.69-0.76
							c1.81-0.46,3.59-0.99,5.42-1.38c14.61-3.14,29.62-4.7,44.6-6.04c7.49-0.69,15-1.16,22.48-1.7c7.49-0.42,14.96-0.93,22.4-1.26
							c3.72-0.19,7.43-0.37,11.13-0.56c3.7-0.16,7.39-0.31,11.07-0.47c7.36-0.34,14.67-0.58,21.91-0.85
							c28.98-1.02,56.91-1.7,82.77-2.08c3.92-0.05,8.06-0.1,12.04-0.15c1.99-0.02,3.94-0.04,5.8-0.06c0.47,0,0.93-0.01,1.38-0.01
							l0.13,0c0.01,0,0.04,0,0.04,0l-0.04-0.03l-0.26-0.17l-0.56-0.36c-0.74-0.48-1.46-0.94-2.15-1.39l2.03,1.31l0.97,0.62
							c0,0.02-0.3,0.01-0.48,0.02l-0.61,0.01c-1.62,0.01-3.24,0.03-4.88,0.04c-3.27,0.04-6.56,0.07-9.88,0.11
							c-6.64,0.07-13.38,0.18-20.21,0.31c-13.67,0.24-27.7,0.58-42,0.97c-28.58,0.81-58.2,1.85-87.94,3.56
							c-14.86,0.92-29.77,1.95-44.55,3.64c-7.38,0.89-14.75,1.83-22,3.31c-7.23,1.46-14.53,3.07-21.1,6.71
							c-1.6,0.98-3.16,2.1-4.36,3.68c-0.59,0.79-1.08,1.7-1.32,2.71c-0.25,1.01-0.21,2.1,0.08,3.09c0.28,1,0.78,1.9,1.38,2.67
							c0.59,0.79,1.26,1.49,1.98,2.11c1.43,1.26,3,2.28,4.62,3.19c3.23,1.81,6.63,3.18,10.04,4.39c3.42,1.2,6.87,2.2,10.33,3.1
							c13.85,3.54,27.69,5.56,41.14,7.16c12.36,1.44,24.78,2.45,37.24,3.19c6.23,0.37,12.47,0.67,18.72,0.91
							c6.23,0.21,12.46,0.41,18.7,0.62c12.39,0.49,24.81,1.24,37.04,2.7c6.11,0.74,12.19,1.65,18.02,2.96
							c2.9,0.66,5.75,1.43,8.33,2.38c0.64,0.24,1.26,0.49,1.85,0.75l0.31,0.14l0.09,0.05c0.12,0.07,0.23,0.14,0.31,0.25
							c0.07,0.12,0.02,0.29-0.09,0.38c-0.1,0.09-0.23,0.15-0.34,0.19l-0.04,0.01c-0.04,0.01-0.14,0.05-0.21,0.09l-0.11,0.05
							l-0.22,0.1l-0.48,0.2c-0.65,0.27-1.32,0.53-2.03,0.77c-1.41,0.48-2.86,0.92-4.42,1.29c-6.2,1.6-12.86,2.59-19.5,3.43
							c-13.7,1.66-27.74,2.5-41.8,3.14c-14.07,0.62-28.19,1-42.27,1.38c-12.5,0.36-29.92,0.52-45.41,1.26
							c-15.49,0.72-29.06,2.04-33.83,4.88c8.05,0.2,16.95-0.41,24.69-0.07c-2.92,0.5-6.28,1.12-9.74,1.46
							c3.3-0.01,6.96,0.14,10.03-0.18c-2.54,0.3-5.14,0.66-6.12,1.22c3.97,0.12,9.58-0.71,12.71-1.06
							c1.83-0.2,10.22-1.53,12.63-1.33c-6.22,1.07-14.1,2.07-19.17,3.35c2.16,0.02,4.29-0.07,6.39,0.03
							c-2.59,0.5-7.67,0.75-8.99,1.41c5.37-0.13,10.11-0.52,15.67-0.56c4.51-0.04,8.57-0.01,12.88-0.36
							c-5.14,0.54-12.07,0.99-15.62,1.93c2.39,0.18,4.9,0.01,7.35-0.14c-0.3,0.09-0.47,0.19-0.53,0.3c1.09-0.03,2.53,0.07,3.66,0.02
							c0.03,0.15,0.28,0.28,0.07,0.43c0.03-0.1,0.04-0.21,0.06-0.31" />
						</g>
					</g>
				</g>
			</g>
			<g>
				<g>
					<g class="st5">
						<g>
							<path class="st6" d="M267.78,409.65c5.51,0.08,11.12-0.26,16.38-0.66c11.21-0.85,20.67,0.87,31.61-0.27
							c13.71-1.43,27.31-0.52,41.59-2.26c3.27-0.39,6.56-0.8,9.85-1.28c1.64-0.23,3.29-0.46,4.94-0.69c1.65-0.26,3.3-0.52,4.95-0.79
							c6.61-1.03,13.23-2.28,19.82-3.78c1.64-0.41,3.29-0.77,4.93-1.21l4.9-1.4c1.64-0.51,3.26-1.07,4.87-1.73
							c1.62-0.67,3.12-1.33,4.97-2.46c1.73-1.1,3.33-2.39,4.32-4.08c0.48-0.84,0.79-1.8,0.78-2.79c-0.04-0.99-0.38-1.93-0.91-2.75
							c-2.09-3.23-6.74-5.03-9.61-6.08c-6.11-2.15-12.29-3.31-18.4-4.27c-6.12-0.93-12.21-1.56-18.25-2.04
							c-12.09-0.94-24.02-1.29-35.88-1.4c-23.58-0.21-46.95-1.05-70.74-3.77c-6.91-0.81-14.03-1.75-21.22-2.93
							c-7.18-1.21-14.46-2.63-21.52-4.61c-3.52-1-7-2.13-10.25-3.52c-1.62-0.7-3.18-1.47-4.6-2.32c-1.42-0.84-2.7-1.81-3.55-2.77
							c-0.42-0.47-0.72-0.94-0.87-1.3c-0.15-0.37-0.18-0.61-0.15-0.89c0.03-0.28,0.15-0.65,0.44-1.09c0.29-0.44,0.73-0.92,1.25-1.39
							c1.06-0.94,2.42-1.81,3.9-2.56c1.44-0.78,3.12-1.36,4.73-1.98c2.31-1,5.2-1.69,8.24-2.59c1.53-0.44,3.18-0.74,4.85-1.13
							c1.68-0.35,3.39-0.82,5.19-1.1c3.59-0.61,7.31-1.38,11.16-1.89c3.84-0.56,7.75-1.16,11.66-1.6c15.63-1.95,31-3.27,40.15-4.2
							c-6.14,0.44-12.35,1.06-18.6,1.56c-3.12,0.3-6.24,0.6-9.37,0.91l-4.69,0.45l-4.68,0.53c-12.45,1.41-24.89,2.95-36.43,5.79
							c1.54-0.49,3.18-0.77,4.77-1.16c1.6-0.35,3.2-0.74,4.82-1.07c3.26-0.57,6.51-1.21,9.8-1.73c3.3-0.48,6.61-0.96,9.92-1.44
							c3.33-0.4,6.66-0.8,10-1.2c3.34-0.39,6.7-0.68,10.05-1.03l5.03-0.49l5.05-0.42l10.1-0.82l10.11-0.7
							c26.95-1.82,53.86-2.98,79.97-3.89c-24.47,0.81-49.01,1.88-73.42,3.32c-6.1,0.4-12.19,0.79-18.28,1.19
							c-3.04,0.23-6.08,0.47-9.11,0.7l-4.55,0.35l-4.54,0.41c-3.02,0.28-6.05,0.55-9.06,0.83c-3.01,0.33-6.02,0.66-9.02,0.99
							c-3.01,0.29-5.99,0.75-8.98,1.13l-4.47,0.6l-4.44,0.73l-4.44,0.73l-4.38,0.9c-1.46,0.32-2.93,0.57-4.37,0.93l-4.29,1.14
							c-0.71,0.2-1.44,0.36-2.14,0.58l-2.07,0.73l-2.07,0.73c-0.7,0.23-1.38,0.48-2.04,0.78c-2.61,1.16-5.18,2.6-6.88,4.59
							c-0.41,0.5-0.74,1.03-0.98,1.57c-0.22,0.55-0.33,1.11-0.33,1.68c0,1.14,0.57,2.29,1.39,3.33c1.71,2.07,4.18,3.67,6.72,5
							c5.14,2.68,10.75,4.49,16.36,6.08c11.27,3.1,22.77,5.12,34.16,6.83c11.41,1.69,22.76,3,33.99,4.15
							c-13.16-0.94-26.79-2.23-40.69-4.28c-6.95-1.03-13.96-2.26-20.98-3.86c-7-1.63-14.06-3.54-20.78-6.51
							c-3.32-1.53-6.66-3.28-9.24-5.98c-1.24-1.35-2.28-3.08-2.22-4.98c0.05-1.9,1.18-3.56,2.52-4.8c1.34-1.28,2.94-2.25,4.58-3.1
							c0.82-0.43,1.67-0.8,2.52-1.16c0.86-0.34,1.75-0.62,2.62-0.93l2.63-0.92c0.87-0.33,1.79-0.5,2.69-0.76
							c1.81-0.46,3.59-0.99,5.42-1.38c14.61-3.14,29.62-4.7,44.6-6.04c7.49-0.69,15-1.16,22.48-1.7c7.49-0.42,14.96-0.93,22.4-1.26
							c3.72-0.19,7.43-0.37,11.13-0.56c3.7-0.16,7.39-0.31,11.07-0.47c7.36-0.34,14.67-0.58,21.91-0.85
							c28.98-1.02,56.91-1.7,82.77-2.08c3.92-0.05,8.06-0.1,12.04-0.15c1.99-0.02,3.94-0.04,5.8-0.06c0.47,0,0.93-0.01,1.38-0.01
							l0.13,0c0.01,0,0.04,0,0.04,0l-0.04-0.03l-0.26-0.17l-0.56-0.36c-0.74-0.48-1.46-0.94-2.15-1.39l2.03,1.31l0.97,0.62
							c0,0.02-0.3,0.01-0.48,0.02l-0.61,0.01c-1.62,0.01-3.24,0.03-4.88,0.04c-3.27,0.04-6.56,0.07-9.88,0.11
							c-6.64,0.07-13.38,0.18-20.21,0.31c-13.67,0.24-27.7,0.58-42,0.97c-28.58,0.81-58.2,1.85-87.94,3.56
							c-14.86,0.92-29.77,1.95-44.55,3.64c-7.38,0.89-14.75,1.83-22,3.31c-7.23,1.46-14.53,3.07-21.1,6.71
							c-1.6,0.98-3.16,2.1-4.36,3.68c-0.59,0.79-1.08,1.7-1.32,2.71c-0.25,1.01-0.21,2.1,0.08,3.09c0.28,1,0.78,1.9,1.38,2.67
							c0.59,0.79,1.26,1.49,1.98,2.11c1.43,1.26,3,2.28,4.62,3.19c3.23,1.81,6.63,3.18,10.04,4.39c3.42,1.2,6.87,2.2,10.33,3.1
							c13.85,3.54,27.69,5.56,41.14,7.16c12.36,1.44,24.78,2.45,37.24,3.19c6.23,0.37,12.47,0.67,18.72,0.91
							c6.23,0.21,12.46,0.41,18.7,0.62c12.39,0.49,24.81,1.24,37.04,2.7c6.11,0.74,12.19,1.65,18.02,2.96
							c2.9,0.66,5.75,1.43,8.33,2.38c0.64,0.24,1.26,0.49,1.85,0.75l0.31,0.14l0.09,0.05c0.12,0.07,0.23,0.14,0.31,0.25
							c0.07,0.12,0.02,0.29-0.09,0.38c-0.1,0.09-0.23,0.15-0.34,0.19l-0.04,0.01c-0.04,0.01-0.14,0.05-0.21,0.09l-0.11,0.05
							l-0.22,0.1l-0.48,0.2c-0.65,0.27-1.32,0.53-2.03,0.77c-1.41,0.48-2.86,0.92-4.42,1.29c-6.2,1.6-12.86,2.59-19.5,3.43
							c-13.7,1.66-27.74,2.5-41.8,3.14c-14.07,0.62-28.19,1-42.27,1.38c-12.5,0.36-29.92,0.52-45.41,1.26
							c-15.49,0.72-29.06,2.04-33.83,4.88c8.05,0.2,16.95-0.41,24.69-0.07c-2.92,0.5-6.28,1.12-9.74,1.46
							c3.3-0.01,6.96,0.14,10.03-0.18c-2.54,0.3-5.14,0.66-6.12,1.22c3.97,0.12,9.58-0.71,12.71-1.06
							c1.83-0.2,10.22-1.53,12.63-1.33c-6.22,1.07-14.1,2.07-19.17,3.35c2.16,0.02,4.29-0.07,6.39,0.03
							c-2.59,0.5-7.67,0.75-8.99,1.41c5.37-0.13,10.11-0.52,15.67-0.56c4.51-0.04,8.57-0.01,12.88-0.36
							c-5.14,0.54-12.07,0.99-15.62,1.93c2.39,0.18,4.9,0.01,7.35-0.14c-0.3,0.09-0.47,0.19-0.53,0.3c1.09-0.03,2.53,0.07,3.66,0.02
							c0.03,0.15,0.28,0.28,0.07,0.43c0.03-0.1,0.04-0.21,0.06-0.31" />
						</g>
					</g>
				</g>
			</g>
			<g>
				<g>
					<g class="st5">
						<g>
							<path class="st7" d="M267.78,409.65c5.51,0.08,11.12-0.26,16.38-0.66c11.21-0.85,20.67,0.87,31.61-0.27
							c13.71-1.43,27.31-0.52,41.59-2.26c3.27-0.39,6.56-0.8,9.85-1.28c1.64-0.23,3.29-0.46,4.94-0.69c1.65-0.26,3.3-0.52,4.95-0.79
							c6.61-1.03,13.23-2.28,19.82-3.78c1.64-0.41,3.29-0.77,4.93-1.21l4.9-1.4c1.64-0.51,3.26-1.07,4.87-1.73
							c1.62-0.67,3.12-1.33,4.97-2.46c1.73-1.1,3.33-2.39,4.32-4.08c0.48-0.84,0.79-1.8,0.78-2.79c-0.04-0.99-0.38-1.93-0.91-2.75
							c-2.09-3.23-6.74-5.03-9.61-6.08c-6.11-2.15-12.29-3.31-18.4-4.27c-6.12-0.93-12.21-1.56-18.25-2.04
							c-12.09-0.94-24.02-1.29-35.88-1.4c-23.58-0.21-46.95-1.05-70.74-3.77c-6.91-0.81-14.03-1.75-21.22-2.93
							c-7.18-1.21-14.46-2.63-21.52-4.61c-3.52-1-7-2.13-10.25-3.52c-1.62-0.7-3.18-1.47-4.6-2.32c-1.42-0.84-2.7-1.81-3.55-2.77
							c-0.42-0.47-0.72-0.94-0.87-1.3c-0.15-0.37-0.18-0.61-0.15-0.89c0.03-0.28,0.15-0.65,0.44-1.09c0.29-0.44,0.73-0.92,1.25-1.39
							c1.06-0.94,2.42-1.81,3.9-2.56c1.44-0.78,3.12-1.36,4.73-1.98c2.31-1,5.2-1.69,8.24-2.59c1.53-0.44,3.18-0.74,4.85-1.13
							c1.68-0.35,3.39-0.82,5.19-1.1c3.59-0.61,7.31-1.38,11.16-1.89c3.84-0.56,7.75-1.16,11.66-1.6c15.63-1.95,31-3.27,40.15-4.2
							c-6.14,0.44-12.35,1.06-18.6,1.56c-3.12,0.3-6.24,0.6-9.37,0.91l-4.69,0.45l-4.68,0.53c-12.45,1.41-24.89,2.95-36.43,5.79
							c1.54-0.49,3.18-0.77,4.77-1.16c1.6-0.35,3.2-0.74,4.82-1.07c3.26-0.57,6.51-1.21,9.8-1.73c3.3-0.48,6.61-0.96,9.92-1.44
							c3.33-0.4,6.66-0.8,10-1.2c3.34-0.39,6.7-0.68,10.05-1.03l5.03-0.49l5.05-0.42l10.1-0.82l10.11-0.7
							c26.95-1.82,53.86-2.98,79.97-3.89c-24.47,0.81-49.01,1.88-73.42,3.32c-6.1,0.4-12.19,0.79-18.28,1.19
							c-3.04,0.23-6.08,0.47-9.11,0.7l-4.55,0.35l-4.54,0.41c-3.02,0.28-6.05,0.55-9.06,0.83c-3.01,0.33-6.02,0.66-9.02,0.99
							c-3.01,0.29-5.99,0.75-8.98,1.13l-4.47,0.6l-4.44,0.73l-4.44,0.73l-4.38,0.9c-1.46,0.32-2.93,0.57-4.37,0.93l-4.29,1.14
							c-0.71,0.2-1.44,0.36-2.14,0.58l-2.07,0.73l-2.07,0.73c-0.7,0.23-1.38,0.48-2.04,0.78c-2.61,1.16-5.18,2.6-6.88,4.59
							c-0.41,0.5-0.74,1.03-0.98,1.57c-0.22,0.55-0.33,1.11-0.33,1.68c0,1.14,0.57,2.29,1.39,3.33c1.71,2.07,4.18,3.67,6.72,5
							c5.14,2.68,10.75,4.49,16.36,6.08c11.27,3.1,22.77,5.12,34.16,6.83c11.41,1.69,22.76,3,33.99,4.15
							c-13.16-0.94-26.79-2.23-40.69-4.28c-6.95-1.03-13.96-2.26-20.98-3.86c-7-1.63-14.06-3.54-20.78-6.51
							c-3.32-1.53-6.66-3.28-9.24-5.98c-1.24-1.35-2.28-3.08-2.22-4.98c0.05-1.9,1.18-3.56,2.52-4.8c1.34-1.28,2.94-2.25,4.58-3.1
							c0.82-0.43,1.67-0.8,2.52-1.16c0.86-0.34,1.75-0.62,2.62-0.93l2.63-0.92c0.87-0.33,1.79-0.5,2.69-0.76
							c1.81-0.46,3.59-0.99,5.42-1.38c14.61-3.14,29.62-4.7,44.6-6.04c7.49-0.69,15-1.16,22.48-1.7c7.49-0.42,14.96-0.93,22.4-1.26
							c3.72-0.19,7.43-0.37,11.13-0.56c3.7-0.16,7.39-0.31,11.07-0.47c7.36-0.34,14.67-0.58,21.91-0.85
							c28.98-1.02,56.91-1.7,82.77-2.08c3.92-0.05,8.06-0.1,12.04-0.15c1.99-0.02,3.94-0.04,5.8-0.06c0.47,0,0.93-0.01,1.38-0.01
							l0.13,0c0.01,0,0.04,0,0.04,0l-0.04-0.03l-0.26-0.17l-0.56-0.36c-0.74-0.48-1.46-0.94-2.15-1.39l2.03,1.31l0.97,0.62
							c0,0.02-0.3,0.01-0.48,0.02l-0.61,0.01c-1.62,0.01-3.24,0.03-4.88,0.04c-3.27,0.04-6.56,0.07-9.88,0.11
							c-6.64,0.07-13.38,0.18-20.21,0.31c-13.67,0.24-27.7,0.58-42,0.97c-28.58,0.81-58.2,1.85-87.94,3.56
							c-14.86,0.92-29.77,1.95-44.55,3.64c-7.38,0.89-14.75,1.83-22,3.31c-7.23,1.46-14.53,3.07-21.1,6.71
							c-1.6,0.98-3.16,2.1-4.36,3.68c-0.59,0.79-1.08,1.7-1.32,2.71c-0.25,1.01-0.21,2.1,0.08,3.09c0.28,1,0.78,1.9,1.38,2.67
							c0.59,0.79,1.26,1.49,1.98,2.11c1.43,1.26,3,2.28,4.62,3.19c3.23,1.81,6.63,3.18,10.04,4.39c3.42,1.2,6.87,2.2,10.33,3.1
							c13.85,3.54,27.69,5.56,41.14,7.16c12.36,1.44,24.78,2.45,37.24,3.19c6.23,0.37,12.47,0.67,18.72,0.91
							c6.23,0.21,12.46,0.41,18.7,0.62c12.39,0.49,24.81,1.24,37.04,2.7c6.11,0.74,12.19,1.65,18.02,2.96
							c2.9,0.66,5.75,1.43,8.33,2.38c0.64,0.24,1.26,0.49,1.85,0.75l0.31,0.14l0.09,0.05c0.12,0.07,0.23,0.14,0.31,0.25
							c0.07,0.12,0.02,0.29-0.09,0.38c-0.1,0.09-0.23,0.15-0.34,0.19l-0.04,0.01c-0.04,0.01-0.14,0.05-0.21,0.09l-0.11,0.05
							l-0.22,0.1l-0.48,0.2c-0.65,0.27-1.32,0.53-2.03,0.77c-1.41,0.48-2.86,0.92-4.42,1.29c-6.2,1.6-12.86,2.59-19.5,3.43
							c-13.7,1.66-27.74,2.5-41.8,3.14c-14.07,0.62-28.19,1-42.27,1.38c-12.5,0.36-29.92,0.52-45.41,1.26
							c-15.49,0.72-29.06,2.04-33.83,4.88c8.05,0.2,16.95-0.41,24.69-0.07c-2.92,0.5-6.28,1.12-9.74,1.46
							c3.3-0.01,6.96,0.14,10.03-0.18c-2.54,0.3-5.14,0.66-6.12,1.22c3.97,0.12,9.58-0.71,12.71-1.06
							c1.83-0.2,10.22-1.53,12.63-1.33c-6.22,1.07-14.1,2.07-19.17,3.35c2.16,0.02,4.29-0.07,6.39,0.03
							c-2.59,0.5-7.67,0.75-8.99,1.41c5.37-0.13,10.11-0.52,15.67-0.56c4.51-0.04,8.57-0.01,12.88-0.36
							c-5.14,0.54-12.07,0.99-15.62,1.93c2.39,0.18,4.9,0.01,7.35-0.14c-0.3,0.09-0.47,0.19-0.53,0.3c1.09-0.03,2.53,0.07,3.66,0.02
							c0.03,0.15,0.28,0.28,0.07,0.43c0.03-0.1,0.04-0.21,0.06-0.31" />
						</g>
					</g>
				</g>
			</g>
			<path class="st3" d="M233.95,363.62c-8.61-28.4-8.32-59.91,0.82-88.11c4.35,15.16,8.71,30.44,10.23,46.23
			C246.5,337.54,244.98,354.08,233.95,363.62z" />
			<path class="st2" d="M303.5,436.85c2.41,4.48-0.22,9.11-5.6,10.87c-14.53,4.75-37.21-2.18-45.44-15.79
			c-5.19-8.59-9.99-7.43-17.17-4.71c-17.45,6.6-34.54,5.39-50.31-5.86c-9.28-6.63-14.82-16.19-16.82-28.18
			c-0.37-2.19-1.12-4.31,0.97-5.71c2.75-1.86,3.83,0.79,5.35,2.55c4.69,5.46,7.14,12.74,13.42,17.05
			c19.8,13.58,38.39,7.31,56.7-3.46c7.59-4.47,10.27-4.07,12.95,4.54c2.95,9.48,7.49,17.65,15.19,23.22
			C281.96,438.05,291.68,442.76,303.5,436.85z" />
			<path class="st3" d="M300.03,406.31c-11.48-40.65-10.06-85.41,3.97-125.15c5.76,21.69,11.56,43.55,13.23,66.04
			C318.9,369.7,316.18,393.14,300.03,406.31z" />
			<path class="st8" d="M417.41,493.13c-1.2-13.64-1.86-26.56-0.29-39.22c1.19-9.62-2.87-13.21-9.93-16.01
			c-15.76-6.25-32.03-8.01-48.64-7.51c-5.32,0.16-10.65,0.06-15.97-0.13c-2.55-0.09-5.39-0.56-5.81-4.01
			c-0.49-4.02,2.7-3.55,5.01-4.47c7.8-3.09,15.86-3.68,24-3.35c4.38,0.18,6.85-1.57,9.38-5.75c6.93-11.47,9.67-24.34,12.26-37.36
			c0.4-1.99-0.24-4.35,2.47-5.98c9.38,16.32,1.18,31.7-2.45,47.81c20.51,6.6,21.83-16.52,33.5-24.99
			c3.48,11.58-3.67,19.5-6.54,29.19c13.06,3.49,23.8-2.09,34.41-7.83c11.07-5.99,17.47-17.44,25.1-27.8
			c5.08,4.12,3.26,8.15,1.5,11.84c-6.79,14.22-17.79,23.91-31.22,28.89c-11.22,4.16-17.22,10.22-17.66,23.52
			c-0.54,16.45-1.47,32.67,1.2,49.17c1.96,12.16,3.42,24.46,5.41,36.66c1.1,6.77-5.29,12.09-15.8,15.58
			c-17.03,5.66-34.05,11.44-51.78,13.71c-11.79,1.51-23.68,2.52-35.6,1.48c-1.95-0.17-3.92-0.31-5.87-0.25
			c-21.91,0.72-43.45-2.65-64.95-6.75c-3.56-0.68-7.25-0.46-10.88-0.79c-2.96-0.27-6.41,0.25-7.22-4.36
			c1.51-3.85,4.42-3.01,7.17-2.68c33.82,4.08,67.77,2.4,101.63,1.72c12.98-0.26,26.68-1.38,38.5-8.06c0.74-2.63-0.36-4.17-1.64-4.15
			c-9.31,0.1-17.86-4.48-27.25-4.5c-21.85-0.03-43.69-1.36-65.54-1.36c-19.87,0-39.93-0.6-59.53,2.22
			c-12.66,1.82-26.17,1.16-38.15,8.4c-6.16,3.73-11.92-0.88-10.2-8.33c4.88-21.19,2.84-42.39,1.59-63.65
			c-0.26-4.49-0.07-4.5,3.55-11.14c6.72,22.07,4.03,44.91,9.85,67.23c12.92-4.46,26.06-4.51,38.68-8.03
			c1.35-0.38,2.71-0.89,4.09-0.97c30.17-1.75,60.35-6.47,90.54-3.45c25.17,2.52,50.53,4.55,75.15,11.46
			c7.31,2.05,8.42-1.4,8.34-7.68C417.69,512.29,417.62,503.13,417.41,493.13z" />
		</g>
	</g>
</svg>