<svg width="380" height="210" viewBox="0 0 380 210" fill="none" xmlns="http://www.w3.org/2000/svg">
<g clip-path="url(#clip0_8_2)">
<g clip-path="url(#clip1_8_2)">
<path d="M141.002 46.8257C129.063 62.0527 133.104 75.2085 145.859 87.2397C141.539 88.0977 133.223 80.3936 131.107 74.7778C126.032 61.3144 130.728 49.0234 139.003 42.6489C143.764 38.9814 150.104 38.2158 152.333 40.7827C148.385 42.3994 144.301 43.541 141.002 46.8257Z" fill="#784C16"/>
<path d="M224.261 42.5874C224.179 35.6763 220.768 31.3218 212.934 28.1807C215.203 25.8188 217.719 26.9502 219.578 27.7329C224.633 29.8555 227.938 34.0527 229.189 39.8667C229.617 41.8457 230.235 42.3481 232.211 42.4917C242.554 43.2471 250.996 50.0454 249.899 63.3105C249.82 64.2539 249.776 65.3784 248.648 65.4228C247.267 65.4741 247.373 64.1821 247.277 63.1636C246.539 55.0425 241.58 49.8745 233.995 48.8423C231.565 48.5107 229.323 47.646 226.821 48.7944C225.573 49.3686 224.415 48.3262 224.309 46.6309C224.233 45.3833 224.274 44.1289 224.261 42.5874Z" fill="#784C16"/>
<path d="M174.071 27.7227C168.158 29.2573 163.872 33.4375 159.418 37.2827C158.14 35.2217 159.313 33.957 160.01 32.9248C164.559 26.1743 170.708 22.5478 178.292 20.7978C183.283 19.646 187.955 19.8989 192.689 21.0884C197.084 22.1924 201.101 24.3184 204.054 28.2661C204.573 28.9634 204.542 28.9907 204.628 30.9321C201.661 30.3511 199.521 27.8765 196.565 27.2202C192.043 26.2153 187.559 25.6411 182.975 26.0273C180.039 26.2768 177.137 26.7964 174.071 27.7227Z" fill="#784C19"/>
<path d="M203.743 54.1128C202.153 48.8867 202.492 43.1514 204.689 38.0723C205.486 40.8579 206.282 43.6675 206.467 46.5557C206.648 49.4404 206.18 52.4448 203.743 54.1128Z" fill="#074F27" stroke="black" stroke-width="0.2" stroke-miterlimit="10"/>
<g opacity="0.7">
<path d="M176.437 83.1655C178.32 83.1929 180.237 83.0767 182.035 82.9399C185.867 82.6494 189.1 83.2373 192.839 82.8477C197.525 82.3589 202.174 82.6699 207.055 82.0752C208.172 81.9419 209.297 81.8018 210.421 81.6377C210.982 81.5591 211.546 81.4805 212.11 81.4019C212.674 81.313 213.238 81.2241 213.802 81.1318C216.061 80.7798 218.324 80.3526 220.576 79.8399C221.137 79.6997 221.701 79.5767 222.261 79.4263L223.936 78.9478C224.497 78.7734 225.05 78.582 225.601 78.3564C226.154 78.1274 226.667 77.9019 227.299 77.5156C227.891 77.1397 228.438 76.6987 228.776 76.1211C228.94 75.834 229.046 75.5059 229.042 75.1675C229.029 74.8291 228.913 74.5078 228.731 74.2275C228.017 73.1235 226.428 72.5083 225.447 72.1494C223.358 71.4146 221.246 71.0181 219.158 70.6899C217.066 70.3721 214.984 70.1567 212.92 69.9927C208.788 69.6714 204.71 69.5518 200.656 69.5142C192.597 69.4424 184.609 69.1553 176.478 68.2256C174.116 67.9487 171.682 67.6275 169.225 67.2241C166.771 66.8106 164.282 66.3252 161.869 65.6484C160.666 65.3066 159.477 64.9204 158.366 64.4453C157.812 64.2061 157.279 63.9429 156.793 63.6523C156.308 63.3652 155.871 63.0337 155.58 62.7056C155.437 62.5449 155.334 62.3843 155.283 62.2612C155.231 62.1348 155.221 62.0527 155.231 61.957C155.242 61.8613 155.283 61.7349 155.382 61.5845C155.481 61.4341 155.631 61.27 155.809 61.1094C156.171 60.7881 156.636 60.4907 157.142 60.2344C157.634 59.9678 158.208 59.7695 158.759 59.5576C159.548 59.2158 160.536 58.98 161.575 58.6724C162.098 58.522 162.662 58.4194 163.233 58.2861C163.807 58.1665 164.392 58.0059 165.007 57.9102C166.234 57.7017 167.505 57.4385 168.821 57.2642C170.134 57.0728 171.47 56.8677 172.807 56.7173C178.149 56.0508 183.402 55.5996 186.53 55.2817C184.431 55.4321 182.309 55.6441 180.172 55.8149C179.106 55.9175 178.04 56.02 176.97 56.126L175.367 56.2798L173.767 56.4609C169.512 56.9429 165.26 57.4692 161.315 58.4399C161.842 58.2725 162.402 58.1768 162.946 58.0435C163.493 57.9238 164.04 57.7905 164.593 57.6777C165.708 57.4829 166.818 57.2642 167.943 57.0864C169.071 56.9224 170.202 56.7583 171.333 56.5942C172.472 56.4575 173.61 56.3208 174.751 56.1841C175.893 56.0508 177.042 55.9517 178.187 55.832L179.906 55.6646L181.632 55.521L185.084 55.2407L188.54 55.0015C197.751 54.3794 206.949 53.9829 215.873 53.6719C207.509 53.9487 199.122 54.3145 190.778 54.8066C188.693 54.9434 186.612 55.0767 184.53 55.2134C183.491 55.292 182.452 55.374 181.417 55.4526L179.861 55.5723L178.31 55.7124C177.277 55.8081 176.242 55.9004 175.213 55.9961C174.184 56.1089 173.155 56.2217 172.13 56.3345C171.101 56.4336 170.083 56.5908 169.061 56.7207L167.533 56.9258L166.015 57.1753L164.498 57.4248L163 57.7324C162.501 57.8418 161.999 57.9273 161.507 58.0503L160.041 58.4399C159.798 58.5083 159.548 58.563 159.309 58.6382L158.602 58.8877L157.894 59.1372C157.655 59.2158 157.422 59.3013 157.197 59.4038C156.305 59.8003 155.426 60.2925 154.845 60.9727C154.705 61.1436 154.592 61.3247 154.51 61.5093C154.435 61.6973 154.397 61.8887 154.397 62.0835C154.397 62.4732 154.592 62.8662 154.873 63.2217C155.457 63.9292 156.301 64.4761 157.169 64.9307C158.926 65.8467 160.844 66.4653 162.761 67.0088C166.613 68.0684 170.544 68.7588 174.437 69.3433C178.337 69.9209 182.216 70.3687 186.055 70.7617C181.557 70.4404 176.898 69.9995 172.147 69.2988C169.771 68.9468 167.375 68.5264 164.976 67.9795C162.583 67.4224 160.17 66.7695 157.874 65.7544C156.739 65.2314 155.597 64.6333 154.715 63.7105C154.292 63.249 153.936 62.6577 153.957 62.0083C153.974 61.3589 154.36 60.7915 154.818 60.3677C155.276 59.9302 155.823 59.5986 156.383 59.3081C156.664 59.1611 156.954 59.0347 157.245 58.9116C157.539 58.7954 157.843 58.6997 158.14 58.5938L159.039 58.2793C159.336 58.1665 159.651 58.1084 159.958 58.0195C160.577 57.8623 161.186 57.6812 161.811 57.5479C166.805 56.4746 171.935 55.9414 177.055 55.4834C179.615 55.2476 182.182 55.0869 184.739 54.9023C187.299 54.7588 189.852 54.5845 192.395 54.4717C193.667 54.4067 194.935 54.3452 196.199 54.2803C197.464 54.2256 198.725 54.1743 199.983 54.1196C202.499 54.0034 204.997 53.9214 207.472 53.8291C217.377 53.4805 226.923 53.248 235.762 53.1182C237.102 53.1011 238.517 53.084 239.877 53.0669C240.558 53.0601 241.224 53.0532 241.86 53.0464C242.021 53.0464 242.178 53.043 242.332 53.043H242.376C242.379 53.043 242.39 53.043 242.39 53.043L242.376 53.0327L242.287 52.9746L242.096 52.8516C241.843 52.6875 241.597 52.5303 241.361 52.3765L242.055 52.8242L242.386 53.0361C242.386 53.043 242.284 53.0396 242.222 53.043L242.014 53.0464C241.46 53.0498 240.906 53.0566 240.346 53.0601C239.228 53.0737 238.104 53.084 236.969 53.0977C234.699 53.1216 232.396 53.1592 230.061 53.2036C225.389 53.2856 220.593 53.4019 215.706 53.5352C205.937 53.812 195.813 54.1675 185.648 54.752C180.569 55.0664 175.473 55.4185 170.421 55.9961C167.898 56.3003 165.379 56.6216 162.901 57.1274C160.43 57.6265 157.935 58.1768 155.689 59.4209C155.143 59.7559 154.609 60.1387 154.199 60.6787C153.998 60.9487 153.83 61.2598 153.748 61.605C153.663 61.9502 153.676 62.3228 153.775 62.6611C153.871 63.0029 154.042 63.3105 154.247 63.5737C154.449 63.8438 154.678 64.083 154.924 64.2949C155.413 64.7256 155.949 65.0742 156.503 65.3853C157.607 66.0039 158.769 66.4722 159.935 66.8857C161.104 67.2959 162.283 67.6377 163.465 67.9453C168.199 69.1553 172.93 69.8457 177.527 70.3926C181.751 70.8848 185.997 71.23 190.255 71.4829C192.385 71.6094 194.518 71.7119 196.654 71.794C198.783 71.8657 200.913 71.9341 203.045 72.0059C207.28 72.1733 211.525 72.4297 215.706 72.9287C217.794 73.1817 219.872 73.4927 221.865 73.9404C222.856 74.166 223.83 74.4292 224.712 74.7539C224.931 74.8359 225.143 74.9214 225.344 75.0103L225.45 75.0581L225.481 75.0752C225.522 75.0991 225.56 75.1231 225.587 75.1607C225.611 75.2017 225.594 75.2598 225.556 75.2905C225.522 75.3213 225.478 75.3418 225.44 75.3555L225.426 75.3589C225.413 75.3623 225.378 75.376 225.354 75.3897L225.317 75.4067L225.242 75.4409L225.078 75.5093C224.855 75.6016 224.626 75.6904 224.384 75.7725C223.902 75.9365 223.406 76.0869 222.873 76.2134C220.754 76.7603 218.478 77.0986 216.208 77.3857C211.525 77.9531 206.727 78.2402 201.921 78.459C197.112 78.6709 192.286 78.8008 187.473 78.9307C183.201 79.0537 177.247 79.1084 171.952 79.3613C166.658 79.6074 162.02 80.0586 160.389 81.0293C163.141 81.0977 166.183 80.8892 168.828 81.0054C167.83 81.1763 166.682 81.3882 165.499 81.5044C166.627 81.501 167.878 81.5522 168.927 81.4429C168.059 81.5454 167.17 81.6685 166.835 81.8599C168.192 81.9009 170.11 81.6172 171.18 81.4976C171.805 81.4292 174.673 80.9746 175.497 81.043C173.371 81.4087 170.677 81.7505 168.944 82.188C169.683 82.1948 170.411 82.1641 171.128 82.1983C170.243 82.3692 168.507 82.4546 168.056 82.6802C169.891 82.6358 171.511 82.5025 173.412 82.4888C174.953 82.4751 176.341 82.4854 177.814 82.3657C176.057 82.5503 173.688 82.7041 172.475 83.0254C173.292 83.0869 174.15 83.0288 174.987 82.9775C174.885 83.0083 174.827 83.0425 174.806 83.0801C175.179 83.0698 175.671 83.104 176.057 83.0869C176.067 83.1382 176.153 83.1826 176.081 83.2339C176.091 83.1997 176.095 83.1621 176.102 83.1279" fill="white"/>
</g>
<g opacity="0.7">
<path d="M176.437 83.1655C178.32 83.1929 180.237 83.0767 182.035 82.9399C185.867 82.6494 189.1 83.2373 192.839 82.8477C197.525 82.3589 202.174 82.6699 207.055 82.0752C208.172 81.9419 209.297 81.8018 210.421 81.6377C210.982 81.5591 211.546 81.4805 212.11 81.4019C212.674 81.313 213.238 81.2241 213.802 81.1318C216.061 80.7798 218.324 80.3526 220.576 79.8399C221.137 79.6997 221.701 79.5767 222.261 79.4263L223.936 78.9478C224.497 78.7734 225.05 78.582 225.601 78.3564C226.154 78.1274 226.667 77.9019 227.299 77.5156C227.891 77.1397 228.438 76.6987 228.776 76.1211C228.94 75.834 229.046 75.5059 229.042 75.1675C229.029 74.8291 228.913 74.5078 228.731 74.2275C228.017 73.1235 226.428 72.5083 225.447 72.1494C223.358 71.4146 221.246 71.0181 219.158 70.6899C217.066 70.3721 214.984 70.1567 212.92 69.9927C208.788 69.6714 204.71 69.5518 200.656 69.5142C192.597 69.4424 184.609 69.1553 176.478 68.2256C174.116 67.9487 171.682 67.6275 169.225 67.2241C166.771 66.8106 164.282 66.3252 161.869 65.6484C160.666 65.3066 159.477 64.9204 158.366 64.4453C157.812 64.2061 157.279 63.9429 156.793 63.6523C156.308 63.3652 155.871 63.0337 155.58 62.7056C155.437 62.5449 155.334 62.3843 155.283 62.2612C155.231 62.1348 155.221 62.0527 155.231 61.957C155.242 61.8613 155.283 61.7349 155.382 61.5845C155.481 61.4341 155.631 61.27 155.809 61.1094C156.171 60.7881 156.636 60.4907 157.142 60.2344C157.634 59.9678 158.208 59.7695 158.759 59.5576C159.548 59.2158 160.536 58.98 161.575 58.6724C162.098 58.522 162.662 58.4194 163.233 58.2861C163.807 58.1665 164.392 58.0059 165.007 57.9102C166.234 57.7017 167.505 57.4385 168.821 57.2642C170.134 57.0728 171.47 56.8677 172.807 56.7173C178.149 56.0508 183.402 55.5996 186.53 55.2817C184.431 55.4321 182.309 55.6441 180.172 55.8149C179.106 55.9175 178.04 56.02 176.97 56.126L175.367 56.2798L173.767 56.4609C169.512 56.9429 165.26 57.4692 161.315 58.4399C161.842 58.2725 162.402 58.1768 162.946 58.0435C163.493 57.9238 164.04 57.7905 164.593 57.6777C165.708 57.4829 166.818 57.2642 167.943 57.0864C169.071 56.9224 170.202 56.7583 171.333 56.5942C172.472 56.4575 173.61 56.3208 174.751 56.1841C175.893 56.0508 177.042 55.9517 178.187 55.832L179.906 55.6646L181.632 55.521L185.084 55.2407L188.54 55.0015C197.751 54.3794 206.949 53.9829 215.873 53.6719C207.509 53.9487 199.122 54.3145 190.778 54.8066C188.693 54.9434 186.612 55.0767 184.53 55.2134C183.491 55.292 182.452 55.374 181.417 55.4526L179.861 55.5723L178.31 55.7124C177.277 55.8081 176.242 55.9004 175.213 55.9961C174.184 56.1089 173.155 56.2217 172.13 56.3345C171.101 56.4336 170.083 56.5908 169.061 56.7207L167.533 56.9258L166.015 57.1753L164.498 57.4248L163 57.7324C162.501 57.8418 161.999 57.9273 161.507 58.0503L160.041 58.4399C159.798 58.5083 159.548 58.563 159.309 58.6382L158.602 58.8877L157.894 59.1372C157.655 59.2158 157.422 59.3013 157.197 59.4038C156.305 59.8003 155.426 60.2925 154.845 60.9727C154.705 61.1436 154.592 61.3247 154.51 61.5093C154.435 61.6973 154.397 61.8887 154.397 62.0835C154.397 62.4732 154.592 62.8662 154.873 63.2217C155.457 63.9292 156.301 64.4761 157.169 64.9307C158.926 65.8467 160.844 66.4653 162.761 67.0088C166.613 68.0684 170.544 68.7588 174.437 69.3433C178.337 69.9209 182.216 70.3687 186.055 70.7617C181.557 70.4404 176.898 69.9995 172.147 69.2988C169.771 68.9468 167.375 68.5264 164.976 67.9795C162.583 67.4224 160.17 66.7695 157.874 65.7544C156.739 65.2314 155.597 64.6333 154.715 63.7105C154.292 63.249 153.936 62.6577 153.957 62.0083C153.974 61.3589 154.36 60.7915 154.818 60.3677C155.276 59.9302 155.823 59.5986 156.383 59.3081C156.664 59.1611 156.954 59.0347 157.245 58.9116C157.539 58.7954 157.843 58.6997 158.14 58.5938L159.039 58.2793C159.336 58.1665 159.651 58.1084 159.958 58.0195C160.577 57.8623 161.186 57.6812 161.811 57.5479C166.805 56.4746 171.935 55.9414 177.055 55.4834C179.615 55.2476 182.182 55.0869 184.739 54.9023C187.299 54.7588 189.852 54.5845 192.395 54.4717C193.667 54.4067 194.935 54.3452 196.199 54.2803C197.464 54.2256 198.725 54.1743 199.983 54.1196C202.499 54.0034 204.997 53.9214 207.472 53.8291C217.377 53.4805 226.923 53.248 235.762 53.1182C237.102 53.1011 238.517 53.084 239.877 53.0669C240.558 53.0601 241.224 53.0532 241.86 53.0464C242.021 53.0464 242.178 53.043 242.332 53.043H242.376C242.379 53.043 242.39 53.043 242.39 53.043L242.376 53.0327L242.287 52.9746L242.096 52.8516C241.843 52.6875 241.597 52.5303 241.361 52.3765L242.055 52.8242L242.386 53.0361C242.386 53.043 242.284 53.0396 242.222 53.043L242.014 53.0464C241.46 53.0498 240.906 53.0566 240.346 53.0601C239.228 53.0737 238.104 53.084 236.969 53.0977C234.699 53.1216 232.396 53.1592 230.061 53.2036C225.389 53.2856 220.593 53.4019 215.706 53.5352C205.937 53.812 195.813 54.1675 185.648 54.752C180.569 55.0664 175.473 55.4185 170.421 55.9961C167.898 56.3003 165.379 56.6216 162.901 57.1274C160.43 57.6265 157.935 58.1768 155.689 59.4209C155.143 59.7559 154.609 60.1387 154.199 60.6787C153.998 60.9487 153.83 61.2598 153.748 61.605C153.663 61.9502 153.676 62.3228 153.775 62.6611C153.871 63.0029 154.042 63.3105 154.247 63.5737C154.449 63.8438 154.678 64.083 154.924 64.2949C155.413 64.7256 155.949 65.0742 156.503 65.3853C157.607 66.0039 158.769 66.4722 159.935 66.8857C161.104 67.2959 162.283 67.6377 163.465 67.9453C168.199 69.1553 172.93 69.8457 177.527 70.3926C181.751 70.8848 185.997 71.23 190.255 71.4829C192.385 71.6094 194.518 71.7119 196.654 71.794C198.783 71.8657 200.913 71.9341 203.045 72.0059C207.28 72.1733 211.525 72.4297 215.706 72.9287C217.794 73.1817 219.872 73.4927 221.865 73.9404C222.856 74.166 223.83 74.4292 224.712 74.7539C224.931 74.8359 225.143 74.9214 225.344 75.0103L225.45 75.0581L225.481 75.0752C225.522 75.0991 225.56 75.1231 225.587 75.1607C225.611 75.2017 225.594 75.2598 225.556 75.2905C225.522 75.3213 225.478 75.3418 225.44 75.3555L225.426 75.3589C225.413 75.3623 225.378 75.376 225.354 75.3897L225.317 75.4067L225.242 75.4409L225.078 75.5093C224.855 75.6016 224.626 75.6904 224.384 75.7725C223.902 75.9365 223.406 76.0869 222.873 76.2134C220.754 76.7603 218.478 77.0986 216.208 77.3857C211.525 77.9531 206.727 78.2402 201.921 78.459C197.112 78.6709 192.286 78.8008 187.473 78.9307C183.201 79.0537 177.247 79.1084 171.952 79.3613C166.658 79.6074 162.02 80.0586 160.389 81.0293C163.141 81.0977 166.183 80.8892 168.828 81.0054C167.83 81.1763 166.682 81.3882 165.499 81.5044C166.627 81.501 167.878 81.5522 168.927 81.4429C168.059 81.5454 167.17 81.6685 166.835 81.8599C168.192 81.9009 170.11 81.6172 171.18 81.4976C171.805 81.4292 174.673 80.9746 175.497 81.043C173.371 81.4087 170.677 81.7505 168.944 82.188C169.683 82.1948 170.411 82.1641 171.128 82.1983C170.243 82.3692 168.507 82.4546 168.056 82.6802C169.891 82.6358 171.511 82.5025 173.412 82.4888C174.953 82.4751 176.341 82.4854 177.814 82.3657C176.057 82.5503 173.688 82.7041 172.475 83.0254C173.292 83.0869 174.15 83.0288 174.987 82.9775C174.885 83.0083 174.827 83.0425 174.806 83.0801C175.179 83.0698 175.671 83.104 176.057 83.0869C176.067 83.1382 176.153 83.1826 176.081 83.2339C176.091 83.1997 176.095 83.1621 176.102 83.1279" fill="white"/>
</g>
<g opacity="0.7">
<path d="M176.437 83.1655C178.32 83.1929 180.237 83.0767 182.035 82.9399C185.867 82.6494 189.1 83.2373 192.839 82.8477C197.525 82.3589 202.174 82.6699 207.055 82.0752C208.172 81.9419 209.297 81.8018 210.421 81.6377C210.982 81.5591 211.546 81.4805 212.11 81.4019C212.674 81.313 213.238 81.2241 213.802 81.1318C216.061 80.7798 218.324 80.3526 220.576 79.8399C221.137 79.6997 221.701 79.5767 222.261 79.4263L223.936 78.9478C224.497 78.7734 225.05 78.582 225.601 78.3564C226.154 78.1274 226.667 77.9019 227.299 77.5156C227.891 77.1397 228.438 76.6987 228.776 76.1211C228.94 75.834 229.046 75.5059 229.042 75.1675C229.029 74.8291 228.913 74.5078 228.731 74.2275C228.017 73.1235 226.428 72.5083 225.447 72.1494C223.358 71.4146 221.246 71.0181 219.158 70.6899C217.066 70.3721 214.984 70.1567 212.92 69.9927C208.788 69.6714 204.71 69.5518 200.656 69.5142C192.597 69.4424 184.609 69.1553 176.478 68.2256C174.116 67.9487 171.682 67.6275 169.225 67.2241C166.771 66.8106 164.282 66.3252 161.869 65.6484C160.666 65.3066 159.477 64.9204 158.366 64.4453C157.812 64.2061 157.279 63.9429 156.793 63.6523C156.308 63.3652 155.871 63.0337 155.58 62.7056C155.437 62.5449 155.334 62.3843 155.283 62.2612C155.231 62.1348 155.221 62.0527 155.231 61.957C155.242 61.8613 155.283 61.7349 155.382 61.5845C155.481 61.4341 155.631 61.27 155.809 61.1094C156.171 60.7881 156.636 60.4907 157.142 60.2344C157.634 59.9678 158.208 59.7695 158.759 59.5576C159.548 59.2158 160.536 58.98 161.575 58.6724C162.098 58.522 162.662 58.4194 163.233 58.2861C163.807 58.1665 164.392 58.0059 165.007 57.9102C166.234 57.7017 167.505 57.4385 168.821 57.2642C170.134 57.0728 171.47 56.8677 172.807 56.7173C178.149 56.0508 183.402 55.5996 186.53 55.2817C184.431 55.4321 182.309 55.6441 180.172 55.8149C179.106 55.9175 178.04 56.02 176.97 56.126L175.367 56.2798L173.767 56.4609C169.512 56.9429 165.26 57.4692 161.315 58.4399C161.842 58.2725 162.402 58.1768 162.946 58.0435C163.493 57.9238 164.04 57.7905 164.593 57.6777C165.708 57.4829 166.818 57.2642 167.943 57.0864C169.071 56.9224 170.202 56.7583 171.333 56.5942C172.472 56.4575 173.61 56.3208 174.751 56.1841C175.893 56.0508 177.042 55.9517 178.187 55.832L179.906 55.6646L181.632 55.521L185.084 55.2407L188.54 55.0015C197.751 54.3794 206.949 53.9829 215.873 53.6719C207.509 53.9487 199.122 54.3145 190.778 54.8066C188.693 54.9434 186.612 55.0767 184.53 55.2134C183.491 55.292 182.452 55.374 181.417 55.4526L179.861 55.5723L178.31 55.7124C177.277 55.8081 176.242 55.9004 175.213 55.9961C174.184 56.1089 173.155 56.2217 172.13 56.3345C171.101 56.4336 170.083 56.5908 169.061 56.7207L167.533 56.9258L166.015 57.1753L164.498 57.4248L163 57.7324C162.501 57.8418 161.999 57.9273 161.507 58.0503L160.041 58.4399C159.798 58.5083 159.548 58.563 159.309 58.6382L158.602 58.8877L157.894 59.1372C157.655 59.2158 157.422 59.3013 157.197 59.4038C156.305 59.8003 155.426 60.2925 154.845 60.9727C154.705 61.1436 154.592 61.3247 154.51 61.5093C154.435 61.6973 154.397 61.8887 154.397 62.0835C154.397 62.4732 154.592 62.8662 154.873 63.2217C155.457 63.9292 156.301 64.4761 157.169 64.9307C158.926 65.8467 160.844 66.4653 162.761 67.0088C166.613 68.0684 170.544 68.7588 174.437 69.3433C178.337 69.9209 182.216 70.3687 186.055 70.7617C181.557 70.4404 176.898 69.9995 172.147 69.2988C169.771 68.9468 167.375 68.5264 164.976 67.9795C162.583 67.4224 160.17 66.7695 157.874 65.7544C156.739 65.2314 155.597 64.6333 154.715 63.7105C154.292 63.249 153.936 62.6577 153.957 62.0083C153.974 61.3589 154.36 60.7915 154.818 60.3677C155.276 59.9302 155.823 59.5986 156.383 59.3081C156.664 59.1611 156.954 59.0347 157.245 58.9116C157.539 58.7954 157.843 58.6997 158.14 58.5938L159.039 58.2793C159.336 58.1665 159.651 58.1084 159.958 58.0195C160.577 57.8623 161.186 57.6812 161.811 57.5479C166.805 56.4746 171.935 55.9414 177.055 55.4834C179.615 55.2476 182.182 55.0869 184.739 54.9023C187.299 54.7588 189.852 54.5845 192.395 54.4717C193.667 54.4067 194.935 54.3452 196.199 54.2803C197.464 54.2256 198.725 54.1743 199.983 54.1196C202.499 54.0034 204.997 53.9214 207.472 53.8291C217.377 53.4805 226.923 53.248 235.762 53.1182C237.102 53.1011 238.517 53.084 239.877 53.0669C240.558 53.0601 241.224 53.0532 241.86 53.0464C242.021 53.0464 242.178 53.043 242.332 53.043H242.376C242.379 53.043 242.39 53.043 242.39 53.043L242.376 53.0327L242.287 52.9746L242.096 52.8516C241.843 52.6875 241.597 52.5303 241.361 52.3765L242.055 52.8242L242.386 53.0361C242.386 53.043 242.284 53.0396 242.222 53.043L242.014 53.0464C241.46 53.0498 240.906 53.0566 240.346 53.0601C239.228 53.0737 238.104 53.084 236.969 53.0977C234.699 53.1216 232.396 53.1592 230.061 53.2036C225.389 53.2856 220.593 53.4019 215.706 53.5352C205.937 53.812 195.813 54.1675 185.648 54.752C180.569 55.0664 175.473 55.4185 170.421 55.9961C167.898 56.3003 165.379 56.6216 162.901 57.1274C160.43 57.6265 157.935 58.1768 155.689 59.4209C155.143 59.7559 154.609 60.1387 154.199 60.6787C153.998 60.9487 153.83 61.2598 153.748 61.605C153.663 61.9502 153.676 62.3228 153.775 62.6611C153.871 63.0029 154.042 63.3105 154.247 63.5737C154.449 63.8438 154.678 64.083 154.924 64.2949C155.413 64.7256 155.949 65.0742 156.503 65.3853C157.607 66.0039 158.769 66.4722 159.935 66.8857C161.104 67.2959 162.283 67.6377 163.465 67.9453C168.199 69.1553 172.93 69.8457 177.527 70.3926C181.751 70.8848 185.997 71.23 190.255 71.4829C192.385 71.6094 194.518 71.7119 196.654 71.794C198.783 71.8657 200.913 71.9341 203.045 72.0059C207.28 72.1733 211.525 72.4297 215.706 72.9287C217.794 73.1817 219.872 73.4927 221.865 73.9404C222.856 74.166 223.83 74.4292 224.712 74.7539C224.931 74.8359 225.143 74.9214 225.344 75.0103L225.45 75.0581L225.481 75.0752C225.522 75.0991 225.56 75.1231 225.587 75.1607C225.611 75.2017 225.594 75.2598 225.556 75.2905C225.522 75.3213 225.478 75.3418 225.44 75.3555L225.426 75.3589C225.413 75.3623 225.378 75.376 225.354 75.3897L225.317 75.4067L225.242 75.4409L225.078 75.5093C224.855 75.6016 224.626 75.6904 224.384 75.7725C223.902 75.9365 223.406 76.0869 222.873 76.2134C220.754 76.7603 218.478 77.0986 216.208 77.3857C211.525 77.9531 206.727 78.2402 201.921 78.459C197.112 78.6709 192.286 78.8008 187.473 78.9307C183.201 79.0537 177.247 79.1084 171.952 79.3613C166.658 79.6074 162.02 80.0586 160.389 81.0293C163.141 81.0977 166.183 80.8892 168.828 81.0054C167.83 81.1763 166.682 81.3882 165.499 81.5044C166.627 81.501 167.878 81.5522 168.927 81.4429C168.059 81.5454 167.17 81.6685 166.835 81.8599C168.192 81.9009 170.11 81.6172 171.18 81.4976C171.805 81.4292 174.673 80.9746 175.497 81.043C173.371 81.4087 170.677 81.7505 168.944 82.188C169.683 82.1948 170.411 82.1641 171.128 82.1983C170.243 82.3692 168.507 82.4546 168.056 82.6802C169.891 82.6358 171.511 82.5025 173.412 82.4888C174.953 82.4751 176.341 82.4854 177.814 82.3657C176.057 82.5503 173.688 82.7041 172.475 83.0254C173.292 83.0869 174.15 83.0288 174.987 82.9775C174.885 83.0083 174.827 83.0425 174.806 83.0801C175.179 83.0698 175.671 83.104 176.057 83.0869C176.067 83.1382 176.153 83.1826 176.081 83.2339C176.091 83.1997 176.095 83.1621 176.102 83.1279" fill="#856F47"/>
</g>
<path d="M164.874 67.4326C161.931 57.7256 162.03 46.9556 165.154 37.3169C166.641 42.4985 168.131 47.7212 168.65 53.1182C169.163 58.5185 168.644 64.1719 164.874 67.4326Z" fill="#074F27" stroke="black" stroke-width="0.2" stroke-miterlimit="10"/>
<path d="M188.646 92.4624C189.469 93.9936 188.57 95.5762 186.731 96.1777C181.765 97.8013 174.013 95.4326 171.2 90.7808C169.426 87.8447 167.786 88.2412 165.332 89.1709C159.367 91.4268 153.526 91.0132 148.136 87.168C144.964 84.9018 143.07 81.6343 142.387 77.5361C142.26 76.7876 142.004 76.063 142.718 75.5845C143.658 74.9487 144.027 75.8545 144.547 76.456C146.15 78.3223 146.987 80.8105 149.134 82.2837C155.901 86.9253 162.255 84.7822 168.514 81.1011C171.108 79.5732 172.024 79.71 172.94 82.6528C173.948 85.8931 175.5 88.6855 178.132 90.5893C181.283 92.8725 184.605 94.4824 188.646 92.4624Z" fill="#784C19"/>
<path d="M187.459 82.0239C183.536 68.1299 184.021 52.8311 188.816 39.248C190.785 46.6616 192.768 54.1333 193.338 61.8203C193.909 69.5107 192.979 77.5225 187.459 82.0239Z" fill="#074F27" stroke="black" stroke-width="0.2" stroke-miterlimit="10"/>
<path d="M227.58 111.699C227.169 107.037 226.944 102.621 227.48 98.2935C227.887 95.0054 226.5 93.7783 224.086 92.8213C218.7 90.6851 213.139 90.0835 207.461 90.2544C205.643 90.3091 203.821 90.2749 202.003 90.21C201.131 90.1792 200.161 90.0186 200.017 88.8394C199.85 87.4653 200.94 87.626 201.729 87.3115C204.396 86.2554 207.15 86.0537 209.933 86.1665C211.43 86.228 212.274 85.6299 213.139 84.2012C215.507 80.2808 216.444 75.8818 217.329 71.4317C217.466 70.7515 217.247 69.9448 218.173 69.3877C221.379 74.9658 218.577 80.2227 217.336 85.729C224.346 87.9849 224.797 80.0825 228.786 77.1875C229.976 81.1455 227.532 83.8526 226.551 87.1646C231.015 88.3574 234.686 86.4502 238.312 84.4883C242.096 82.4409 244.283 78.5274 246.891 74.9863C248.627 76.3945 248.005 77.772 247.404 79.0332C245.083 83.8936 241.323 87.2056 236.733 88.9077C232.898 90.3296 230.847 92.4009 230.697 96.9468C230.512 102.569 230.194 108.113 231.107 113.753C231.777 117.909 232.276 122.113 232.956 126.283C233.332 128.597 231.148 130.416 227.556 131.608C221.735 133.543 215.917 135.519 209.857 136.294C205.828 136.811 201.764 137.156 197.689 136.8C197.023 136.742 196.35 136.694 195.683 136.715C188.194 136.961 180.832 135.809 173.483 134.408C172.267 134.175 171.005 134.251 169.765 134.138C168.753 134.045 167.574 134.223 167.297 132.647C167.813 131.332 168.808 131.619 169.748 131.731C181.307 133.126 192.911 132.552 204.484 132.319C208.921 132.23 213.604 131.848 217.644 129.564C217.896 128.666 217.521 128.139 217.083 128.146C213.901 128.18 210.979 126.615 207.769 126.608C200.301 126.598 192.836 126.143 185.368 126.143C178.576 126.143 171.72 125.938 165.021 126.902C160.693 127.524 156.076 127.298 151.981 129.773C149.875 131.048 147.907 129.472 148.495 126.926C150.163 119.683 149.465 112.437 149.038 105.17C148.949 103.636 149.014 103.632 150.251 101.363C152.548 108.906 151.629 116.713 153.618 124.342C158.034 122.817 162.525 122.8 166.839 121.597C167.3 121.467 167.765 121.293 168.237 121.266C178.549 120.667 188.864 119.054 199.183 120.086C207.786 120.948 216.454 121.642 224.869 124.003C227.368 124.704 227.747 123.525 227.72 121.378C227.675 118.248 227.651 115.117 227.58 111.699Z" fill="#764C1C"/>
</g>
<path d="M93 187V176.824H89.064V175.8H98.12V176.824H94.184V187H93ZM104.588 180.808H110.508V181.816H104.588V180.808ZM104.716 185.976H111.452V187H103.532V175.8H111.212V176.824H104.716V185.976ZM115.963 187L121.083 175.8H122.251L127.371 187H126.123L121.419 176.488H121.899L117.195 187H115.963ZM117.979 184.008L118.331 183.048H124.843L125.195 184.008H117.979ZM137.451 187.096C136.608 187.096 135.83 186.957 135.115 186.68C134.4 186.392 133.782 185.992 133.259 185.48C132.736 184.968 132.326 184.365 132.027 183.672C131.739 182.979 131.595 182.221 131.595 181.4C131.595 180.579 131.739 179.821 132.027 179.128C132.326 178.435 132.736 177.832 133.259 177.32C133.792 176.808 134.416 176.413 135.131 176.136C135.846 175.848 136.624 175.704 137.467 175.704C138.278 175.704 139.04 175.843 139.755 176.12C140.47 176.387 141.072 176.792 141.563 177.336L140.811 178.088C140.352 177.619 139.846 177.283 139.291 177.08C138.736 176.867 138.139 176.76 137.499 176.76C136.827 176.76 136.203 176.877 135.627 177.112C135.051 177.336 134.55 177.661 134.123 178.088C133.696 178.504 133.36 178.995 133.115 179.56C132.88 180.115 132.763 180.728 132.763 181.4C132.763 182.072 132.88 182.691 133.115 183.256C133.36 183.811 133.696 184.301 134.123 184.728C134.55 185.144 135.051 185.469 135.627 185.704C136.203 185.928 136.827 186.04 137.499 186.04C138.139 186.04 138.736 185.933 139.291 185.72C139.846 185.507 140.352 185.165 140.811 184.696L141.563 185.448C141.072 185.992 140.47 186.403 139.755 186.68C139.04 186.957 138.272 187.096 137.451 187.096ZM155.799 175.8H156.967V187H155.799V175.8ZM148.791 187H147.607V175.8H148.791V187ZM155.911 181.832H148.663V180.792H155.911V181.832ZM170.058 187L175.178 175.8H176.346L181.466 187H180.218L175.514 176.488H175.994L171.29 187H170.058ZM172.074 184.008L172.426 183.048H178.938L179.29 184.008H172.074ZM186.839 187V175.8H187.815L195.543 185.528H195.031V175.8H196.199V187H195.223L187.511 177.272H188.023V187H186.839ZM203.375 187V175.8H207.935C209.129 175.8 210.175 176.04 211.071 176.52C211.977 176.989 212.681 177.645 213.183 178.488C213.684 179.331 213.935 180.301 213.935 181.4C213.935 182.499 213.684 183.469 213.183 184.312C212.681 185.155 211.977 185.816 211.071 186.296C210.175 186.765 209.129 187 207.935 187H203.375ZM204.559 185.976H207.871C208.863 185.976 209.721 185.784 210.447 185.4C211.183 185.005 211.753 184.467 212.159 183.784C212.564 183.091 212.767 182.296 212.767 181.4C212.767 180.493 212.564 179.699 212.159 179.016C211.753 178.333 211.183 177.8 210.447 177.416C209.721 177.021 208.863 176.824 207.871 176.824H204.559V185.976ZM229.997 187V176.824H226.061V175.8H235.117V176.824H231.181V187H229.997ZM238.174 187L243.294 175.8H244.462L249.582 187H248.334L243.63 176.488H244.11L239.406 187H238.174ZM240.19 184.008L240.542 183.048H247.054L247.406 184.008H240.19ZM258.043 187.096C257.211 187.096 256.411 186.963 255.643 186.696C254.885 186.419 254.299 186.067 253.883 185.64L254.347 184.728C254.741 185.112 255.269 185.437 255.931 185.704C256.603 185.96 257.307 186.088 258.043 186.088C258.747 186.088 259.317 186.003 259.755 185.832C260.203 185.651 260.528 185.411 260.731 185.112C260.944 184.813 261.051 184.483 261.051 184.12C261.051 183.683 260.923 183.331 260.667 183.064C260.421 182.797 260.096 182.589 259.691 182.44C259.285 182.28 258.837 182.141 258.347 182.024C257.856 181.907 257.365 181.784 256.875 181.656C256.384 181.517 255.931 181.336 255.515 181.112C255.109 180.888 254.779 180.595 254.523 180.232C254.277 179.859 254.155 179.373 254.155 178.776C254.155 178.221 254.299 177.715 254.587 177.256C254.885 176.787 255.339 176.413 255.947 176.136C256.555 175.848 257.333 175.704 258.283 175.704C258.912 175.704 259.536 175.795 260.155 175.976C260.773 176.147 261.307 176.387 261.755 176.696L261.355 177.64C260.875 177.32 260.363 177.085 259.819 176.936C259.285 176.787 258.768 176.712 258.267 176.712C257.595 176.712 257.04 176.803 256.603 176.984C256.165 177.165 255.84 177.411 255.627 177.72C255.424 178.019 255.323 178.36 255.323 178.744C255.323 179.181 255.445 179.533 255.691 179.8C255.947 180.067 256.277 180.275 256.683 180.424C257.099 180.573 257.552 180.707 258.043 180.824C258.533 180.941 259.019 181.069 259.499 181.208C259.989 181.347 260.437 181.528 260.843 181.752C261.259 181.965 261.589 182.253 261.835 182.616C262.091 182.979 262.219 183.453 262.219 184.04C262.219 184.584 262.069 185.091 261.771 185.56C261.472 186.019 261.013 186.392 260.395 186.68C259.787 186.957 259.003 187.096 258.043 187.096ZM270.338 187V176.824H266.402V175.8H275.458V176.824H271.522V187H270.338ZM281.926 180.808H287.846V181.816H281.926V180.808ZM282.054 185.976H288.79V187H280.87V175.8H288.55V176.824H282.054V185.976Z" fill="#764C1C"/>
<rect x="300" y="180" width="70" height="1" fill="#764C1C" fill-opacity="0.5"/>
<rect x="10" y="180" width="70" height="1" fill="#764C1C" fill-opacity="0.5"/>
</g>
<defs>
<clipPath id="clip0_8_2">
<rect width="380" height="210" fill="white"/>
</clipPath>
<clipPath id="clip1_8_2">
<rect width="175" height="175" fill="white" transform="translate(102 -9)"/>
</clipPath>
</defs>
</svg>
