<svg xmlns="http://www.w3.org/2000/svg" version="1.1" xmlns:xlink="http://www.w3.org/1999/xlink" width="1000" height="1000"><style>
    #light-icon {
      display: inline;
    }
    #dark-icon {
      display: none;
    }

    @media (prefers-color-scheme: dark) {
      #light-icon {
        display: none;
      }
      #dark-icon {
        display: inline;
      }
    }
  </style><g id="light-icon"><svg xmlns="http://www.w3.org/2000/svg" version="1.1" xmlns:xlink="http://www.w3.org/1999/xlink" width="1000" height="1000"><g><g transform="matrix(1.953125,0,0,1.953125,0,0)"><svg xmlns="http://www.w3.org/2000/svg" version="1.1" xmlns:xlink="http://www.w3.org/1999/xlink" width="512" height="512"><svg width="512" height="512" viewBox="0 0 512 512" fill="none" xmlns="http://www.w3.org/2000/svg">
<path d="M50.7372 121.952C0.245107 186.35 17.3312 241.988 71.2781 292.87C53.0067 296.499 17.8371 263.917 8.88933 240.167C-12.5767 183.228 7.28479 131.247 42.2809 104.288C62.417 88.7772 89.2314 85.5392 98.6562 96.3951C81.9605 103.232 64.6865 108.06 50.7372 121.952Z" fill="#784C16"></path>
<path d="M402.852 104.027C402.505 74.7981 388.079 56.3822 354.947 43.0978C364.546 33.1093 375.185 37.894 383.048 41.2042C404.427 50.1809 418.406 67.9319 423.696 92.5202C425.503 100.89 428.12 103.015 436.475 103.622C480.216 106.816 515.921 135.568 511.28 191.669C510.948 195.658 510.76 200.414 505.99 200.602C500.15 200.819 500.598 195.355 500.193 191.047C497.071 156.701 476.096 134.845 444.02 130.48C433.743 129.077 424.26 125.42 413.679 130.277C408.403 132.706 403.502 128.297 403.054 121.127C402.736 115.851 402.91 110.546 402.852 104.027Z" fill="#784C16"></path>
<path d="M190.591 41.1623C165.584 47.6527 147.457 65.3314 128.622 81.5936C123.215 72.8771 128.174 67.5286 131.122 63.1631C150.362 34.6141 176.367 19.2771 208.443 11.876C229.548 7.0046 249.308 8.07429 269.329 13.1047C287.918 17.7737 304.903 26.7649 317.392 43.4607C319.59 46.4095 319.459 46.5252 319.821 54.7357C307.274 52.2783 298.225 41.8128 285.721 39.0374C266.597 34.7875 247.631 32.3591 228.247 33.9925C215.83 35.0477 203.558 37.2449 190.591 41.1623Z" fill="#784C19"></path>
<path d="M316.077 152.77C309.355 130.668 310.786 106.412 320.081 84.9316C323.449 96.7126 326.817 108.595 327.598 120.81C328.364 133.01 326.384 145.716 316.077 152.77Z" fill="#074F27" stroke="black" stroke-width="0.2" stroke-miterlimit="10"></path>
<g opacity="0.7">
<path d="M200.594 275.64C208.559 275.756 216.669 275.264 224.272 274.686C240.476 273.458 254.151 275.944 269.965 274.296C289.783 272.229 309.442 273.544 330.084 271.029C334.811 270.465 339.567 269.873 344.323 269.179C346.693 268.846 349.078 268.514 351.463 268.181C353.849 267.806 356.234 267.43 358.619 267.04C368.174 265.551 377.743 263.744 387.269 261.575C389.64 260.983 392.025 260.462 394.395 259.826L401.479 257.803C403.849 257.065 406.191 256.256 408.518 255.302C410.86 254.333 413.028 253.379 415.702 251.746C418.203 250.156 420.516 248.291 421.947 245.848C422.641 244.634 423.089 243.246 423.075 241.815C423.017 240.384 422.525 239.025 421.759 237.84C418.738 233.171 412.016 230.569 407.868 229.051C399.036 225.943 390.102 224.266 381.27 222.879C372.424 221.534 363.62 220.624 354.889 219.93C337.413 218.571 320.168 218.065 303.024 217.906C268.939 217.603 235.157 216.388 200.768 212.457C190.779 211.286 180.487 209.927 170.094 208.221C159.715 206.472 149.192 204.419 138.986 201.557C133.898 200.112 128.868 198.478 124.17 196.469C121.828 195.457 119.573 194.344 117.52 193.115C115.468 191.901 113.617 190.499 112.389 189.111C111.781 188.432 111.348 187.753 111.131 187.232C110.914 186.697 110.871 186.35 110.914 185.946C110.958 185.541 111.131 185.006 111.55 184.37C111.969 183.734 112.605 183.04 113.357 182.361C114.889 181.002 116.855 179.744 118.995 178.66C121.076 177.533 123.505 176.694 125.832 175.798C129.171 174.353 133.349 173.355 137.743 172.054C139.955 171.418 142.34 170.985 144.754 170.421C147.182 169.915 149.654 169.235 152.256 168.831C157.446 167.949 162.823 166.836 168.388 166.099C173.939 165.289 179.591 164.422 185.243 163.786C207.836 160.967 230.054 159.059 243.281 157.715C234.405 158.351 225.428 159.247 216.394 159.97C211.884 160.403 207.374 160.837 202.849 161.285L196.07 161.936L189.305 162.702C171.308 164.74 153.326 166.966 136.644 171.071C138.871 170.363 141.241 169.958 143.54 169.394C145.852 168.889 148.165 168.325 150.507 167.848C155.219 167.024 159.917 166.099 164.673 165.347C169.443 164.653 174.228 163.959 179.013 163.265C183.826 162.687 188.64 162.109 193.468 161.531C198.296 160.967 203.153 160.548 207.995 160.042L215.266 159.334L222.566 158.727L237.166 157.541L251.78 156.529C290.737 153.898 329.636 152.222 367.379 150.906C332.007 152.077 296.534 153.624 261.248 155.705C252.431 156.284 243.628 156.847 234.824 157.426C230.43 157.758 226.036 158.105 221.656 158.437L215.078 158.943L208.516 159.536C204.15 159.941 199.77 160.331 195.419 160.736C191.068 161.213 186.717 161.69 182.381 162.167C178.03 162.586 173.722 163.251 169.4 163.8L162.939 164.668L156.52 165.723L150.102 166.778L143.771 168.079C141.66 168.542 139.536 168.903 137.454 169.423L131.253 171.071C130.226 171.36 129.171 171.592 128.159 171.91L125.167 172.965L122.175 174.02C121.163 174.353 120.18 174.714 119.226 175.148C115.453 176.824 111.738 178.906 109.281 181.783C108.688 182.505 108.211 183.272 107.864 184.052C107.546 184.847 107.387 185.657 107.387 186.481C107.387 188.128 108.211 189.791 109.396 191.294C111.868 194.286 115.439 196.599 119.11 198.522C126.54 202.396 134.65 205.012 142.759 207.311C159.05 211.792 175.674 214.712 192.138 217.183C208.631 219.626 225.038 221.52 241.271 223.182C222.248 221.824 202.546 219.959 182.453 216.995C172.407 215.507 162.274 213.729 152.126 211.416C142.007 209.06 131.802 206.299 122.088 202.005C117.289 199.794 112.461 197.264 108.731 193.361C106.939 191.41 105.436 188.909 105.522 186.163C105.595 183.416 107.228 181.016 109.165 179.224C111.102 177.374 113.415 175.972 115.786 174.743C116.971 174.121 118.2 173.586 119.428 173.066C120.671 172.575 121.958 172.17 123.216 171.722L127.017 170.392C128.275 169.915 129.605 169.669 130.906 169.293C133.522 168.628 136.095 167.862 138.74 167.298C159.86 162.76 181.557 160.505 203.211 158.568C214.038 157.57 224.894 156.891 235.706 156.11C246.533 155.503 257.331 154.766 268.086 154.289C273.463 154.014 278.826 153.754 284.174 153.479C289.523 153.248 294.857 153.031 300.176 152.8C310.815 152.308 321.382 151.961 331.848 151.571C373.739 150.097 414.112 149.114 451.494 148.564C457.16 148.492 463.145 148.42 468.898 148.348C471.774 148.319 474.593 148.29 477.282 148.261C477.961 148.261 478.626 148.246 479.277 148.246H479.464C479.479 148.246 479.522 148.246 479.522 148.246L479.464 148.203L479.089 147.957L478.279 147.437C477.209 146.743 476.169 146.078 475.171 145.428L478.106 147.321L479.508 148.218C479.508 148.246 479.074 148.232 478.814 148.246L477.932 148.261C475.59 148.275 473.249 148.304 470.878 148.319C466.151 148.377 461.395 148.42 456.596 148.478C446.998 148.579 437.255 148.738 427.382 148.926C407.622 149.273 387.341 149.764 366.67 150.328C325.357 151.499 282.541 153.002 239.551 155.474C218.071 156.804 196.518 158.293 175.153 160.736C164.485 162.022 153.832 163.381 143.352 165.52C132.901 167.631 122.348 169.958 112.851 175.22C110.538 176.637 108.283 178.256 106.549 180.539C105.696 181.681 104.988 182.997 104.641 184.457C104.279 185.917 104.337 187.492 104.756 188.923C105.161 190.369 105.884 191.67 106.751 192.783C107.604 193.925 108.572 194.937 109.613 195.833C111.68 197.654 113.95 199.129 116.292 200.444C120.961 203.061 125.875 205.041 130.805 206.79C135.748 208.525 140.735 209.97 145.737 211.271C165.757 216.388 185.763 219.308 205.206 221.621C223.072 223.703 241.026 225.163 259.037 226.232C268.042 226.767 277.062 227.201 286.097 227.548C295.103 227.851 304.108 228.14 313.128 228.444C331.038 229.152 348.992 230.237 366.67 232.347C375.503 233.417 384.291 234.732 392.719 236.626C396.911 237.58 401.03 238.693 404.76 240.066C405.685 240.413 406.581 240.774 407.434 241.15L407.882 241.353L408.012 241.425C408.186 241.526 408.345 241.627 408.46 241.786C408.562 241.96 408.489 242.205 408.33 242.335C408.186 242.466 407.998 242.552 407.839 242.61L407.781 242.625C407.723 242.639 407.579 242.697 407.477 242.755L407.318 242.827L407 242.972L406.307 243.261C405.367 243.651 404.398 244.027 403.372 244.374C401.334 245.068 399.238 245.704 396.983 246.238C388.021 248.551 378.394 249.982 368.795 251.197C348.992 253.596 328.697 254.81 308.372 255.736C288.034 256.632 267.623 257.181 247.27 257.73C229.201 258.251 204.02 258.482 181.629 259.552C159.238 260.592 139.622 262.501 132.727 266.606C144.364 266.895 157.229 266.013 168.417 266.505C164.196 267.227 159.339 268.124 154.338 268.615C159.108 268.601 164.398 268.817 168.836 268.355C165.165 268.789 161.406 269.309 159.99 270.118C165.728 270.292 173.838 269.092 178.362 268.586C181.008 268.297 193.135 266.375 196.619 266.664C187.628 268.21 176.237 269.656 168.909 271.506C172.031 271.535 175.11 271.405 178.145 271.55C174.401 272.272 167.058 272.634 165.15 273.588C172.913 273.4 179.764 272.836 187.801 272.778C194.321 272.72 200.19 272.764 206.42 272.258C198.99 273.038 188.972 273.689 183.841 275.048C187.296 275.308 190.924 275.062 194.465 274.845C194.032 274.975 193.786 275.12 193.699 275.279C195.275 275.236 197.356 275.38 198.99 275.308C199.033 275.525 199.395 275.713 199.091 275.929C199.134 275.785 199.149 275.626 199.178 275.481" fill="white"></path>
</g>
<g opacity="0.7">
<path d="M200.594 275.64C208.559 275.756 216.669 275.264 224.272 274.686C240.476 273.458 254.151 275.944 269.965 274.296C289.783 272.229 309.442 273.544 330.084 271.029C334.811 270.465 339.567 269.873 344.323 269.179C346.693 268.846 349.078 268.514 351.463 268.181C353.849 267.806 356.234 267.43 358.619 267.04C368.174 265.551 377.743 263.744 387.269 261.575C389.64 260.983 392.025 260.462 394.395 259.826L401.479 257.803C403.849 257.065 406.191 256.256 408.518 255.302C410.86 254.333 413.028 253.379 415.702 251.746C418.203 250.156 420.516 248.291 421.947 245.848C422.641 244.634 423.089 243.246 423.075 241.815C423.017 240.384 422.525 239.025 421.759 237.84C418.738 233.171 412.016 230.569 407.868 229.051C399.036 225.943 390.102 224.266 381.27 222.879C372.424 221.534 363.62 220.624 354.889 219.93C337.413 218.571 320.168 218.065 303.024 217.906C268.939 217.603 235.157 216.388 200.768 212.457C190.779 211.286 180.487 209.927 170.094 208.221C159.715 206.472 149.192 204.419 138.986 201.557C133.898 200.112 128.868 198.478 124.17 196.469C121.828 195.457 119.573 194.344 117.52 193.115C115.468 191.901 113.617 190.499 112.389 189.111C111.781 188.432 111.348 187.753 111.131 187.232C110.914 186.697 110.871 186.35 110.914 185.946C110.958 185.541 111.131 185.006 111.55 184.37C111.969 183.734 112.605 183.04 113.357 182.361C114.889 181.002 116.855 179.744 118.995 178.66C121.076 177.533 123.505 176.694 125.832 175.798C129.171 174.353 133.349 173.355 137.743 172.054C139.955 171.418 142.34 170.985 144.754 170.421C147.182 169.915 149.654 169.235 152.256 168.831C157.446 167.949 162.823 166.836 168.388 166.099C173.939 165.289 179.591 164.422 185.243 163.786C207.836 160.967 230.054 159.059 243.281 157.715C234.405 158.351 225.428 159.247 216.394 159.97C211.884 160.403 207.374 160.837 202.849 161.285L196.07 161.936L189.305 162.702C171.308 164.74 153.326 166.966 136.644 171.071C138.871 170.363 141.241 169.958 143.54 169.394C145.852 168.889 148.165 168.325 150.507 167.848C155.219 167.024 159.917 166.099 164.673 165.347C169.443 164.653 174.228 163.959 179.013 163.265C183.826 162.687 188.64 162.109 193.468 161.531C198.296 160.967 203.153 160.548 207.995 160.042L215.266 159.334L222.566 158.727L237.166 157.541L251.78 156.529C290.737 153.898 329.636 152.222 367.379 150.906C332.007 152.077 296.534 153.624 261.248 155.705C252.431 156.284 243.628 156.847 234.824 157.426C230.43 157.758 226.036 158.105 221.656 158.437L215.078 158.943L208.516 159.536C204.15 159.941 199.77 160.331 195.419 160.736C191.068 161.213 186.717 161.69 182.381 162.167C178.03 162.586 173.722 163.251 169.4 163.8L162.939 164.668L156.52 165.723L150.102 166.778L143.771 168.079C141.66 168.542 139.536 168.903 137.454 169.423L131.253 171.071C130.226 171.36 129.171 171.592 128.159 171.91L125.167 172.965L122.175 174.02C121.163 174.353 120.18 174.714 119.226 175.148C115.453 176.824 111.738 178.906 109.281 181.783C108.688 182.505 108.211 183.272 107.864 184.052C107.546 184.847 107.387 185.657 107.387 186.481C107.387 188.128 108.211 189.791 109.396 191.294C111.868 194.286 115.439 196.599 119.11 198.522C126.54 202.396 134.65 205.012 142.759 207.311C159.05 211.792 175.674 214.712 192.138 217.183C208.631 219.626 225.038 221.52 241.271 223.182C222.248 221.824 202.546 219.959 182.453 216.995C172.407 215.507 162.274 213.729 152.126 211.416C142.007 209.06 131.802 206.299 122.088 202.005C117.289 199.794 112.461 197.264 108.731 193.361C106.939 191.41 105.436 188.909 105.522 186.163C105.595 183.416 107.228 181.016 109.165 179.224C111.102 177.374 113.415 175.972 115.786 174.743C116.971 174.121 118.2 173.586 119.428 173.066C120.671 172.575 121.958 172.17 123.216 171.722L127.017 170.392C128.275 169.915 129.605 169.669 130.906 169.293C133.522 168.628 136.095 167.862 138.74 167.298C159.86 162.76 181.557 160.505 203.211 158.568C214.038 157.57 224.894 156.891 235.706 156.11C246.533 155.503 257.331 154.766 268.086 154.289C273.463 154.014 278.826 153.754 284.174 153.479C289.523 153.248 294.857 153.031 300.176 152.8C310.815 152.308 321.382 151.961 331.848 151.571C373.739 150.097 414.112 149.114 451.494 148.564C457.16 148.492 463.145 148.42 468.898 148.348C471.774 148.319 474.593 148.29 477.282 148.261C477.961 148.261 478.626 148.246 479.277 148.246H479.464C479.479 148.246 479.522 148.246 479.522 148.246L479.464 148.203L479.089 147.957L478.279 147.437C477.209 146.743 476.169 146.078 475.171 145.428L478.106 147.321L479.508 148.218C479.508 148.246 479.074 148.232 478.814 148.246L477.932 148.261C475.59 148.275 473.249 148.304 470.878 148.319C466.151 148.377 461.395 148.42 456.596 148.478C446.998 148.579 437.255 148.738 427.382 148.926C407.622 149.273 387.341 149.764 366.67 150.328C325.357 151.499 282.541 153.002 239.551 155.474C218.071 156.804 196.518 158.293 175.153 160.736C164.485 162.022 153.832 163.381 143.352 165.52C132.901 167.631 122.348 169.958 112.851 175.22C110.538 176.637 108.283 178.256 106.549 180.539C105.696 181.681 104.988 182.997 104.641 184.457C104.279 185.917 104.337 187.492 104.756 188.923C105.161 190.369 105.884 191.67 106.751 192.783C107.604 193.925 108.572 194.937 109.613 195.833C111.68 197.654 113.95 199.129 116.292 200.444C120.961 203.061 125.875 205.041 130.805 206.79C135.748 208.525 140.735 209.97 145.737 211.271C165.757 216.388 185.763 219.308 205.206 221.621C223.072 223.703 241.026 225.163 259.037 226.232C268.042 226.767 277.062 227.201 286.097 227.548C295.103 227.851 304.108 228.14 313.128 228.444C331.038 229.152 348.992 230.237 366.67 232.347C375.503 233.417 384.291 234.732 392.719 236.626C396.911 237.58 401.03 238.693 404.76 240.066C405.685 240.413 406.581 240.774 407.434 241.15L407.882 241.353L408.012 241.425C408.186 241.526 408.345 241.627 408.46 241.786C408.562 241.96 408.489 242.205 408.33 242.335C408.186 242.466 407.998 242.552 407.839 242.61L407.781 242.625C407.723 242.639 407.579 242.697 407.477 242.755L407.318 242.827L407 242.972L406.307 243.261C405.367 243.651 404.398 244.027 403.372 244.374C401.334 245.068 399.238 245.704 396.983 246.238C388.021 248.551 378.394 249.982 368.795 251.197C348.992 253.596 328.697 254.81 308.372 255.736C288.034 256.632 267.623 257.181 247.27 257.73C229.201 258.251 204.02 258.482 181.629 259.552C159.238 260.592 139.622 262.501 132.727 266.606C144.364 266.895 157.229 266.013 168.417 266.505C164.196 267.227 159.339 268.124 154.338 268.615C159.108 268.601 164.398 268.817 168.836 268.355C165.165 268.789 161.406 269.309 159.99 270.118C165.728 270.292 173.838 269.092 178.362 268.586C181.008 268.297 193.135 266.375 196.619 266.664C187.628 268.21 176.237 269.656 168.909 271.506C172.031 271.535 175.11 271.405 178.145 271.55C174.401 272.272 167.058 272.634 165.15 273.588C172.913 273.4 179.764 272.836 187.801 272.778C194.321 272.72 200.19 272.764 206.42 272.258C198.99 273.038 188.972 273.689 183.841 275.048C187.296 275.308 190.924 275.062 194.465 274.845C194.032 274.975 193.786 275.12 193.699 275.279C195.275 275.236 197.356 275.38 198.99 275.308C199.033 275.525 199.395 275.713 199.091 275.929C199.134 275.785 199.149 275.626 199.178 275.481" fill="white"></path>
</g>
<g opacity="0.7">
<path d="M200.594 275.64C208.559 275.756 216.669 275.264 224.272 274.686C240.476 273.458 254.151 275.944 269.965 274.296C289.783 272.229 309.442 273.544 330.084 271.029C334.811 270.465 339.567 269.873 344.323 269.179C346.693 268.846 349.078 268.514 351.463 268.181C353.849 267.806 356.234 267.43 358.619 267.04C368.174 265.551 377.743 263.744 387.269 261.575C389.64 260.983 392.025 260.462 394.395 259.826L401.479 257.803C403.849 257.065 406.191 256.256 408.518 255.302C410.86 254.333 413.028 253.379 415.702 251.746C418.203 250.156 420.516 248.291 421.947 245.848C422.641 244.634 423.089 243.246 423.075 241.815C423.017 240.384 422.525 239.025 421.759 237.84C418.738 233.171 412.016 230.569 407.868 229.051C399.036 225.943 390.102 224.266 381.27 222.879C372.424 221.534 363.62 220.624 354.889 219.93C337.413 218.571 320.168 218.065 303.024 217.906C268.939 217.603 235.157 216.388 200.768 212.457C190.779 211.286 180.487 209.927 170.094 208.221C159.715 206.472 149.192 204.419 138.986 201.557C133.898 200.112 128.868 198.478 124.17 196.469C121.828 195.457 119.573 194.344 117.52 193.115C115.468 191.901 113.617 190.499 112.389 189.111C111.781 188.432 111.348 187.753 111.131 187.232C110.914 186.697 110.871 186.35 110.914 185.946C110.958 185.541 111.131 185.006 111.55 184.37C111.969 183.734 112.605 183.04 113.357 182.361C114.889 181.002 116.855 179.744 118.995 178.66C121.076 177.533 123.505 176.694 125.832 175.798C129.171 174.353 133.349 173.355 137.743 172.054C139.955 171.418 142.34 170.985 144.754 170.421C147.182 169.915 149.654 169.235 152.256 168.831C157.446 167.949 162.823 166.836 168.388 166.099C173.939 165.289 179.591 164.422 185.243 163.786C207.836 160.967 230.054 159.059 243.281 157.715C234.405 158.351 225.428 159.247 216.394 159.97C211.884 160.403 207.374 160.837 202.849 161.285L196.07 161.936L189.305 162.702C171.308 164.74 153.326 166.966 136.644 171.071C138.871 170.363 141.241 169.958 143.54 169.394C145.852 168.889 148.165 168.325 150.507 167.848C155.219 167.024 159.917 166.099 164.673 165.347C169.443 164.653 174.228 163.959 179.013 163.265C183.826 162.687 188.64 162.109 193.468 161.531C198.296 160.967 203.153 160.548 207.995 160.042L215.266 159.334L222.566 158.727L237.166 157.541L251.78 156.529C290.737 153.898 329.636 152.222 367.379 150.906C332.007 152.077 296.534 153.624 261.248 155.705C252.431 156.284 243.628 156.847 234.824 157.426C230.43 157.758 226.036 158.105 221.656 158.437L215.078 158.943L208.516 159.536C204.15 159.941 199.77 160.331 195.419 160.736C191.068 161.213 186.717 161.69 182.381 162.167C178.03 162.586 173.722 163.251 169.4 163.8L162.939 164.668L156.52 165.723L150.102 166.778L143.771 168.079C141.66 168.542 139.536 168.903 137.454 169.423L131.253 171.071C130.226 171.36 129.171 171.592 128.159 171.91L125.167 172.965L122.175 174.02C121.163 174.353 120.18 174.714 119.226 175.148C115.453 176.824 111.738 178.906 109.281 181.783C108.688 182.505 108.211 183.272 107.864 184.052C107.546 184.847 107.387 185.657 107.387 186.481C107.387 188.128 108.211 189.791 109.396 191.294C111.868 194.286 115.439 196.599 119.11 198.522C126.54 202.396 134.65 205.012 142.759 207.311C159.05 211.792 175.674 214.712 192.138 217.183C208.631 219.626 225.038 221.52 241.271 223.182C222.248 221.824 202.546 219.959 182.453 216.995C172.407 215.507 162.274 213.729 152.126 211.416C142.007 209.06 131.802 206.299 122.088 202.005C117.289 199.794 112.461 197.264 108.731 193.361C106.939 191.41 105.436 188.909 105.522 186.163C105.595 183.416 107.228 181.016 109.165 179.224C111.102 177.374 113.415 175.972 115.786 174.743C116.971 174.121 118.2 173.586 119.428 173.066C120.671 172.575 121.958 172.17 123.216 171.722L127.017 170.392C128.275 169.915 129.605 169.669 130.906 169.293C133.522 168.628 136.095 167.862 138.74 167.298C159.86 162.76 181.557 160.505 203.211 158.568C214.038 157.57 224.894 156.891 235.706 156.11C246.533 155.503 257.331 154.766 268.086 154.289C273.463 154.014 278.826 153.754 284.174 153.479C289.523 153.248 294.857 153.031 300.176 152.8C310.815 152.308 321.382 151.961 331.848 151.571C373.739 150.097 414.112 149.114 451.494 148.564C457.16 148.492 463.145 148.42 468.898 148.348C471.774 148.319 474.593 148.29 477.282 148.261C477.961 148.261 478.626 148.246 479.277 148.246H479.464C479.479 148.246 479.522 148.246 479.522 148.246L479.464 148.203L479.089 147.957L478.279 147.437C477.209 146.743 476.169 146.078 475.171 145.428L478.106 147.321L479.508 148.218C479.508 148.246 479.074 148.232 478.814 148.246L477.932 148.261C475.59 148.275 473.249 148.304 470.878 148.319C466.151 148.377 461.395 148.42 456.596 148.478C446.998 148.579 437.255 148.738 427.382 148.926C407.622 149.273 387.341 149.764 366.67 150.328C325.357 151.499 282.541 153.002 239.551 155.474C218.071 156.804 196.518 158.293 175.153 160.736C164.485 162.022 153.832 163.381 143.352 165.52C132.901 167.631 122.348 169.958 112.851 175.22C110.538 176.637 108.283 178.256 106.549 180.539C105.696 181.681 104.988 182.997 104.641 184.457C104.279 185.917 104.337 187.492 104.756 188.923C105.161 190.369 105.884 191.67 106.751 192.783C107.604 193.925 108.572 194.937 109.613 195.833C111.68 197.654 113.95 199.129 116.292 200.444C120.961 203.061 125.875 205.041 130.805 206.79C135.748 208.525 140.735 209.97 145.737 211.271C165.757 216.388 185.763 219.308 205.206 221.621C223.072 223.703 241.026 225.163 259.037 226.232C268.042 226.767 277.062 227.201 286.097 227.548C295.103 227.851 304.108 228.14 313.128 228.444C331.038 229.152 348.992 230.237 366.67 232.347C375.503 233.417 384.291 234.732 392.719 236.626C396.911 237.58 401.03 238.693 404.76 240.066C405.685 240.413 406.581 240.774 407.434 241.15L407.882 241.353L408.012 241.425C408.186 241.526 408.345 241.627 408.46 241.786C408.562 241.96 408.489 242.205 408.33 242.335C408.186 242.466 407.998 242.552 407.839 242.61L407.781 242.625C407.723 242.639 407.579 242.697 407.477 242.755L407.318 242.827L407 242.972L406.307 243.261C405.367 243.651 404.398 244.027 403.372 244.374C401.334 245.068 399.238 245.704 396.983 246.238C388.021 248.551 378.394 249.982 368.795 251.197C348.992 253.596 328.697 254.81 308.372 255.736C288.034 256.632 267.623 257.181 247.27 257.73C229.201 258.251 204.02 258.482 181.629 259.552C159.238 260.592 139.622 262.501 132.727 266.606C144.364 266.895 157.229 266.013 168.417 266.505C164.196 267.227 159.339 268.124 154.338 268.615C159.108 268.601 164.398 268.817 168.836 268.355C165.165 268.789 161.406 269.309 159.99 270.118C165.728 270.292 173.838 269.092 178.362 268.586C181.008 268.297 193.135 266.375 196.619 266.664C187.628 268.21 176.237 269.656 168.909 271.506C172.031 271.535 175.11 271.405 178.145 271.55C174.401 272.272 167.058 272.634 165.15 273.588C172.913 273.4 179.764 272.836 187.801 272.778C194.321 272.72 200.19 272.764 206.42 272.258C198.99 273.038 188.972 273.689 183.841 275.048C187.296 275.308 190.924 275.062 194.465 274.845C194.032 274.975 193.786 275.12 193.699 275.279C195.275 275.236 197.356 275.38 198.99 275.308C199.033 275.525 199.395 275.713 199.091 275.929C199.134 275.785 199.149 275.626 199.178 275.481" fill="#856F47"></path>
</g>
<path d="M151.693 209.102C139.247 168.049 139.666 122.501 152.878 81.7373C159.166 103.651 165.468 125.739 167.666 148.564C169.834 171.403 167.637 195.312 151.693 209.102Z" fill="#074F27" stroke="black" stroke-width="0.2" stroke-miterlimit="10"></path>
<path d="M252.228 314.958C255.712 321.434 251.91 328.127 244.133 330.671C223.13 337.537 190.346 327.52 178.449 307.846C170.947 295.429 164.008 297.106 153.629 301.038C128.405 310.578 103.701 308.829 80.9051 292.567C67.4907 282.983 59.4825 269.164 56.5914 251.832C56.0566 248.667 54.9725 245.602 57.9936 243.578C61.9688 240.89 63.5299 244.72 65.7271 247.264C72.5066 255.157 76.0481 265.68 85.126 271.911C113.747 291.541 140.62 282.477 167.087 266.909C178.059 260.448 181.933 261.026 185.807 273.472C190.071 287.175 196.634 298.985 207.764 307.037C221.092 316.693 235.142 323.501 252.228 314.958Z" fill="#784C19"></path>
<path d="M247.213 270.811C230.618 212.051 232.671 147.349 252.951 89.9043C261.277 121.258 269.661 152.857 272.075 185.367C274.49 217.891 270.558 251.774 247.213 270.811Z" fill="#074F27" stroke="black" stroke-width="0.2" stroke-miterlimit="10"></path>
<path d="M416.888 396.311C415.153 376.594 414.199 357.918 416.469 339.618C418.189 325.712 412.32 320.523 402.114 316.475C379.333 307.441 355.814 304.896 331.804 305.619C324.114 305.851 316.409 305.706 308.719 305.431C305.033 305.301 300.928 304.622 300.321 299.635C299.612 293.824 304.224 294.503 307.563 293.173C318.838 288.707 330.489 287.854 342.255 288.331C348.587 288.591 352.157 286.061 355.814 280.019C365.832 263.439 369.793 244.835 373.537 226.014C374.115 223.138 373.19 219.726 377.107 217.37C390.666 240.961 378.813 263.193 373.565 286.481C403.213 296.021 405.121 262.601 421.99 250.357C427.021 267.096 416.685 278.545 412.537 292.552C431.415 297.597 446.94 289.531 462.277 281.233C478.279 272.575 487.53 256.023 498.56 241.048C505.903 247.003 503.272 252.829 500.728 258.163C490.913 278.718 475.012 292.725 455.599 299.924C439.38 305.937 430.707 314.697 430.071 333.923C429.29 357.701 427.946 381.148 431.806 404.999C434.639 422.576 436.749 440.356 439.626 457.992C441.216 467.778 431.979 475.468 416.787 480.513C392.169 488.695 367.567 497.05 341.937 500.331C324.895 502.514 307.707 503.974 290.477 502.47C287.658 502.225 284.81 502.022 281.992 502.109C250.32 503.15 219.184 498.278 188.105 492.352C182.959 491.369 177.625 491.687 172.378 491.21C168.099 490.82 163.112 491.571 161.941 484.907C164.124 479.342 168.33 480.556 172.305 481.033C221.193 486.931 270.268 484.503 319.214 483.52C337.977 483.144 357.78 481.525 374.866 471.869C375.936 468.067 374.346 465.841 372.496 465.87C359.038 466.014 346.679 459.394 333.105 459.365C301.521 459.322 269.95 457.399 238.366 457.399C209.643 457.399 180.646 456.532 152.314 460.608C134.014 463.239 114.484 462.285 97.1671 472.75C88.2627 478.142 79.9365 471.478 82.4228 460.709C89.477 430.079 86.5281 399.434 84.7212 368.702C84.3454 362.211 84.62 362.197 89.8528 352.599C99.5667 384.501 95.6783 417.517 104.091 449.781C122.767 443.334 141.761 443.262 160.004 438.174C161.955 437.624 163.921 436.887 165.916 436.771C209.528 434.242 253.153 427.419 296.794 431.784C333.178 435.427 369.836 438.362 405.425 448.35C415.992 451.313 417.596 446.326 417.48 437.248C417.292 424.008 417.191 410.767 416.888 396.311Z" fill="#764C1C"></path>
</svg></svg></g></g></svg></g><g id="dark-icon"><svg xmlns="http://www.w3.org/2000/svg" version="1.1" xmlns:xlink="http://www.w3.org/1999/xlink" width="1000" height="1000"><g clip-path="url(#SvgjsClipPath1191)"><rect width="1000" height="1000" fill="#fffaed"></rect><g transform="matrix(1.1456628477905073,0,0,1.1456628477905073,150,150)"><svg xmlns="http://www.w3.org/2000/svg" version="1.1" xmlns:xlink="http://www.w3.org/1999/xlink" width="611" height="611"><svg width="611" height="611" viewBox="0 0 611 611" fill="none" xmlns="http://www.w3.org/2000/svg">
<rect width="611" height="611" rx="134" fill="white"></rect>
<path d="M112.002 179.453C64.3694 240.203 80.4878 292.69 131.379 340.691C114.143 344.114 80.9651 313.377 72.5241 290.972C52.2738 237.258 71.0104 188.221 104.024 162.789C123.02 148.157 148.316 145.102 157.207 155.343C141.457 161.793 125.161 166.348 112.002 179.453Z" fill="#784C16"></path>
<path d="M444.174 162.543C443.847 134.97 430.237 117.597 398.982 105.065C408.037 95.6424 418.074 100.156 425.492 103.279C445.66 111.747 458.847 128.493 463.838 151.688C465.542 159.584 468.011 161.589 475.892 162.161C517.157 165.175 550.839 192.298 546.461 245.221C546.148 248.985 545.971 253.471 541.47 253.649C535.961 253.853 536.384 248.699 536.002 244.635C533.057 212.235 513.27 191.616 483.011 187.498C473.315 186.175 464.37 182.725 454.388 187.307C449.41 189.598 444.788 185.439 444.365 178.675C444.065 173.698 444.228 168.693 444.174 162.543Z" fill="#784C16"></path>
<path d="M243.935 103.239C220.344 109.362 203.244 126.04 185.475 141.381C180.375 133.158 185.053 128.112 187.834 123.994C205.985 97.062 230.517 82.5937 260.776 75.6118C280.686 71.0162 299.327 72.0254 318.213 76.7709C335.75 81.1755 351.773 89.6574 363.555 105.408C365.627 108.189 365.505 108.298 365.846 116.044C354.009 113.726 345.473 103.853 333.677 101.235C315.636 97.2257 297.745 94.9347 279.458 96.4756C267.744 97.4711 256.167 99.5439 243.935 103.239Z" fill="#784C19"></path>
<path d="M362.314 208.526C355.973 187.675 357.323 164.793 366.091 144.529C369.268 155.643 372.446 166.852 373.182 178.375C373.905 189.884 372.036 201.871 362.314 208.526Z" fill="#074F27" stroke="black" stroke-width="0.2" stroke-miterlimit="10"></path>
<g opacity="0.7">
<path d="M253.372 324.435C260.885 324.545 268.536 324.081 275.708 323.535C290.995 322.376 303.895 324.722 318.813 323.167C337.509 321.217 356.055 322.458 375.528 320.085C379.987 319.554 384.473 318.994 388.96 318.34C391.196 318.026 393.446 317.713 395.696 317.399C397.946 317.044 400.196 316.69 402.446 316.322C411.46 314.917 420.487 313.213 429.474 311.167C431.71 310.608 433.96 310.117 436.197 309.517L442.879 307.608C445.115 306.913 447.324 306.149 449.519 305.249C451.729 304.335 453.774 303.435 456.297 301.894C458.656 300.394 460.838 298.635 462.188 296.331C462.842 295.185 463.265 293.876 463.251 292.526C463.197 291.176 462.733 289.894 462.011 288.776C459.161 284.371 452.82 281.917 448.906 280.485C440.574 277.553 432.147 275.971 423.815 274.662C415.469 273.394 407.164 272.535 398.928 271.88C382.441 270.598 366.173 270.121 350 269.971C317.845 269.685 285.977 268.539 253.535 264.83C244.112 263.726 234.403 262.444 224.599 260.835C214.808 259.185 204.88 257.248 195.253 254.548C190.453 253.185 185.707 251.644 181.275 249.748C179.066 248.794 176.939 247.744 175.003 246.585C173.066 245.439 171.321 244.116 170.162 242.807C169.589 242.166 169.18 241.525 168.975 241.034C168.771 240.53 168.73 240.203 168.771 239.821C168.812 239.439 168.975 238.934 169.371 238.334C169.766 237.734 170.366 237.08 171.075 236.439C172.521 235.157 174.375 233.971 176.394 232.948C178.357 231.884 180.648 231.093 182.844 230.248C185.994 228.884 189.935 227.943 194.08 226.716C196.166 226.116 198.416 225.707 200.694 225.175C202.985 224.698 205.317 224.057 207.771 223.675C212.667 222.843 217.739 221.793 222.99 221.098C228.226 220.334 233.558 219.516 238.89 218.916C260.204 216.257 281.163 214.457 293.64 213.189C285.268 213.789 276.799 214.634 268.276 215.316C264.022 215.725 259.767 216.134 255.499 216.557L249.103 217.171L242.722 217.893C225.744 219.816 208.78 221.916 193.044 225.789C195.144 225.121 197.38 224.739 199.548 224.207C201.73 223.73 203.912 223.198 206.121 222.748C210.567 221.971 214.999 221.098 219.485 220.389C223.985 219.734 228.499 219.08 233.012 218.425C237.553 217.88 242.094 217.334 246.649 216.789C251.204 216.257 255.785 215.861 260.354 215.384L267.213 214.716L274.099 214.143L287.872 213.025L301.659 212.07C338.409 209.589 375.105 208.007 410.71 206.766C377.341 207.87 343.877 209.33 310.591 211.293C302.272 211.839 293.968 212.37 285.663 212.916C281.517 213.23 277.372 213.557 273.24 213.871L267.035 214.348L260.845 214.907C256.726 215.289 252.594 215.657 248.49 216.039C244.385 216.489 240.281 216.939 236.19 217.389C232.085 217.784 228.021 218.411 223.944 218.93L217.849 219.748L211.794 220.743L205.739 221.739L199.767 222.966C197.776 223.402 195.771 223.743 193.807 224.234L187.957 225.789C186.989 226.062 185.994 226.28 185.039 226.58L182.216 227.575L179.394 228.571C178.439 228.884 177.512 229.225 176.612 229.634C173.053 231.216 169.548 233.18 167.23 235.894C166.671 236.575 166.221 237.298 165.893 238.034C165.593 238.784 165.443 239.548 165.443 240.325C165.443 241.88 166.221 243.448 167.339 244.866C169.671 247.689 173.039 249.871 176.503 251.685C183.512 255.339 191.162 257.807 198.812 259.976C214.18 264.203 229.862 266.958 245.394 269.289C260.954 271.594 276.431 273.38 291.745 274.948C273.799 273.667 255.213 271.908 236.258 269.112C226.78 267.708 217.221 266.03 207.648 263.848C198.103 261.626 188.475 259.021 179.312 254.971C174.784 252.885 170.23 250.498 166.712 246.816C165.021 244.975 163.602 242.616 163.684 240.025C163.752 237.434 165.293 235.171 167.121 233.48C168.948 231.734 171.13 230.412 173.366 229.253C174.484 228.666 175.644 228.162 176.803 227.671C177.975 227.207 179.189 226.825 180.375 226.403L183.962 225.148C185.148 224.698 186.403 224.466 187.63 224.112C190.098 223.484 192.526 222.762 195.021 222.23C214.944 217.948 235.412 215.821 255.84 213.993C266.054 213.052 276.295 212.411 286.495 211.675C296.709 211.102 306.895 210.407 317.041 209.957C322.113 209.698 327.173 209.452 332.218 209.193C337.264 208.975 342.296 208.77 347.314 208.552C357.35 208.089 367.318 207.761 377.191 207.393C416.71 206.002 454.797 205.075 490.061 204.557C495.406 204.489 501.052 204.42 506.479 204.352C509.193 204.325 511.852 204.298 514.388 204.27C515.029 204.27 515.657 204.257 516.27 204.257H516.448C516.461 204.257 516.502 204.257 516.502 204.257L516.448 204.216L516.093 203.984L515.329 203.493C514.32 202.839 513.338 202.211 512.398 201.598L515.166 203.384L516.488 204.229C516.488 204.257 516.079 204.243 515.834 204.257L515.002 204.27C512.793 204.284 510.584 204.311 508.347 204.325C503.888 204.38 499.402 204.42 494.875 204.475C485.82 204.57 476.629 204.72 467.315 204.898C448.674 205.225 429.542 205.689 410.042 206.22C371.069 207.325 330.677 208.743 290.122 211.075C269.858 212.33 249.526 213.734 229.371 216.039C219.308 217.252 209.258 218.534 199.371 220.552C189.512 222.543 179.557 224.739 170.598 229.703C168.416 231.039 166.289 232.566 164.652 234.721C163.848 235.798 163.18 237.039 162.852 238.416C162.512 239.794 162.566 241.28 162.962 242.63C163.343 243.994 164.025 245.221 164.843 246.271C165.648 247.348 166.562 248.303 167.543 249.148C169.493 250.866 171.634 252.257 173.843 253.498C178.248 255.966 182.884 257.835 187.535 259.485C192.198 261.121 196.903 262.485 201.621 263.712C220.508 268.539 239.381 271.294 257.722 273.476C274.577 275.439 291.513 276.817 308.504 277.826C317 278.33 325.509 278.739 334.032 279.067C342.527 279.353 351.023 279.626 359.532 279.912C376.428 280.58 393.364 281.603 410.042 283.594C418.374 284.603 426.665 285.844 434.615 287.63C438.569 288.531 442.456 289.581 445.974 290.876C446.847 291.203 447.692 291.544 448.497 291.899L448.919 292.09L449.042 292.158C449.206 292.253 449.356 292.349 449.465 292.499C449.56 292.662 449.492 292.894 449.342 293.017C449.206 293.14 449.029 293.221 448.879 293.276L448.824 293.29C448.769 293.303 448.633 293.358 448.538 293.412L448.388 293.481L448.088 293.617L447.433 293.89C446.547 294.258 445.633 294.612 444.665 294.94C442.742 295.594 440.765 296.194 438.638 296.699C430.183 298.881 421.101 300.231 412.046 301.376C393.364 303.64 374.219 304.785 355.046 305.658C335.859 306.503 316.604 307.022 297.404 307.54C280.358 308.031 256.604 308.249 235.481 309.258C214.358 310.24 195.853 312.04 189.348 315.913C200.326 316.185 212.462 315.354 223.017 315.817C219.035 316.499 214.453 317.344 209.735 317.808C214.235 317.794 219.226 317.999 223.412 317.563C219.949 317.972 216.403 318.463 215.067 319.226C220.48 319.39 228.13 318.258 232.399 317.781C234.894 317.508 246.335 315.694 249.622 315.967C241.14 317.426 230.394 318.79 223.48 320.535C226.426 320.563 229.331 320.44 232.194 320.576C228.662 321.258 221.735 321.599 219.935 322.499C227.258 322.322 233.721 321.79 241.303 321.735C247.453 321.681 252.99 321.722 258.867 321.245C251.858 321.981 242.408 322.595 237.567 323.876C240.826 324.122 244.249 323.89 247.59 323.685C247.181 323.808 246.949 323.945 246.867 324.095C248.353 324.054 250.317 324.19 251.858 324.122C251.899 324.326 252.24 324.504 251.953 324.708C251.994 324.572 252.008 324.422 252.035 324.285" fill="white"></path>
</g>
<g opacity="0.7">
<path d="M253.372 324.435C260.885 324.545 268.536 324.081 275.708 323.535C290.995 322.376 303.895 324.722 318.813 323.167C337.509 321.217 356.055 322.458 375.528 320.085C379.987 319.554 384.473 318.994 388.96 318.34C391.196 318.026 393.446 317.713 395.696 317.399C397.946 317.044 400.196 316.69 402.446 316.322C411.46 314.917 420.487 313.213 429.474 311.167C431.71 310.608 433.96 310.117 436.197 309.517L442.879 307.608C445.115 306.913 447.324 306.149 449.519 305.249C451.729 304.335 453.774 303.435 456.297 301.894C458.656 300.394 460.838 298.635 462.188 296.331C462.842 295.185 463.265 293.876 463.251 292.526C463.197 291.176 462.733 289.894 462.011 288.776C459.161 284.371 452.82 281.917 448.906 280.485C440.574 277.553 432.147 275.971 423.815 274.662C415.469 273.394 407.164 272.535 398.928 271.88C382.441 270.598 366.173 270.121 350 269.971C317.845 269.685 285.977 268.539 253.535 264.83C244.112 263.726 234.403 262.444 224.599 260.835C214.808 259.185 204.88 257.248 195.253 254.548C190.453 253.185 185.707 251.644 181.275 249.748C179.066 248.794 176.939 247.744 175.003 246.585C173.066 245.439 171.321 244.116 170.162 242.807C169.589 242.166 169.18 241.525 168.975 241.034C168.771 240.53 168.73 240.203 168.771 239.821C168.812 239.439 168.975 238.934 169.371 238.334C169.766 237.734 170.366 237.08 171.075 236.439C172.521 235.157 174.375 233.971 176.394 232.948C178.357 231.884 180.648 231.093 182.844 230.248C185.994 228.884 189.935 227.943 194.08 226.716C196.166 226.116 198.416 225.707 200.694 225.175C202.985 224.698 205.317 224.057 207.771 223.675C212.667 222.843 217.739 221.793 222.99 221.098C228.226 220.334 233.558 219.516 238.89 218.916C260.204 216.257 281.163 214.457 293.64 213.189C285.268 213.789 276.799 214.634 268.276 215.316C264.022 215.725 259.767 216.134 255.499 216.557L249.103 217.171L242.722 217.893C225.744 219.816 208.78 221.916 193.044 225.789C195.144 225.121 197.38 224.739 199.548 224.207C201.73 223.73 203.912 223.198 206.121 222.748C210.567 221.971 214.999 221.098 219.485 220.389C223.985 219.734 228.499 219.08 233.012 218.425C237.553 217.88 242.094 217.334 246.649 216.789C251.204 216.257 255.785 215.861 260.354 215.384L267.213 214.716L274.099 214.143L287.872 213.025L301.659 212.07C338.409 209.589 375.105 208.007 410.71 206.766C377.341 207.87 343.877 209.33 310.591 211.293C302.272 211.839 293.968 212.37 285.663 212.916C281.517 213.23 277.372 213.557 273.24 213.871L267.035 214.348L260.845 214.907C256.726 215.289 252.594 215.657 248.49 216.039C244.385 216.489 240.281 216.939 236.19 217.389C232.085 217.784 228.021 218.411 223.944 218.93L217.849 219.748L211.794 220.743L205.739 221.739L199.767 222.966C197.776 223.402 195.771 223.743 193.807 224.234L187.957 225.789C186.989 226.062 185.994 226.28 185.039 226.58L182.216 227.575L179.394 228.571C178.439 228.884 177.512 229.225 176.612 229.634C173.053 231.216 169.548 233.18 167.23 235.894C166.671 236.575 166.221 237.298 165.893 238.034C165.593 238.784 165.443 239.548 165.443 240.325C165.443 241.88 166.221 243.448 167.339 244.866C169.671 247.689 173.039 249.871 176.503 251.685C183.512 255.339 191.162 257.807 198.812 259.976C214.18 264.203 229.862 266.958 245.394 269.289C260.954 271.594 276.431 273.38 291.745 274.948C273.799 273.667 255.213 271.908 236.258 269.112C226.78 267.708 217.221 266.03 207.648 263.848C198.103 261.626 188.475 259.021 179.312 254.971C174.784 252.885 170.23 250.498 166.712 246.816C165.021 244.975 163.602 242.616 163.684 240.025C163.752 237.434 165.293 235.171 167.121 233.48C168.948 231.734 171.13 230.412 173.366 229.253C174.484 228.666 175.644 228.162 176.803 227.671C177.975 227.207 179.189 226.825 180.375 226.403L183.962 225.148C185.148 224.698 186.403 224.466 187.63 224.112C190.098 223.484 192.526 222.762 195.021 222.23C214.944 217.948 235.412 215.821 255.84 213.993C266.054 213.052 276.295 212.411 286.495 211.675C296.709 211.102 306.895 210.407 317.041 209.957C322.113 209.698 327.173 209.452 332.218 209.193C337.264 208.975 342.296 208.77 347.314 208.552C357.35 208.089 367.318 207.761 377.191 207.393C416.71 206.002 454.797 205.075 490.061 204.557C495.406 204.489 501.052 204.42 506.479 204.352C509.193 204.325 511.852 204.298 514.388 204.27C515.029 204.27 515.657 204.257 516.27 204.257H516.448C516.461 204.257 516.502 204.257 516.502 204.257L516.448 204.216L516.093 203.984L515.329 203.493C514.32 202.839 513.338 202.211 512.398 201.598L515.166 203.384L516.488 204.229C516.488 204.257 516.079 204.243 515.834 204.257L515.002 204.27C512.793 204.284 510.584 204.311 508.347 204.325C503.888 204.38 499.402 204.42 494.875 204.475C485.82 204.57 476.629 204.72 467.315 204.898C448.674 205.225 429.542 205.689 410.042 206.22C371.069 207.325 330.677 208.743 290.122 211.075C269.858 212.33 249.526 213.734 229.371 216.039C219.308 217.252 209.258 218.534 199.371 220.552C189.512 222.543 179.557 224.739 170.598 229.703C168.416 231.039 166.289 232.566 164.652 234.721C163.848 235.798 163.18 237.039 162.852 238.416C162.512 239.794 162.566 241.28 162.962 242.63C163.343 243.994 164.025 245.221 164.843 246.271C165.648 247.348 166.562 248.303 167.543 249.148C169.493 250.866 171.634 252.257 173.843 253.498C178.248 255.966 182.884 257.835 187.535 259.485C192.198 261.121 196.903 262.485 201.621 263.712C220.508 268.539 239.381 271.294 257.722 273.476C274.577 275.439 291.513 276.817 308.504 277.826C317 278.33 325.509 278.739 334.032 279.067C342.527 279.353 351.023 279.626 359.532 279.912C376.428 280.58 393.364 281.603 410.042 283.594C418.374 284.603 426.665 285.844 434.615 287.63C438.569 288.531 442.456 289.581 445.974 290.876C446.847 291.203 447.692 291.544 448.497 291.899L448.919 292.09L449.042 292.158C449.206 292.253 449.356 292.349 449.465 292.499C449.56 292.662 449.492 292.894 449.342 293.017C449.206 293.14 449.029 293.221 448.879 293.276L448.824 293.29C448.769 293.303 448.633 293.358 448.538 293.412L448.388 293.481L448.088 293.617L447.433 293.89C446.547 294.258 445.633 294.612 444.665 294.94C442.742 295.594 440.765 296.194 438.638 296.699C430.183 298.881 421.101 300.231 412.046 301.376C393.364 303.64 374.219 304.785 355.046 305.658C335.859 306.503 316.604 307.022 297.404 307.54C280.358 308.031 256.604 308.249 235.481 309.258C214.358 310.24 195.853 312.04 189.348 315.913C200.326 316.185 212.462 315.354 223.017 315.817C219.035 316.499 214.453 317.344 209.735 317.808C214.235 317.794 219.226 317.999 223.412 317.563C219.949 317.972 216.403 318.463 215.067 319.226C220.48 319.39 228.13 318.258 232.399 317.781C234.894 317.508 246.335 315.694 249.622 315.967C241.14 317.426 230.394 318.79 223.48 320.535C226.426 320.563 229.331 320.44 232.194 320.576C228.662 321.258 221.735 321.599 219.935 322.499C227.258 322.322 233.721 321.79 241.303 321.735C247.453 321.681 252.99 321.722 258.867 321.245C251.858 321.981 242.408 322.595 237.567 323.876C240.826 324.122 244.249 323.89 247.59 323.685C247.181 323.808 246.949 323.945 246.867 324.095C248.353 324.054 250.317 324.19 251.858 324.122C251.899 324.326 252.24 324.504 251.953 324.708C251.994 324.572 252.008 324.422 252.035 324.285" fill="white"></path>
</g>
<g opacity="0.7">
<path d="M253.372 324.435C260.885 324.545 268.536 324.081 275.708 323.535C290.995 322.376 303.895 324.722 318.813 323.167C337.509 321.217 356.055 322.458 375.528 320.085C379.987 319.554 384.473 318.994 388.96 318.34C391.196 318.026 393.446 317.713 395.696 317.399C397.946 317.044 400.196 316.69 402.446 316.322C411.46 314.917 420.487 313.213 429.474 311.167C431.71 310.608 433.96 310.117 436.197 309.517L442.879 307.608C445.115 306.913 447.324 306.149 449.519 305.249C451.729 304.335 453.774 303.435 456.297 301.894C458.656 300.394 460.838 298.635 462.188 296.331C462.842 295.185 463.265 293.876 463.251 292.526C463.197 291.176 462.733 289.894 462.011 288.776C459.161 284.371 452.82 281.917 448.906 280.485C440.574 277.553 432.147 275.971 423.815 274.662C415.469 273.394 407.164 272.535 398.928 271.88C382.441 270.598 366.173 270.121 350 269.971C317.845 269.685 285.977 268.539 253.535 264.83C244.112 263.726 234.403 262.444 224.599 260.835C214.808 259.185 204.88 257.248 195.253 254.548C190.453 253.185 185.707 251.644 181.275 249.748C179.066 248.794 176.939 247.744 175.003 246.585C173.066 245.439 171.321 244.116 170.162 242.807C169.589 242.166 169.18 241.525 168.975 241.034C168.771 240.53 168.73 240.203 168.771 239.821C168.812 239.439 168.975 238.934 169.371 238.334C169.766 237.734 170.366 237.08 171.075 236.439C172.521 235.157 174.375 233.971 176.394 232.948C178.357 231.884 180.648 231.093 182.844 230.248C185.994 228.884 189.935 227.943 194.08 226.716C196.166 226.116 198.416 225.707 200.694 225.175C202.985 224.698 205.317 224.057 207.771 223.675C212.667 222.843 217.739 221.793 222.99 221.098C228.226 220.334 233.558 219.516 238.89 218.916C260.204 216.257 281.163 214.457 293.64 213.189C285.268 213.789 276.799 214.634 268.276 215.316C264.022 215.725 259.767 216.134 255.499 216.557L249.103 217.171L242.722 217.893C225.744 219.816 208.78 221.916 193.044 225.789C195.144 225.121 197.38 224.739 199.548 224.207C201.73 223.73 203.912 223.198 206.121 222.748C210.567 221.971 214.999 221.098 219.485 220.389C223.985 219.734 228.499 219.08 233.012 218.425C237.553 217.88 242.094 217.334 246.649 216.789C251.204 216.257 255.785 215.861 260.354 215.384L267.213 214.716L274.099 214.143L287.872 213.025L301.659 212.07C338.409 209.589 375.105 208.007 410.71 206.766C377.341 207.87 343.877 209.33 310.591 211.293C302.272 211.839 293.968 212.37 285.663 212.916C281.517 213.23 277.372 213.557 273.24 213.871L267.035 214.348L260.845 214.907C256.726 215.289 252.594 215.657 248.49 216.039C244.385 216.489 240.281 216.939 236.19 217.389C232.085 217.784 228.021 218.411 223.944 218.93L217.849 219.748L211.794 220.743L205.739 221.739L199.767 222.966C197.776 223.402 195.771 223.743 193.807 224.234L187.957 225.789C186.989 226.062 185.994 226.28 185.039 226.58L182.216 227.575L179.394 228.571C178.439 228.884 177.512 229.225 176.612 229.634C173.053 231.216 169.548 233.18 167.23 235.894C166.671 236.575 166.221 237.298 165.893 238.034C165.593 238.784 165.443 239.548 165.443 240.325C165.443 241.88 166.221 243.448 167.339 244.866C169.671 247.689 173.039 249.871 176.503 251.685C183.512 255.339 191.162 257.807 198.812 259.976C214.18 264.203 229.862 266.958 245.394 269.289C260.954 271.594 276.431 273.38 291.745 274.948C273.799 273.667 255.213 271.908 236.258 269.112C226.78 267.708 217.221 266.03 207.648 263.848C198.103 261.626 188.475 259.021 179.312 254.971C174.784 252.885 170.23 250.498 166.712 246.816C165.021 244.975 163.602 242.616 163.684 240.025C163.752 237.434 165.293 235.171 167.121 233.48C168.948 231.734 171.13 230.412 173.366 229.253C174.484 228.666 175.644 228.162 176.803 227.671C177.975 227.207 179.189 226.825 180.375 226.403L183.962 225.148C185.148 224.698 186.403 224.466 187.63 224.112C190.098 223.484 192.526 222.762 195.021 222.23C214.944 217.948 235.412 215.821 255.84 213.993C266.054 213.052 276.295 212.411 286.495 211.675C296.709 211.102 306.895 210.407 317.041 209.957C322.113 209.698 327.173 209.452 332.218 209.193C337.264 208.975 342.296 208.77 347.314 208.552C357.35 208.089 367.318 207.761 377.191 207.393C416.71 206.002 454.797 205.075 490.061 204.557C495.406 204.489 501.052 204.42 506.479 204.352C509.193 204.325 511.852 204.298 514.388 204.27C515.029 204.27 515.657 204.257 516.27 204.257H516.448C516.461 204.257 516.502 204.257 516.502 204.257L516.448 204.216L516.093 203.984L515.329 203.493C514.32 202.839 513.338 202.211 512.398 201.598L515.166 203.384L516.488 204.229C516.488 204.257 516.079 204.243 515.834 204.257L515.002 204.27C512.793 204.284 510.584 204.311 508.347 204.325C503.888 204.38 499.402 204.42 494.875 204.475C485.82 204.57 476.629 204.72 467.315 204.898C448.674 205.225 429.542 205.689 410.042 206.22C371.069 207.325 330.677 208.743 290.122 211.075C269.858 212.33 249.526 213.734 229.371 216.039C219.308 217.252 209.258 218.534 199.371 220.552C189.512 222.543 179.557 224.739 170.598 229.703C168.416 231.039 166.289 232.566 164.652 234.721C163.848 235.798 163.18 237.039 162.852 238.416C162.512 239.794 162.566 241.28 162.962 242.63C163.343 243.994 164.025 245.221 164.843 246.271C165.648 247.348 166.562 248.303 167.543 249.148C169.493 250.866 171.634 252.257 173.843 253.498C178.248 255.966 182.884 257.835 187.535 259.485C192.198 261.121 196.903 262.485 201.621 263.712C220.508 268.539 239.381 271.294 257.722 273.476C274.577 275.439 291.513 276.817 308.504 277.826C317 278.33 325.509 278.739 334.032 279.067C342.527 279.353 351.023 279.626 359.532 279.912C376.428 280.58 393.364 281.603 410.042 283.594C418.374 284.603 426.665 285.844 434.615 287.63C438.569 288.531 442.456 289.581 445.974 290.876C446.847 291.203 447.692 291.544 448.497 291.899L448.919 292.09L449.042 292.158C449.206 292.253 449.356 292.349 449.465 292.499C449.56 292.662 449.492 292.894 449.342 293.017C449.206 293.14 449.029 293.221 448.879 293.276L448.824 293.29C448.769 293.303 448.633 293.358 448.538 293.412L448.388 293.481L448.088 293.617L447.433 293.89C446.547 294.258 445.633 294.612 444.665 294.94C442.742 295.594 440.765 296.194 438.638 296.699C430.183 298.881 421.101 300.231 412.046 301.376C393.364 303.64 374.219 304.785 355.046 305.658C335.859 306.503 316.604 307.022 297.404 307.54C280.358 308.031 256.604 308.249 235.481 309.258C214.358 310.24 195.853 312.04 189.348 315.913C200.326 316.185 212.462 315.354 223.017 315.817C219.035 316.499 214.453 317.344 209.735 317.808C214.235 317.794 219.226 317.999 223.412 317.563C219.949 317.972 216.403 318.463 215.067 319.226C220.48 319.39 228.13 318.258 232.399 317.781C234.894 317.508 246.335 315.694 249.622 315.967C241.14 317.426 230.394 318.79 223.48 320.535C226.426 320.563 229.331 320.44 232.194 320.576C228.662 321.258 221.735 321.599 219.935 322.499C227.258 322.322 233.721 321.79 241.303 321.735C247.453 321.681 252.99 321.722 258.867 321.245C251.858 321.981 242.408 322.595 237.567 323.876C240.826 324.122 244.249 323.89 247.59 323.685C247.181 323.808 246.949 323.945 246.867 324.095C248.353 324.054 250.317 324.19 251.858 324.122C251.899 324.326 252.24 324.504 251.953 324.708C251.994 324.572 252.008 324.422 252.035 324.285" fill="#856F47"></path>
</g>
<path d="M207.239 261.667C195.498 222.939 195.893 179.971 208.357 141.516C214.289 162.189 220.235 183.025 222.307 204.557C224.353 226.103 222.28 248.658 207.239 261.667Z" fill="#074F27" stroke="black" stroke-width="0.2" stroke-miterlimit="10"></path>
<path d="M302.082 361.528C305.368 367.637 301.782 373.951 294.445 376.351C274.631 382.828 243.704 373.378 232.481 354.818C225.404 343.105 218.858 344.687 209.067 348.396C185.271 357.396 161.966 355.746 140.462 340.405C127.807 331.364 120.252 318.327 117.525 301.977C117.02 298.991 115.998 296.1 118.848 294.19C122.598 291.654 124.07 295.268 126.143 297.668C132.539 305.113 135.88 315.041 144.443 320.918C171.444 339.436 196.794 330.886 221.763 316.2C232.113 310.104 235.767 310.65 239.422 322.391C243.445 335.318 249.636 346.459 260.136 354.055C272.709 363.164 285.963 369.587 302.082 361.528Z" fill="#784C19"></path>
<path d="M297.349 319.881C281.694 264.448 283.631 203.411 302.763 149.22C310.617 178.797 318.527 208.607 320.804 239.275C323.081 269.958 319.372 301.922 297.349 319.881Z" fill="#074F27" stroke="black" stroke-width="0.2" stroke-miterlimit="10"></path>
<path d="M457.415 438.273C455.778 419.673 454.878 402.055 457.019 384.791C458.642 371.673 453.106 366.777 443.478 362.959C421.987 354.436 399.8 352.036 377.15 352.718C369.895 352.936 362.627 352.8 355.373 352.541C351.895 352.418 348.022 351.777 347.45 347.072C346.781 341.59 351.132 342.231 354.282 340.977C364.918 336.763 375.909 335.958 387.009 336.408C392.982 336.654 396.35 334.268 399.8 328.567C409.25 312.926 412.987 295.376 416.519 277.621C417.064 274.908 416.191 271.69 419.887 269.467C432.678 291.722 421.496 312.695 416.546 334.663C444.515 343.663 446.315 312.135 462.228 300.585C466.974 316.376 457.224 327.177 453.31 340.39C471.119 345.15 485.765 337.54 500.233 329.713C515.329 321.545 524.056 305.931 534.461 291.803C541.388 297.422 538.907 302.917 536.507 307.949C527.247 327.34 512.247 340.554 493.933 347.345C478.633 353.018 470.451 361.282 469.851 379.418C469.115 401.85 467.847 423.969 471.488 446.469C474.16 463.051 476.151 479.824 478.865 496.46C480.365 505.692 471.651 512.947 457.319 517.706C434.096 525.424 410.887 533.306 386.709 536.402C370.632 538.461 354.418 539.838 338.163 538.42C335.504 538.188 332.818 537.997 330.159 538.079C300.281 539.061 270.908 534.465 241.589 528.874C236.735 527.947 231.703 528.247 226.753 527.797C222.716 527.429 218.012 528.138 216.907 521.852C218.966 516.602 222.935 517.747 226.685 518.197C272.803 523.761 319.099 521.47 365.273 520.543C382.973 520.188 401.655 518.661 417.773 509.551C418.782 505.965 417.282 503.865 415.537 503.892C402.841 504.029 391.182 497.783 378.377 497.756C348.582 497.715 318.799 495.901 289.004 495.901C261.908 495.901 234.553 495.083 207.825 498.929C190.561 501.41 172.139 500.51 155.802 510.383C147.402 515.47 139.547 509.183 141.893 499.024C148.547 470.128 145.765 441.219 144.061 412.228C143.706 406.105 143.965 406.091 148.902 397.037C158.066 427.132 154.397 458.278 162.334 488.715C179.952 482.633 197.871 482.565 215.08 477.765C216.921 477.247 218.775 476.551 220.657 476.442C261.799 474.056 302.954 467.619 344.122 471.737C378.446 475.174 413.028 477.942 446.601 487.365C456.569 490.16 458.083 485.456 457.974 476.892C457.796 464.401 457.701 451.91 457.415 438.273Z" fill="#764C1C"></path>
</svg></svg></g></g><defs><clipPath id="SvgjsClipPath1191"><rect width="1000" height="1000" x="0" y="0" rx="500" ry="500"></rect></clipPath></defs></svg></g></svg>