<svg xmlns="http://www.w3.org/2000/svg" version="1.1" xmlns:xlink="http://www.w3.org/1999/xlink" width="1000" height="1000"><style>
    #light-icon {
      display: inline;
    }
    #dark-icon {
      display: none;
    }

    @media (prefers-color-scheme: dark) {
      #light-icon {
        display: none;
      }
      #dark-icon {
        display: inline;
      }
    }
  </style><g id="light-icon"><svg xmlns="http://www.w3.org/2000/svg" version="1.1" xmlns:xlink="http://www.w3.org/1999/xlink" width="1000" height="1000"><g><g transform="matrix(1.2135922330097086,0,0,1.2135922330097086,5.684341886080802e-14,5.684341886080802e-14)"><svg xmlns="http://www.w3.org/2000/svg" version="1.1" xmlns:xlink="http://www.w3.org/1999/xlink" width="824" height="824"><svg width="824" height="824" viewBox="0 0 824 824" fill="none" xmlns="http://www.w3.org/2000/svg">
<g clip-path="url(#clip0_44_30)">
<path d="M111.387 213.533C36.5974 309.077 61.9056 391.624 141.813 467.116C114.749 472.499 62.655 424.158 49.4014 388.922C17.6056 304.445 47.0247 227.323 98.8615 187.326C128.687 164.314 168.405 159.51 182.366 175.616C157.636 185.76 132.049 192.923 111.387 213.533Z" fill="#784C16"></path>
<path d="M632.941 186.939C632.428 143.575 611.059 116.252 561.984 96.5429C576.201 81.7234 591.96 88.8222 603.608 93.7334C635.275 107.052 655.98 133.388 663.817 169.868C666.493 182.286 670.368 185.438 682.744 186.339C747.535 191.079 800.421 233.735 793.548 316.969C793.055 322.888 792.777 329.944 785.711 330.223C777.061 330.544 777.725 322.438 777.125 316.047C772.5 265.09 741.433 232.663 693.921 226.186C678.697 224.106 664.652 218.68 648.979 225.886C641.163 229.489 633.905 222.948 633.241 212.311C632.77 204.483 633.027 196.612 632.941 186.939Z" fill="#784C16"></path>
<path d="M318.538 93.67C281.497 103.299 254.647 129.528 226.748 153.656C218.74 140.723 226.084 132.788 230.452 126.311C258.951 83.9547 297.47 61.2001 344.981 50.2195C376.242 42.9921 405.511 44.5792 435.166 52.0425C462.701 58.9697 487.859 72.3093 506.358 97.0799C509.613 101.455 509.42 101.627 509.955 113.808C491.37 110.162 477.967 94.635 459.446 90.5173C431.119 84.2121 403.027 80.6091 374.315 83.0325C355.922 84.5981 337.744 87.858 318.538 93.67Z" fill="#784C19"></path>
<path d="M504.409 259.257C494.453 226.466 496.573 190.479 510.34 158.609C515.329 176.088 520.318 193.717 521.474 211.839C522.609 229.94 519.676 248.791 504.409 259.257Z" fill="#074F27" stroke="black" stroke-width="0.2" stroke-miterlimit="10"></path>
<g opacity="0.7">
<path d="M333.357 441.55C345.154 441.722 357.166 440.993 368.428 440.135C392.43 438.312 412.685 442.001 436.109 439.556C465.464 436.489 494.584 438.441 525.159 434.709C532.16 433.873 539.205 432.993 546.249 431.964C549.761 431.471 553.293 430.977 556.826 430.484C560.359 429.926 563.892 429.369 567.425 428.79C581.578 426.581 595.752 423.9 609.862 420.683C613.374 419.804 616.906 419.032 620.418 418.088L630.909 415.086C634.421 413.992 637.89 412.791 641.337 411.375C644.805 409.938 648.017 408.523 651.978 406.1C655.682 403.74 659.108 400.974 661.228 397.349C662.256 395.548 662.919 393.489 662.898 391.366C662.812 389.243 662.084 387.227 660.95 385.468C656.475 378.541 646.518 374.681 640.373 372.429C627.291 367.818 614.059 365.33 600.976 363.271C587.873 361.277 574.833 359.925 561.901 358.896C536.015 356.88 510.471 356.129 485.077 355.894C434.589 355.443 384.551 353.642 333.613 347.808C318.818 346.071 303.573 344.055 288.179 341.524C272.805 338.929 257.218 335.884 242.102 331.638C234.565 329.493 227.114 327.07 220.155 324.089C216.686 322.587 213.346 320.936 210.306 319.113C207.265 317.311 204.525 315.231 202.705 313.172C201.805 312.164 201.163 311.156 200.842 310.384C200.521 309.591 200.457 309.076 200.521 308.476C200.585 307.875 200.842 307.082 201.463 306.138C202.084 305.194 203.026 304.165 204.139 303.157C206.409 301.141 209.321 299.275 212.49 297.667C215.573 295.994 219.17 294.75 222.617 293.42C227.563 291.276 233.751 289.796 240.26 287.866C243.536 286.922 247.069 286.279 250.645 285.442C254.242 284.691 257.903 283.684 261.757 283.083C269.444 281.775 277.409 280.123 285.652 279.03C293.874 277.829 302.246 276.542 310.618 275.598C344.084 271.416 376.993 268.585 396.584 266.591C383.438 267.534 370.141 268.864 356.759 269.936C350.079 270.58 343.398 271.223 336.697 271.888L326.655 272.853L316.634 273.99C289.977 277.014 263.342 280.316 238.633 286.407C241.93 285.356 245.442 284.756 248.846 283.919C252.272 283.169 255.698 282.332 259.166 281.625C266.146 280.402 273.105 279.03 280.149 277.914C287.215 276.885 294.302 275.856 301.389 274.826C308.519 273.968 315.649 273.11 322.801 272.253C329.952 271.416 337.146 270.794 344.319 270.044L355.089 268.993L365.902 268.092L387.527 266.333L409.174 264.832C466.877 260.929 524.495 258.441 580.4 256.489C528.007 258.227 475.463 260.521 423.198 263.61C410.137 264.468 397.098 265.304 384.058 266.162C377.549 266.655 371.04 267.17 364.553 267.663L354.811 268.414L345.09 269.293C338.624 269.893 332.136 270.473 325.691 271.073C319.247 271.781 312.802 272.488 306.378 273.196C299.933 273.818 293.553 274.805 287.151 275.62L277.58 276.906L268.073 278.472L258.567 280.038L249.189 281.968C246.063 282.654 242.915 283.19 239.832 283.962L230.646 286.407C229.126 286.836 227.563 287.179 226.064 287.651L221.632 289.217L217.2 290.782C215.701 291.276 214.245 291.812 212.832 292.455C207.244 294.943 201.741 298.031 198.101 302.299C197.223 303.371 196.517 304.508 196.003 305.666C195.532 306.846 195.296 308.047 195.296 309.269C195.296 311.714 196.517 314.18 198.273 316.411C201.934 320.85 207.223 324.282 212.661 327.134C223.666 332.882 235.678 336.763 247.69 340.173C271.82 346.822 296.443 351.154 320.831 354.821C345.261 358.446 369.563 361.255 393.608 363.721C365.431 361.705 336.247 358.939 306.485 354.542C291.604 352.333 276.595 349.696 261.564 346.264C246.577 342.768 231.46 338.672 217.072 332.302C209.963 329.021 202.812 325.268 197.288 319.478C194.633 316.582 192.406 312.872 192.534 308.797C192.641 304.722 195.061 301.162 197.93 298.503C200.799 295.758 204.225 293.678 207.736 291.855C209.492 290.932 211.312 290.139 213.132 289.367C214.973 288.638 216.879 288.037 218.742 287.372L224.373 285.399C226.236 284.691 228.206 284.327 230.133 283.769C234.008 282.783 237.819 281.646 241.738 280.81C273.019 274.076 305.158 270.73 337.232 267.856C353.269 266.376 369.349 265.368 385.365 264.21C401.402 263.309 417.396 262.216 433.326 261.508C441.291 261.1 449.235 260.714 457.157 260.307C465.079 259.964 472.98 259.642 480.859 259.299C496.618 258.57 512.269 258.055 527.771 257.476C589.821 255.289 649.623 253.83 704.993 253.015C713.386 252.908 722.25 252.801 730.772 252.693C735.033 252.651 739.208 252.608 743.19 252.565C744.197 252.565 745.182 252.543 746.145 252.543H746.423C746.445 252.543 746.509 252.543 746.509 252.543L746.423 252.479L745.867 252.114L744.668 251.342C743.083 250.313 741.542 249.326 740.064 248.361L744.411 251.171L746.488 252.5C746.488 252.543 745.845 252.522 745.46 252.543L744.154 252.565C740.685 252.586 737.217 252.629 733.705 252.651C726.704 252.736 719.659 252.801 712.551 252.886C698.334 253.037 683.902 253.273 669.279 253.551C640.009 254.066 609.969 254.795 579.351 255.632C518.158 257.369 454.737 259.599 391.06 263.267C359.243 265.24 327.319 267.449 295.673 271.073C279.871 272.982 264.091 274.998 248.568 278.172C233.087 281.303 217.457 284.756 203.39 292.562C199.964 294.664 196.624 297.066 194.055 300.455C192.791 302.149 191.742 304.101 191.228 306.267C190.693 308.433 190.779 310.77 191.4 312.894C191.999 315.038 193.07 316.968 194.354 318.62C195.618 320.314 197.052 321.815 198.594 323.145C201.656 325.847 205.017 328.035 208.486 329.986C215.402 333.868 222.681 336.806 229.983 339.401C237.305 341.975 244.692 344.119 252.101 346.05C281.755 353.642 311.389 357.974 340.187 361.405C366.651 364.494 393.244 366.66 419.922 368.247C433.262 369.04 446.622 369.684 460.004 370.198C473.344 370.649 486.683 371.078 500.044 371.528C526.572 372.579 553.165 374.187 579.351 377.318C592.433 378.906 605.451 380.857 617.934 383.667C624.144 385.082 630.246 386.733 635.77 388.771C637.14 389.286 638.468 389.822 639.731 390.379L640.395 390.68L640.587 390.787C640.844 390.937 641.08 391.087 641.251 391.323C641.401 391.58 641.294 391.945 641.058 392.138C640.844 392.331 640.566 392.46 640.33 392.545L640.245 392.567C640.159 392.588 639.945 392.674 639.795 392.76L639.56 392.867L639.089 393.082L638.061 393.51C636.669 394.09 635.235 394.647 633.714 395.162C630.695 396.191 627.591 397.135 624.251 397.928C610.976 401.36 596.716 403.483 582.499 405.285C553.165 408.845 523.104 410.646 492.999 412.019C462.874 413.348 432.641 414.163 402.494 414.978C375.73 415.75 338.431 416.094 305.265 417.681C272.099 419.225 243.044 422.056 232.83 428.146C250.067 428.575 269.123 427.267 285.695 427.996C279.443 429.069 272.249 430.398 264.84 431.127C271.906 431.106 279.743 431.428 286.316 430.741C280.877 431.385 275.31 432.157 273.212 433.358C281.712 433.615 293.724 431.835 300.426 431.085C304.344 430.656 322.308 427.803 327.468 428.232C314.151 430.527 297.278 432.672 286.423 435.417C291.048 435.46 295.608 435.267 300.105 435.481C294.559 436.553 283.682 437.09 280.856 438.505C292.354 438.226 302.503 437.39 314.408 437.304C324.064 437.218 332.757 437.283 341.985 436.532C330.98 437.69 316.142 438.655 308.541 440.671C313.658 441.057 319.032 440.693 324.278 440.371C323.636 440.564 323.272 440.778 323.143 441.014C325.477 440.95 328.56 441.164 330.98 441.057C331.044 441.379 331.579 441.658 331.13 441.979C331.194 441.765 331.215 441.529 331.258 441.315" fill="white"></path>
</g>
<g opacity="0.7">
<path d="M333.357 441.55C345.154 441.722 357.166 440.993 368.428 440.135C392.43 438.312 412.685 442.001 436.109 439.556C465.464 436.489 494.584 438.441 525.159 434.709C532.16 433.873 539.205 432.993 546.249 431.964C549.761 431.471 553.293 430.977 556.826 430.484C560.359 429.926 563.892 429.369 567.425 428.79C581.578 426.581 595.752 423.9 609.862 420.683C613.374 419.804 616.906 419.032 620.418 418.088L630.909 415.086C634.421 413.992 637.89 412.791 641.337 411.375C644.805 409.938 648.017 408.523 651.978 406.1C655.682 403.74 659.108 400.974 661.228 397.349C662.256 395.548 662.919 393.489 662.898 391.366C662.812 389.243 662.084 387.227 660.95 385.468C656.475 378.541 646.518 374.681 640.373 372.429C627.291 367.818 614.059 365.33 600.976 363.271C587.873 361.277 574.833 359.925 561.901 358.896C536.015 356.88 510.471 356.129 485.077 355.894C434.589 355.443 384.551 353.642 333.613 347.808C318.818 346.071 303.573 344.055 288.179 341.524C272.805 338.929 257.218 335.884 242.102 331.638C234.565 329.493 227.114 327.07 220.155 324.089C216.686 322.587 213.346 320.936 210.306 319.113C207.265 317.311 204.525 315.231 202.705 313.172C201.805 312.164 201.163 311.156 200.842 310.384C200.521 309.591 200.457 309.076 200.521 308.476C200.585 307.875 200.842 307.082 201.463 306.138C202.084 305.194 203.026 304.165 204.139 303.157C206.409 301.141 209.321 299.275 212.49 297.667C215.573 295.994 219.17 294.75 222.617 293.42C227.563 291.276 233.751 289.796 240.26 287.866C243.536 286.922 247.069 286.279 250.645 285.442C254.242 284.691 257.903 283.684 261.757 283.083C269.444 281.775 277.409 280.123 285.652 279.03C293.874 277.829 302.246 276.542 310.618 275.598C344.084 271.416 376.993 268.585 396.584 266.591C383.438 267.534 370.141 268.864 356.759 269.936C350.079 270.58 343.398 271.223 336.697 271.888L326.655 272.853L316.634 273.99C289.977 277.014 263.342 280.316 238.633 286.407C241.93 285.356 245.442 284.756 248.846 283.919C252.272 283.169 255.698 282.332 259.166 281.625C266.146 280.402 273.105 279.03 280.149 277.914C287.215 276.885 294.302 275.856 301.389 274.826C308.519 273.968 315.649 273.11 322.801 272.253C329.952 271.416 337.146 270.794 344.319 270.044L355.089 268.993L365.902 268.092L387.527 266.333L409.174 264.832C466.877 260.929 524.495 258.441 580.4 256.489C528.007 258.227 475.463 260.521 423.198 263.61C410.137 264.468 397.098 265.304 384.058 266.162C377.549 266.655 371.04 267.17 364.553 267.663L354.811 268.414L345.09 269.293C338.624 269.893 332.136 270.473 325.691 271.073C319.247 271.781 312.802 272.488 306.378 273.196C299.933 273.818 293.553 274.805 287.151 275.62L277.58 276.906L268.073 278.472L258.567 280.038L249.189 281.968C246.063 282.654 242.915 283.19 239.832 283.962L230.646 286.407C229.126 286.836 227.563 287.179 226.064 287.651L221.632 289.217L217.2 290.782C215.701 291.276 214.245 291.812 212.832 292.455C207.244 294.943 201.741 298.031 198.101 302.299C197.223 303.371 196.517 304.508 196.003 305.666C195.532 306.846 195.296 308.047 195.296 309.269C195.296 311.714 196.517 314.18 198.273 316.411C201.934 320.85 207.223 324.282 212.661 327.134C223.666 332.882 235.678 336.763 247.69 340.173C271.82 346.822 296.443 351.154 320.831 354.821C345.261 358.446 369.563 361.255 393.608 363.721C365.431 361.705 336.247 358.939 306.485 354.542C291.604 352.333 276.595 349.696 261.564 346.264C246.577 342.768 231.46 338.672 217.072 332.302C209.963 329.021 202.812 325.268 197.288 319.478C194.633 316.582 192.406 312.872 192.534 308.797C192.641 304.722 195.061 301.162 197.93 298.503C200.799 295.758 204.225 293.678 207.736 291.855C209.492 290.932 211.312 290.139 213.132 289.367C214.973 288.638 216.879 288.037 218.742 287.372L224.373 285.399C226.236 284.691 228.206 284.327 230.133 283.769C234.008 282.783 237.819 281.646 241.738 280.81C273.019 274.076 305.158 270.73 337.232 267.856C353.269 266.376 369.349 265.368 385.365 264.21C401.402 263.309 417.396 262.216 433.326 261.508C441.291 261.1 449.235 260.714 457.157 260.307C465.079 259.964 472.98 259.642 480.859 259.299C496.618 258.57 512.269 258.055 527.771 257.476C589.821 255.289 649.623 253.83 704.993 253.015C713.386 252.908 722.25 252.801 730.772 252.693C735.033 252.651 739.208 252.608 743.19 252.565C744.197 252.565 745.182 252.543 746.145 252.543H746.423C746.445 252.543 746.509 252.543 746.509 252.543L746.423 252.479L745.867 252.114L744.668 251.342C743.083 250.313 741.542 249.326 740.064 248.361L744.411 251.171L746.488 252.5C746.488 252.543 745.845 252.522 745.46 252.543L744.154 252.565C740.685 252.586 737.217 252.629 733.705 252.651C726.704 252.736 719.659 252.801 712.551 252.886C698.334 253.037 683.902 253.273 669.279 253.551C640.009 254.066 609.969 254.795 579.351 255.632C518.158 257.369 454.737 259.599 391.06 263.267C359.243 265.24 327.319 267.449 295.673 271.073C279.871 272.982 264.091 274.998 248.568 278.172C233.087 281.303 217.457 284.756 203.39 292.562C199.964 294.664 196.624 297.066 194.055 300.455C192.791 302.149 191.742 304.101 191.228 306.267C190.693 308.433 190.779 310.77 191.4 312.894C191.999 315.038 193.07 316.968 194.354 318.62C195.618 320.314 197.052 321.815 198.594 323.145C201.656 325.847 205.017 328.035 208.486 329.986C215.402 333.868 222.681 336.806 229.983 339.401C237.305 341.975 244.692 344.119 252.101 346.05C281.755 353.642 311.389 357.974 340.187 361.405C366.651 364.494 393.244 366.66 419.922 368.247C433.262 369.04 446.622 369.684 460.004 370.198C473.344 370.649 486.683 371.078 500.044 371.528C526.572 372.579 553.165 374.187 579.351 377.318C592.433 378.906 605.451 380.857 617.934 383.667C624.144 385.082 630.246 386.733 635.77 388.771C637.14 389.286 638.468 389.822 639.731 390.379L640.395 390.68L640.587 390.787C640.844 390.937 641.08 391.087 641.251 391.323C641.401 391.58 641.294 391.945 641.058 392.138C640.844 392.331 640.566 392.46 640.33 392.545L640.245 392.567C640.159 392.588 639.945 392.674 639.795 392.76L639.56 392.867L639.089 393.082L638.061 393.51C636.669 394.09 635.235 394.647 633.714 395.162C630.695 396.191 627.591 397.135 624.251 397.928C610.976 401.36 596.716 403.483 582.499 405.285C553.165 408.845 523.104 410.646 492.999 412.019C462.874 413.348 432.641 414.163 402.494 414.978C375.73 415.75 338.431 416.094 305.265 417.681C272.099 419.225 243.044 422.056 232.83 428.146C250.067 428.575 269.123 427.267 285.695 427.996C279.443 429.069 272.249 430.398 264.84 431.127C271.906 431.106 279.743 431.428 286.316 430.741C280.877 431.385 275.31 432.157 273.212 433.358C281.712 433.615 293.724 431.835 300.426 431.085C304.344 430.656 322.308 427.803 327.468 428.232C314.151 430.527 297.278 432.672 286.423 435.417C291.048 435.46 295.608 435.267 300.105 435.481C294.559 436.553 283.682 437.09 280.856 438.505C292.354 438.226 302.503 437.39 314.408 437.304C324.064 437.218 332.757 437.283 341.985 436.532C330.98 437.69 316.142 438.655 308.541 440.671C313.658 441.057 319.032 440.693 324.278 440.371C323.636 440.564 323.272 440.778 323.143 441.014C325.477 440.95 328.56 441.164 330.98 441.057C331.044 441.379 331.579 441.658 331.13 441.979C331.194 441.765 331.215 441.529 331.258 441.315" fill="white"></path>
</g>
<g opacity="0.7">
<path d="M333.357 441.55C345.154 441.722 357.166 440.993 368.428 440.135C392.43 438.312 412.685 442.001 436.109 439.556C465.464 436.489 494.584 438.441 525.159 434.709C532.16 433.873 539.205 432.993 546.249 431.964C549.761 431.471 553.293 430.977 556.826 430.484C560.359 429.926 563.892 429.369 567.425 428.79C581.578 426.581 595.752 423.9 609.862 420.683C613.374 419.804 616.906 419.032 620.418 418.088L630.909 415.086C634.421 413.992 637.89 412.791 641.337 411.375C644.805 409.938 648.017 408.523 651.978 406.1C655.682 403.74 659.108 400.974 661.228 397.349C662.256 395.548 662.919 393.489 662.898 391.366C662.812 389.243 662.084 387.227 660.95 385.468C656.475 378.541 646.518 374.681 640.373 372.429C627.291 367.818 614.059 365.33 600.976 363.271C587.873 361.277 574.833 359.925 561.901 358.896C536.015 356.88 510.471 356.129 485.077 355.894C434.589 355.443 384.551 353.642 333.613 347.808C318.818 346.071 303.573 344.055 288.179 341.524C272.805 338.929 257.218 335.884 242.102 331.638C234.565 329.493 227.114 327.07 220.155 324.089C216.686 322.587 213.346 320.936 210.306 319.113C207.265 317.311 204.525 315.231 202.705 313.172C201.805 312.164 201.163 311.156 200.842 310.384C200.521 309.591 200.457 309.076 200.521 308.476C200.585 307.875 200.842 307.082 201.463 306.138C202.084 305.194 203.026 304.165 204.139 303.157C206.409 301.141 209.321 299.275 212.49 297.667C215.573 295.994 219.17 294.75 222.617 293.42C227.563 291.276 233.751 289.796 240.26 287.866C243.536 286.922 247.069 286.279 250.645 285.442C254.242 284.691 257.903 283.684 261.757 283.083C269.444 281.775 277.409 280.123 285.652 279.03C293.874 277.829 302.246 276.542 310.618 275.598C344.084 271.416 376.993 268.585 396.584 266.591C383.438 267.534 370.141 268.864 356.759 269.936C350.079 270.58 343.398 271.223 336.697 271.888L326.655 272.853L316.634 273.99C289.977 277.014 263.342 280.316 238.633 286.407C241.93 285.356 245.442 284.756 248.846 283.919C252.272 283.169 255.698 282.332 259.166 281.625C266.146 280.402 273.105 279.03 280.149 277.914C287.215 276.885 294.302 275.856 301.389 274.826C308.519 273.968 315.649 273.11 322.801 272.253C329.952 271.416 337.146 270.794 344.319 270.044L355.089 268.993L365.902 268.092L387.527 266.333L409.174 264.832C466.877 260.929 524.495 258.441 580.4 256.489C528.007 258.227 475.463 260.521 423.198 263.61C410.137 264.468 397.098 265.304 384.058 266.162C377.549 266.655 371.04 267.17 364.553 267.663L354.811 268.414L345.09 269.293C338.624 269.893 332.136 270.473 325.691 271.073C319.247 271.781 312.802 272.488 306.378 273.196C299.933 273.818 293.553 274.805 287.151 275.62L277.58 276.906L268.073 278.472L258.567 280.038L249.189 281.968C246.063 282.654 242.915 283.19 239.832 283.962L230.646 286.407C229.126 286.836 227.563 287.179 226.064 287.651L221.632 289.217L217.2 290.782C215.701 291.276 214.245 291.812 212.832 292.455C207.244 294.943 201.741 298.031 198.101 302.299C197.223 303.371 196.517 304.508 196.003 305.666C195.532 306.846 195.296 308.047 195.296 309.269C195.296 311.714 196.517 314.18 198.273 316.411C201.934 320.85 207.223 324.282 212.661 327.134C223.666 332.882 235.678 336.763 247.69 340.173C271.82 346.822 296.443 351.154 320.831 354.821C345.261 358.446 369.563 361.255 393.608 363.721C365.431 361.705 336.247 358.939 306.485 354.542C291.604 352.333 276.595 349.696 261.564 346.264C246.577 342.768 231.46 338.672 217.072 332.302C209.963 329.021 202.812 325.268 197.288 319.478C194.633 316.582 192.406 312.872 192.534 308.797C192.641 304.722 195.061 301.162 197.93 298.503C200.799 295.758 204.225 293.678 207.736 291.855C209.492 290.932 211.312 290.139 213.132 289.367C214.973 288.638 216.879 288.037 218.742 287.372L224.373 285.399C226.236 284.691 228.206 284.327 230.133 283.769C234.008 282.783 237.819 281.646 241.738 280.81C273.019 274.076 305.158 270.73 337.232 267.856C353.269 266.376 369.349 265.368 385.365 264.21C401.402 263.309 417.396 262.216 433.326 261.508C441.291 261.1 449.235 260.714 457.157 260.307C465.079 259.964 472.98 259.642 480.859 259.299C496.618 258.57 512.269 258.055 527.771 257.476C589.821 255.289 649.623 253.83 704.993 253.015C713.386 252.908 722.25 252.801 730.772 252.693C735.033 252.651 739.208 252.608 743.19 252.565C744.197 252.565 745.182 252.543 746.145 252.543H746.423C746.445 252.543 746.509 252.543 746.509 252.543L746.423 252.479L745.867 252.114L744.668 251.342C743.083 250.313 741.542 249.326 740.064 248.361L744.411 251.171L746.488 252.5C746.488 252.543 745.845 252.522 745.46 252.543L744.154 252.565C740.685 252.586 737.217 252.629 733.705 252.651C726.704 252.736 719.659 252.801 712.551 252.886C698.334 253.037 683.902 253.273 669.279 253.551C640.009 254.066 609.969 254.795 579.351 255.632C518.158 257.369 454.737 259.599 391.06 263.267C359.243 265.24 327.319 267.449 295.673 271.073C279.871 272.982 264.091 274.998 248.568 278.172C233.087 281.303 217.457 284.756 203.39 292.562C199.964 294.664 196.624 297.066 194.055 300.455C192.791 302.149 191.742 304.101 191.228 306.267C190.693 308.433 190.779 310.77 191.4 312.894C191.999 315.038 193.07 316.968 194.354 318.62C195.618 320.314 197.052 321.815 198.594 323.145C201.656 325.847 205.017 328.035 208.486 329.986C215.402 333.868 222.681 336.806 229.983 339.401C237.305 341.975 244.692 344.119 252.101 346.05C281.755 353.642 311.389 357.974 340.187 361.405C366.651 364.494 393.244 366.66 419.922 368.247C433.262 369.04 446.622 369.684 460.004 370.198C473.344 370.649 486.683 371.078 500.044 371.528C526.572 372.579 553.165 374.187 579.351 377.318C592.433 378.906 605.451 380.857 617.934 383.667C624.144 385.082 630.246 386.733 635.77 388.771C637.14 389.286 638.468 389.822 639.731 390.379L640.395 390.68L640.587 390.787C640.844 390.937 641.08 391.087 641.251 391.323C641.401 391.58 641.294 391.945 641.058 392.138C640.844 392.331 640.566 392.46 640.33 392.545L640.245 392.567C640.159 392.588 639.945 392.674 639.795 392.76L639.56 392.867L639.089 393.082L638.061 393.51C636.669 394.09 635.235 394.647 633.714 395.162C630.695 396.191 627.591 397.135 624.251 397.928C610.976 401.36 596.716 403.483 582.499 405.285C553.165 408.845 523.104 410.646 492.999 412.019C462.874 413.348 432.641 414.163 402.494 414.978C375.73 415.75 338.431 416.094 305.265 417.681C272.099 419.225 243.044 422.056 232.83 428.146C250.067 428.575 269.123 427.267 285.695 427.996C279.443 429.069 272.249 430.398 264.84 431.127C271.906 431.106 279.743 431.428 286.316 430.741C280.877 431.385 275.31 432.157 273.212 433.358C281.712 433.615 293.724 431.835 300.426 431.085C304.344 430.656 322.308 427.803 327.468 428.232C314.151 430.527 297.278 432.672 286.423 435.417C291.048 435.46 295.608 435.267 300.105 435.481C294.559 436.553 283.682 437.09 280.856 438.505C292.354 438.226 302.503 437.39 314.408 437.304C324.064 437.218 332.757 437.283 341.985 436.532C330.98 437.69 316.142 438.655 308.541 440.671C313.658 441.057 319.032 440.693 324.278 440.371C323.636 440.564 323.272 440.778 323.143 441.014C325.477 440.95 328.56 441.164 330.98 441.057C331.044 441.379 331.579 441.658 331.13 441.979C331.194 441.765 331.215 441.529 331.258 441.315" fill="#856F47"></path>
</g>
<path d="M260.915 342.834C242.48 281.926 243.101 214.349 262.671 153.87C271.985 186.383 281.32 219.153 284.575 253.017C287.787 286.902 284.532 322.374 260.915 342.834Z" fill="#074F27" stroke="black" stroke-width="0.2" stroke-miterlimit="10"></path>
<path d="M409.831 499.886C414.991 509.494 409.36 519.424 397.84 523.198C366.73 533.385 318.169 518.523 300.547 489.335C289.435 470.912 279.158 473.4 263.784 479.233C226.422 493.388 189.83 490.793 156.064 466.666C136.194 452.447 124.332 431.944 120.05 406.23C119.258 401.533 117.652 396.986 122.127 393.984C128.015 389.995 130.328 395.678 133.582 399.453C143.624 411.162 148.87 426.775 162.316 436.019C204.71 465.143 244.514 451.696 283.718 428.598C299.969 419.012 305.708 419.87 311.446 438.335C317.762 458.666 327.483 476.188 343.97 488.134C363.711 502.46 384.523 512.561 409.831 499.886Z" fill="#784C19"></path>
<path d="M402.402 434.389C377.822 347.209 380.863 251.215 410.903 165.987C423.236 212.505 435.654 259.386 439.23 307.619C442.806 355.874 436.982 406.144 402.402 434.389Z" fill="#074F27" stroke="black" stroke-width="0.2" stroke-miterlimit="10"></path>
<path d="M653.739 620.585C651.17 591.332 649.757 563.623 653.118 536.472C655.666 515.841 646.973 508.142 631.857 502.137C598.113 488.733 563.276 484.958 527.712 486.03C516.321 486.374 504.909 486.159 493.518 485.752C488.058 485.559 481.978 484.551 481.078 477.152C480.029 468.53 486.859 469.538 491.805 467.565C508.506 460.938 525.764 459.673 543.193 460.38C552.571 460.766 557.859 457.013 563.276 448.049C578.114 423.45 583.981 395.848 589.527 367.925C590.383 363.657 589.013 358.596 594.815 355.1C614.899 390.101 597.342 423.085 589.57 457.635C633.484 471.79 636.31 422.206 661.297 404.041C668.749 428.876 653.439 445.861 647.294 466.643C675.258 474.128 698.253 462.16 720.971 449.85C744.673 437.004 758.376 412.448 774.713 390.229C785.59 399.065 781.693 407.708 777.925 415.622C763.387 446.119 739.834 466.9 711.079 477.58C687.055 486.502 674.208 499.499 673.266 528.022C672.11 563.302 670.119 598.088 675.836 633.474C680.032 659.553 683.158 685.932 687.419 712.097C689.774 726.616 676.093 738.025 653.589 745.51C617.126 757.649 580.684 770.045 542.722 774.913C517.478 778.152 492.02 780.318 466.497 778.087C462.322 777.723 458.104 777.422 453.929 777.551C407.017 779.095 360.897 771.868 314.862 763.075C307.24 761.616 299.339 762.088 291.567 761.381C285.229 760.802 277.842 761.917 276.108 752.03C279.341 743.773 285.572 745.575 291.46 746.282C363.873 755.032 436.564 751.429 509.063 749.971C536.855 749.414 566.188 747.012 591.497 732.685C593.081 727.045 590.726 723.742 587.985 723.785C568.051 724 549.745 714.177 529.639 714.134C482.856 714.07 436.093 711.217 389.31 711.217C346.765 711.217 303.814 709.931 261.848 715.979C234.741 719.882 205.815 718.466 180.164 733.994C166.975 741.993 154.642 732.106 158.324 716.129C168.773 670.684 164.405 625.217 161.729 579.622C161.172 569.993 161.579 569.972 169.33 555.731C183.718 603.063 177.959 652.047 190.42 699.915C218.083 690.35 246.218 690.243 273.239 682.694C276.129 681.879 279.041 680.785 281.996 680.613C346.594 676.86 411.213 666.738 475.854 673.214C529.746 678.619 584.045 682.973 636.76 697.792C652.412 702.189 654.788 694.79 654.617 681.321C654.339 661.676 654.189 642.031 653.739 620.585Z" fill="#764C1C"></path>
</g>
<defs>
<clipPath id="clip0_44_30">
<rect width="824" height="824" fill="white"></rect>
</clipPath>
</defs>
</svg></svg></g></g></svg></g><g id="dark-icon"><svg xmlns="http://www.w3.org/2000/svg" version="1.1" xmlns:xlink="http://www.w3.org/1999/xlink" width="1000" height="1000"><g clip-path="url(#SvgjsClipPath1037)"><rect width="1000" height="1000" fill="#ffffff"></rect><g transform="matrix(0.970873786407767,0,0,0.970873786407767,100,100)"><svg xmlns="http://www.w3.org/2000/svg" version="1.1" xmlns:xlink="http://www.w3.org/1999/xlink" width="824" height="824"><svg width="824" height="824" viewBox="0 0 824 824" fill="none" xmlns="http://www.w3.org/2000/svg">
<g clip-path="url(#clip0_44_30)">
<path d="M111.387 213.533C36.5974 309.077 61.9056 391.624 141.813 467.116C114.749 472.499 62.655 424.158 49.4014 388.922C17.6056 304.445 47.0247 227.323 98.8615 187.326C128.687 164.314 168.405 159.51 182.366 175.616C157.636 185.76 132.049 192.923 111.387 213.533Z" fill="#784C16"></path>
<path d="M632.941 186.939C632.428 143.575 611.059 116.252 561.984 96.5429C576.201 81.7234 591.96 88.8222 603.608 93.7334C635.275 107.052 655.98 133.388 663.817 169.868C666.493 182.286 670.368 185.438 682.744 186.339C747.535 191.079 800.421 233.735 793.548 316.969C793.055 322.888 792.777 329.944 785.711 330.223C777.061 330.544 777.725 322.438 777.125 316.047C772.5 265.09 741.433 232.663 693.921 226.186C678.697 224.106 664.652 218.68 648.979 225.886C641.163 229.489 633.905 222.948 633.241 212.311C632.77 204.483 633.027 196.612 632.941 186.939Z" fill="#784C16"></path>
<path d="M318.538 93.67C281.497 103.299 254.647 129.528 226.748 153.656C218.74 140.723 226.084 132.788 230.452 126.311C258.951 83.9547 297.47 61.2001 344.981 50.2195C376.242 42.9921 405.511 44.5792 435.166 52.0425C462.701 58.9697 487.859 72.3093 506.358 97.0799C509.613 101.455 509.42 101.627 509.955 113.808C491.37 110.162 477.967 94.635 459.446 90.5173C431.119 84.2121 403.027 80.6091 374.315 83.0325C355.922 84.5981 337.744 87.858 318.538 93.67Z" fill="#784C19"></path>
<path d="M504.409 259.257C494.453 226.466 496.573 190.479 510.34 158.609C515.329 176.088 520.318 193.717 521.474 211.839C522.609 229.94 519.676 248.791 504.409 259.257Z" fill="#074F27" stroke="black" stroke-width="0.2" stroke-miterlimit="10"></path>
<g opacity="0.7">
<path d="M333.357 441.55C345.154 441.722 357.166 440.993 368.428 440.135C392.43 438.312 412.685 442.001 436.109 439.556C465.464 436.489 494.584 438.441 525.159 434.709C532.16 433.873 539.205 432.993 546.249 431.964C549.761 431.471 553.293 430.977 556.826 430.484C560.359 429.926 563.892 429.369 567.425 428.79C581.578 426.581 595.752 423.9 609.862 420.683C613.374 419.804 616.906 419.032 620.418 418.088L630.909 415.086C634.421 413.992 637.89 412.791 641.337 411.375C644.805 409.938 648.017 408.523 651.978 406.1C655.682 403.74 659.108 400.974 661.228 397.349C662.256 395.548 662.919 393.489 662.898 391.366C662.812 389.243 662.084 387.227 660.95 385.468C656.475 378.541 646.518 374.681 640.373 372.429C627.291 367.818 614.059 365.33 600.976 363.271C587.873 361.277 574.833 359.925 561.901 358.896C536.015 356.88 510.471 356.129 485.077 355.894C434.589 355.443 384.551 353.642 333.613 347.808C318.818 346.071 303.573 344.055 288.179 341.524C272.805 338.929 257.218 335.884 242.102 331.638C234.565 329.493 227.114 327.07 220.155 324.089C216.686 322.587 213.346 320.936 210.306 319.113C207.265 317.311 204.525 315.231 202.705 313.172C201.805 312.164 201.163 311.156 200.842 310.384C200.521 309.591 200.457 309.076 200.521 308.476C200.585 307.875 200.842 307.082 201.463 306.138C202.084 305.194 203.026 304.165 204.139 303.157C206.409 301.141 209.321 299.275 212.49 297.667C215.573 295.994 219.17 294.75 222.617 293.42C227.563 291.276 233.751 289.796 240.26 287.866C243.536 286.922 247.069 286.279 250.645 285.442C254.242 284.691 257.903 283.684 261.757 283.083C269.444 281.775 277.409 280.123 285.652 279.03C293.874 277.829 302.246 276.542 310.618 275.598C344.084 271.416 376.993 268.585 396.584 266.591C383.438 267.534 370.141 268.864 356.759 269.936C350.079 270.58 343.398 271.223 336.697 271.888L326.655 272.853L316.634 273.99C289.977 277.014 263.342 280.316 238.633 286.407C241.93 285.356 245.442 284.756 248.846 283.919C252.272 283.169 255.698 282.332 259.166 281.625C266.146 280.402 273.105 279.03 280.149 277.914C287.215 276.885 294.302 275.856 301.389 274.826C308.519 273.968 315.649 273.11 322.801 272.253C329.952 271.416 337.146 270.794 344.319 270.044L355.089 268.993L365.902 268.092L387.527 266.333L409.174 264.832C466.877 260.929 524.495 258.441 580.4 256.489C528.007 258.227 475.463 260.521 423.198 263.61C410.137 264.468 397.098 265.304 384.058 266.162C377.549 266.655 371.04 267.17 364.553 267.663L354.811 268.414L345.09 269.293C338.624 269.893 332.136 270.473 325.691 271.073C319.247 271.781 312.802 272.488 306.378 273.196C299.933 273.818 293.553 274.805 287.151 275.62L277.58 276.906L268.073 278.472L258.567 280.038L249.189 281.968C246.063 282.654 242.915 283.19 239.832 283.962L230.646 286.407C229.126 286.836 227.563 287.179 226.064 287.651L221.632 289.217L217.2 290.782C215.701 291.276 214.245 291.812 212.832 292.455C207.244 294.943 201.741 298.031 198.101 302.299C197.223 303.371 196.517 304.508 196.003 305.666C195.532 306.846 195.296 308.047 195.296 309.269C195.296 311.714 196.517 314.18 198.273 316.411C201.934 320.85 207.223 324.282 212.661 327.134C223.666 332.882 235.678 336.763 247.69 340.173C271.82 346.822 296.443 351.154 320.831 354.821C345.261 358.446 369.563 361.255 393.608 363.721C365.431 361.705 336.247 358.939 306.485 354.542C291.604 352.333 276.595 349.696 261.564 346.264C246.577 342.768 231.46 338.672 217.072 332.302C209.963 329.021 202.812 325.268 197.288 319.478C194.633 316.582 192.406 312.872 192.534 308.797C192.641 304.722 195.061 301.162 197.93 298.503C200.799 295.758 204.225 293.678 207.736 291.855C209.492 290.932 211.312 290.139 213.132 289.367C214.973 288.638 216.879 288.037 218.742 287.372L224.373 285.399C226.236 284.691 228.206 284.327 230.133 283.769C234.008 282.783 237.819 281.646 241.738 280.81C273.019 274.076 305.158 270.73 337.232 267.856C353.269 266.376 369.349 265.368 385.365 264.21C401.402 263.309 417.396 262.216 433.326 261.508C441.291 261.1 449.235 260.714 457.157 260.307C465.079 259.964 472.98 259.642 480.859 259.299C496.618 258.57 512.269 258.055 527.771 257.476C589.821 255.289 649.623 253.83 704.993 253.015C713.386 252.908 722.25 252.801 730.772 252.693C735.033 252.651 739.208 252.608 743.19 252.565C744.197 252.565 745.182 252.543 746.145 252.543H746.423C746.445 252.543 746.509 252.543 746.509 252.543L746.423 252.479L745.867 252.114L744.668 251.342C743.083 250.313 741.542 249.326 740.064 248.361L744.411 251.171L746.488 252.5C746.488 252.543 745.845 252.522 745.46 252.543L744.154 252.565C740.685 252.586 737.217 252.629 733.705 252.651C726.704 252.736 719.659 252.801 712.551 252.886C698.334 253.037 683.902 253.273 669.279 253.551C640.009 254.066 609.969 254.795 579.351 255.632C518.158 257.369 454.737 259.599 391.06 263.267C359.243 265.24 327.319 267.449 295.673 271.073C279.871 272.982 264.091 274.998 248.568 278.172C233.087 281.303 217.457 284.756 203.39 292.562C199.964 294.664 196.624 297.066 194.055 300.455C192.791 302.149 191.742 304.101 191.228 306.267C190.693 308.433 190.779 310.77 191.4 312.894C191.999 315.038 193.07 316.968 194.354 318.62C195.618 320.314 197.052 321.815 198.594 323.145C201.656 325.847 205.017 328.035 208.486 329.986C215.402 333.868 222.681 336.806 229.983 339.401C237.305 341.975 244.692 344.119 252.101 346.05C281.755 353.642 311.389 357.974 340.187 361.405C366.651 364.494 393.244 366.66 419.922 368.247C433.262 369.04 446.622 369.684 460.004 370.198C473.344 370.649 486.683 371.078 500.044 371.528C526.572 372.579 553.165 374.187 579.351 377.318C592.433 378.906 605.451 380.857 617.934 383.667C624.144 385.082 630.246 386.733 635.77 388.771C637.14 389.286 638.468 389.822 639.731 390.379L640.395 390.68L640.587 390.787C640.844 390.937 641.08 391.087 641.251 391.323C641.401 391.58 641.294 391.945 641.058 392.138C640.844 392.331 640.566 392.46 640.33 392.545L640.245 392.567C640.159 392.588 639.945 392.674 639.795 392.76L639.56 392.867L639.089 393.082L638.061 393.51C636.669 394.09 635.235 394.647 633.714 395.162C630.695 396.191 627.591 397.135 624.251 397.928C610.976 401.36 596.716 403.483 582.499 405.285C553.165 408.845 523.104 410.646 492.999 412.019C462.874 413.348 432.641 414.163 402.494 414.978C375.73 415.75 338.431 416.094 305.265 417.681C272.099 419.225 243.044 422.056 232.83 428.146C250.067 428.575 269.123 427.267 285.695 427.996C279.443 429.069 272.249 430.398 264.84 431.127C271.906 431.106 279.743 431.428 286.316 430.741C280.877 431.385 275.31 432.157 273.212 433.358C281.712 433.615 293.724 431.835 300.426 431.085C304.344 430.656 322.308 427.803 327.468 428.232C314.151 430.527 297.278 432.672 286.423 435.417C291.048 435.46 295.608 435.267 300.105 435.481C294.559 436.553 283.682 437.09 280.856 438.505C292.354 438.226 302.503 437.39 314.408 437.304C324.064 437.218 332.757 437.283 341.985 436.532C330.98 437.69 316.142 438.655 308.541 440.671C313.658 441.057 319.032 440.693 324.278 440.371C323.636 440.564 323.272 440.778 323.143 441.014C325.477 440.95 328.56 441.164 330.98 441.057C331.044 441.379 331.579 441.658 331.13 441.979C331.194 441.765 331.215 441.529 331.258 441.315" fill="white"></path>
</g>
<g opacity="0.7">
<path d="M333.357 441.55C345.154 441.722 357.166 440.993 368.428 440.135C392.43 438.312 412.685 442.001 436.109 439.556C465.464 436.489 494.584 438.441 525.159 434.709C532.16 433.873 539.205 432.993 546.249 431.964C549.761 431.471 553.293 430.977 556.826 430.484C560.359 429.926 563.892 429.369 567.425 428.79C581.578 426.581 595.752 423.9 609.862 420.683C613.374 419.804 616.906 419.032 620.418 418.088L630.909 415.086C634.421 413.992 637.89 412.791 641.337 411.375C644.805 409.938 648.017 408.523 651.978 406.1C655.682 403.74 659.108 400.974 661.228 397.349C662.256 395.548 662.919 393.489 662.898 391.366C662.812 389.243 662.084 387.227 660.95 385.468C656.475 378.541 646.518 374.681 640.373 372.429C627.291 367.818 614.059 365.33 600.976 363.271C587.873 361.277 574.833 359.925 561.901 358.896C536.015 356.88 510.471 356.129 485.077 355.894C434.589 355.443 384.551 353.642 333.613 347.808C318.818 346.071 303.573 344.055 288.179 341.524C272.805 338.929 257.218 335.884 242.102 331.638C234.565 329.493 227.114 327.07 220.155 324.089C216.686 322.587 213.346 320.936 210.306 319.113C207.265 317.311 204.525 315.231 202.705 313.172C201.805 312.164 201.163 311.156 200.842 310.384C200.521 309.591 200.457 309.076 200.521 308.476C200.585 307.875 200.842 307.082 201.463 306.138C202.084 305.194 203.026 304.165 204.139 303.157C206.409 301.141 209.321 299.275 212.49 297.667C215.573 295.994 219.17 294.75 222.617 293.42C227.563 291.276 233.751 289.796 240.26 287.866C243.536 286.922 247.069 286.279 250.645 285.442C254.242 284.691 257.903 283.684 261.757 283.083C269.444 281.775 277.409 280.123 285.652 279.03C293.874 277.829 302.246 276.542 310.618 275.598C344.084 271.416 376.993 268.585 396.584 266.591C383.438 267.534 370.141 268.864 356.759 269.936C350.079 270.58 343.398 271.223 336.697 271.888L326.655 272.853L316.634 273.99C289.977 277.014 263.342 280.316 238.633 286.407C241.93 285.356 245.442 284.756 248.846 283.919C252.272 283.169 255.698 282.332 259.166 281.625C266.146 280.402 273.105 279.03 280.149 277.914C287.215 276.885 294.302 275.856 301.389 274.826C308.519 273.968 315.649 273.11 322.801 272.253C329.952 271.416 337.146 270.794 344.319 270.044L355.089 268.993L365.902 268.092L387.527 266.333L409.174 264.832C466.877 260.929 524.495 258.441 580.4 256.489C528.007 258.227 475.463 260.521 423.198 263.61C410.137 264.468 397.098 265.304 384.058 266.162C377.549 266.655 371.04 267.17 364.553 267.663L354.811 268.414L345.09 269.293C338.624 269.893 332.136 270.473 325.691 271.073C319.247 271.781 312.802 272.488 306.378 273.196C299.933 273.818 293.553 274.805 287.151 275.62L277.58 276.906L268.073 278.472L258.567 280.038L249.189 281.968C246.063 282.654 242.915 283.19 239.832 283.962L230.646 286.407C229.126 286.836 227.563 287.179 226.064 287.651L221.632 289.217L217.2 290.782C215.701 291.276 214.245 291.812 212.832 292.455C207.244 294.943 201.741 298.031 198.101 302.299C197.223 303.371 196.517 304.508 196.003 305.666C195.532 306.846 195.296 308.047 195.296 309.269C195.296 311.714 196.517 314.18 198.273 316.411C201.934 320.85 207.223 324.282 212.661 327.134C223.666 332.882 235.678 336.763 247.69 340.173C271.82 346.822 296.443 351.154 320.831 354.821C345.261 358.446 369.563 361.255 393.608 363.721C365.431 361.705 336.247 358.939 306.485 354.542C291.604 352.333 276.595 349.696 261.564 346.264C246.577 342.768 231.46 338.672 217.072 332.302C209.963 329.021 202.812 325.268 197.288 319.478C194.633 316.582 192.406 312.872 192.534 308.797C192.641 304.722 195.061 301.162 197.93 298.503C200.799 295.758 204.225 293.678 207.736 291.855C209.492 290.932 211.312 290.139 213.132 289.367C214.973 288.638 216.879 288.037 218.742 287.372L224.373 285.399C226.236 284.691 228.206 284.327 230.133 283.769C234.008 282.783 237.819 281.646 241.738 280.81C273.019 274.076 305.158 270.73 337.232 267.856C353.269 266.376 369.349 265.368 385.365 264.21C401.402 263.309 417.396 262.216 433.326 261.508C441.291 261.1 449.235 260.714 457.157 260.307C465.079 259.964 472.98 259.642 480.859 259.299C496.618 258.57 512.269 258.055 527.771 257.476C589.821 255.289 649.623 253.83 704.993 253.015C713.386 252.908 722.25 252.801 730.772 252.693C735.033 252.651 739.208 252.608 743.19 252.565C744.197 252.565 745.182 252.543 746.145 252.543H746.423C746.445 252.543 746.509 252.543 746.509 252.543L746.423 252.479L745.867 252.114L744.668 251.342C743.083 250.313 741.542 249.326 740.064 248.361L744.411 251.171L746.488 252.5C746.488 252.543 745.845 252.522 745.46 252.543L744.154 252.565C740.685 252.586 737.217 252.629 733.705 252.651C726.704 252.736 719.659 252.801 712.551 252.886C698.334 253.037 683.902 253.273 669.279 253.551C640.009 254.066 609.969 254.795 579.351 255.632C518.158 257.369 454.737 259.599 391.06 263.267C359.243 265.24 327.319 267.449 295.673 271.073C279.871 272.982 264.091 274.998 248.568 278.172C233.087 281.303 217.457 284.756 203.39 292.562C199.964 294.664 196.624 297.066 194.055 300.455C192.791 302.149 191.742 304.101 191.228 306.267C190.693 308.433 190.779 310.77 191.4 312.894C191.999 315.038 193.07 316.968 194.354 318.62C195.618 320.314 197.052 321.815 198.594 323.145C201.656 325.847 205.017 328.035 208.486 329.986C215.402 333.868 222.681 336.806 229.983 339.401C237.305 341.975 244.692 344.119 252.101 346.05C281.755 353.642 311.389 357.974 340.187 361.405C366.651 364.494 393.244 366.66 419.922 368.247C433.262 369.04 446.622 369.684 460.004 370.198C473.344 370.649 486.683 371.078 500.044 371.528C526.572 372.579 553.165 374.187 579.351 377.318C592.433 378.906 605.451 380.857 617.934 383.667C624.144 385.082 630.246 386.733 635.77 388.771C637.14 389.286 638.468 389.822 639.731 390.379L640.395 390.68L640.587 390.787C640.844 390.937 641.08 391.087 641.251 391.323C641.401 391.58 641.294 391.945 641.058 392.138C640.844 392.331 640.566 392.46 640.33 392.545L640.245 392.567C640.159 392.588 639.945 392.674 639.795 392.76L639.56 392.867L639.089 393.082L638.061 393.51C636.669 394.09 635.235 394.647 633.714 395.162C630.695 396.191 627.591 397.135 624.251 397.928C610.976 401.36 596.716 403.483 582.499 405.285C553.165 408.845 523.104 410.646 492.999 412.019C462.874 413.348 432.641 414.163 402.494 414.978C375.73 415.75 338.431 416.094 305.265 417.681C272.099 419.225 243.044 422.056 232.83 428.146C250.067 428.575 269.123 427.267 285.695 427.996C279.443 429.069 272.249 430.398 264.84 431.127C271.906 431.106 279.743 431.428 286.316 430.741C280.877 431.385 275.31 432.157 273.212 433.358C281.712 433.615 293.724 431.835 300.426 431.085C304.344 430.656 322.308 427.803 327.468 428.232C314.151 430.527 297.278 432.672 286.423 435.417C291.048 435.46 295.608 435.267 300.105 435.481C294.559 436.553 283.682 437.09 280.856 438.505C292.354 438.226 302.503 437.39 314.408 437.304C324.064 437.218 332.757 437.283 341.985 436.532C330.98 437.69 316.142 438.655 308.541 440.671C313.658 441.057 319.032 440.693 324.278 440.371C323.636 440.564 323.272 440.778 323.143 441.014C325.477 440.95 328.56 441.164 330.98 441.057C331.044 441.379 331.579 441.658 331.13 441.979C331.194 441.765 331.215 441.529 331.258 441.315" fill="white"></path>
</g>
<g opacity="0.7">
<path d="M333.357 441.55C345.154 441.722 357.166 440.993 368.428 440.135C392.43 438.312 412.685 442.001 436.109 439.556C465.464 436.489 494.584 438.441 525.159 434.709C532.16 433.873 539.205 432.993 546.249 431.964C549.761 431.471 553.293 430.977 556.826 430.484C560.359 429.926 563.892 429.369 567.425 428.79C581.578 426.581 595.752 423.9 609.862 420.683C613.374 419.804 616.906 419.032 620.418 418.088L630.909 415.086C634.421 413.992 637.89 412.791 641.337 411.375C644.805 409.938 648.017 408.523 651.978 406.1C655.682 403.74 659.108 400.974 661.228 397.349C662.256 395.548 662.919 393.489 662.898 391.366C662.812 389.243 662.084 387.227 660.95 385.468C656.475 378.541 646.518 374.681 640.373 372.429C627.291 367.818 614.059 365.33 600.976 363.271C587.873 361.277 574.833 359.925 561.901 358.896C536.015 356.88 510.471 356.129 485.077 355.894C434.589 355.443 384.551 353.642 333.613 347.808C318.818 346.071 303.573 344.055 288.179 341.524C272.805 338.929 257.218 335.884 242.102 331.638C234.565 329.493 227.114 327.07 220.155 324.089C216.686 322.587 213.346 320.936 210.306 319.113C207.265 317.311 204.525 315.231 202.705 313.172C201.805 312.164 201.163 311.156 200.842 310.384C200.521 309.591 200.457 309.076 200.521 308.476C200.585 307.875 200.842 307.082 201.463 306.138C202.084 305.194 203.026 304.165 204.139 303.157C206.409 301.141 209.321 299.275 212.49 297.667C215.573 295.994 219.17 294.75 222.617 293.42C227.563 291.276 233.751 289.796 240.26 287.866C243.536 286.922 247.069 286.279 250.645 285.442C254.242 284.691 257.903 283.684 261.757 283.083C269.444 281.775 277.409 280.123 285.652 279.03C293.874 277.829 302.246 276.542 310.618 275.598C344.084 271.416 376.993 268.585 396.584 266.591C383.438 267.534 370.141 268.864 356.759 269.936C350.079 270.58 343.398 271.223 336.697 271.888L326.655 272.853L316.634 273.99C289.977 277.014 263.342 280.316 238.633 286.407C241.93 285.356 245.442 284.756 248.846 283.919C252.272 283.169 255.698 282.332 259.166 281.625C266.146 280.402 273.105 279.03 280.149 277.914C287.215 276.885 294.302 275.856 301.389 274.826C308.519 273.968 315.649 273.11 322.801 272.253C329.952 271.416 337.146 270.794 344.319 270.044L355.089 268.993L365.902 268.092L387.527 266.333L409.174 264.832C466.877 260.929 524.495 258.441 580.4 256.489C528.007 258.227 475.463 260.521 423.198 263.61C410.137 264.468 397.098 265.304 384.058 266.162C377.549 266.655 371.04 267.17 364.553 267.663L354.811 268.414L345.09 269.293C338.624 269.893 332.136 270.473 325.691 271.073C319.247 271.781 312.802 272.488 306.378 273.196C299.933 273.818 293.553 274.805 287.151 275.62L277.58 276.906L268.073 278.472L258.567 280.038L249.189 281.968C246.063 282.654 242.915 283.19 239.832 283.962L230.646 286.407C229.126 286.836 227.563 287.179 226.064 287.651L221.632 289.217L217.2 290.782C215.701 291.276 214.245 291.812 212.832 292.455C207.244 294.943 201.741 298.031 198.101 302.299C197.223 303.371 196.517 304.508 196.003 305.666C195.532 306.846 195.296 308.047 195.296 309.269C195.296 311.714 196.517 314.18 198.273 316.411C201.934 320.85 207.223 324.282 212.661 327.134C223.666 332.882 235.678 336.763 247.69 340.173C271.82 346.822 296.443 351.154 320.831 354.821C345.261 358.446 369.563 361.255 393.608 363.721C365.431 361.705 336.247 358.939 306.485 354.542C291.604 352.333 276.595 349.696 261.564 346.264C246.577 342.768 231.46 338.672 217.072 332.302C209.963 329.021 202.812 325.268 197.288 319.478C194.633 316.582 192.406 312.872 192.534 308.797C192.641 304.722 195.061 301.162 197.93 298.503C200.799 295.758 204.225 293.678 207.736 291.855C209.492 290.932 211.312 290.139 213.132 289.367C214.973 288.638 216.879 288.037 218.742 287.372L224.373 285.399C226.236 284.691 228.206 284.327 230.133 283.769C234.008 282.783 237.819 281.646 241.738 280.81C273.019 274.076 305.158 270.73 337.232 267.856C353.269 266.376 369.349 265.368 385.365 264.21C401.402 263.309 417.396 262.216 433.326 261.508C441.291 261.1 449.235 260.714 457.157 260.307C465.079 259.964 472.98 259.642 480.859 259.299C496.618 258.57 512.269 258.055 527.771 257.476C589.821 255.289 649.623 253.83 704.993 253.015C713.386 252.908 722.25 252.801 730.772 252.693C735.033 252.651 739.208 252.608 743.19 252.565C744.197 252.565 745.182 252.543 746.145 252.543H746.423C746.445 252.543 746.509 252.543 746.509 252.543L746.423 252.479L745.867 252.114L744.668 251.342C743.083 250.313 741.542 249.326 740.064 248.361L744.411 251.171L746.488 252.5C746.488 252.543 745.845 252.522 745.46 252.543L744.154 252.565C740.685 252.586 737.217 252.629 733.705 252.651C726.704 252.736 719.659 252.801 712.551 252.886C698.334 253.037 683.902 253.273 669.279 253.551C640.009 254.066 609.969 254.795 579.351 255.632C518.158 257.369 454.737 259.599 391.06 263.267C359.243 265.24 327.319 267.449 295.673 271.073C279.871 272.982 264.091 274.998 248.568 278.172C233.087 281.303 217.457 284.756 203.39 292.562C199.964 294.664 196.624 297.066 194.055 300.455C192.791 302.149 191.742 304.101 191.228 306.267C190.693 308.433 190.779 310.77 191.4 312.894C191.999 315.038 193.07 316.968 194.354 318.62C195.618 320.314 197.052 321.815 198.594 323.145C201.656 325.847 205.017 328.035 208.486 329.986C215.402 333.868 222.681 336.806 229.983 339.401C237.305 341.975 244.692 344.119 252.101 346.05C281.755 353.642 311.389 357.974 340.187 361.405C366.651 364.494 393.244 366.66 419.922 368.247C433.262 369.04 446.622 369.684 460.004 370.198C473.344 370.649 486.683 371.078 500.044 371.528C526.572 372.579 553.165 374.187 579.351 377.318C592.433 378.906 605.451 380.857 617.934 383.667C624.144 385.082 630.246 386.733 635.77 388.771C637.14 389.286 638.468 389.822 639.731 390.379L640.395 390.68L640.587 390.787C640.844 390.937 641.08 391.087 641.251 391.323C641.401 391.58 641.294 391.945 641.058 392.138C640.844 392.331 640.566 392.46 640.33 392.545L640.245 392.567C640.159 392.588 639.945 392.674 639.795 392.76L639.56 392.867L639.089 393.082L638.061 393.51C636.669 394.09 635.235 394.647 633.714 395.162C630.695 396.191 627.591 397.135 624.251 397.928C610.976 401.36 596.716 403.483 582.499 405.285C553.165 408.845 523.104 410.646 492.999 412.019C462.874 413.348 432.641 414.163 402.494 414.978C375.73 415.75 338.431 416.094 305.265 417.681C272.099 419.225 243.044 422.056 232.83 428.146C250.067 428.575 269.123 427.267 285.695 427.996C279.443 429.069 272.249 430.398 264.84 431.127C271.906 431.106 279.743 431.428 286.316 430.741C280.877 431.385 275.31 432.157 273.212 433.358C281.712 433.615 293.724 431.835 300.426 431.085C304.344 430.656 322.308 427.803 327.468 428.232C314.151 430.527 297.278 432.672 286.423 435.417C291.048 435.46 295.608 435.267 300.105 435.481C294.559 436.553 283.682 437.09 280.856 438.505C292.354 438.226 302.503 437.39 314.408 437.304C324.064 437.218 332.757 437.283 341.985 436.532C330.98 437.69 316.142 438.655 308.541 440.671C313.658 441.057 319.032 440.693 324.278 440.371C323.636 440.564 323.272 440.778 323.143 441.014C325.477 440.95 328.56 441.164 330.98 441.057C331.044 441.379 331.579 441.658 331.13 441.979C331.194 441.765 331.215 441.529 331.258 441.315" fill="#856F47"></path>
</g>
<path d="M260.915 342.834C242.48 281.926 243.101 214.349 262.671 153.87C271.985 186.383 281.32 219.153 284.575 253.017C287.787 286.902 284.532 322.374 260.915 342.834Z" fill="#074F27" stroke="black" stroke-width="0.2" stroke-miterlimit="10"></path>
<path d="M409.831 499.886C414.991 509.494 409.36 519.424 397.84 523.198C366.73 533.385 318.169 518.523 300.547 489.335C289.435 470.912 279.158 473.4 263.784 479.233C226.422 493.388 189.83 490.793 156.064 466.666C136.194 452.447 124.332 431.944 120.05 406.23C119.258 401.533 117.652 396.986 122.127 393.984C128.015 389.995 130.328 395.678 133.582 399.453C143.624 411.162 148.87 426.775 162.316 436.019C204.71 465.143 244.514 451.696 283.718 428.598C299.969 419.012 305.708 419.87 311.446 438.335C317.762 458.666 327.483 476.188 343.97 488.134C363.711 502.46 384.523 512.561 409.831 499.886Z" fill="#784C19"></path>
<path d="M402.402 434.389C377.822 347.209 380.863 251.215 410.903 165.987C423.236 212.505 435.654 259.386 439.23 307.619C442.806 355.874 436.982 406.144 402.402 434.389Z" fill="#074F27" stroke="black" stroke-width="0.2" stroke-miterlimit="10"></path>
<path d="M653.739 620.585C651.17 591.332 649.757 563.623 653.118 536.472C655.666 515.841 646.973 508.142 631.857 502.137C598.113 488.733 563.276 484.958 527.712 486.03C516.321 486.374 504.909 486.159 493.518 485.752C488.058 485.559 481.978 484.551 481.078 477.152C480.029 468.53 486.859 469.538 491.805 467.565C508.506 460.938 525.764 459.673 543.193 460.38C552.571 460.766 557.859 457.013 563.276 448.049C578.114 423.45 583.981 395.848 589.527 367.925C590.383 363.657 589.013 358.596 594.815 355.1C614.899 390.101 597.342 423.085 589.57 457.635C633.484 471.79 636.31 422.206 661.297 404.041C668.749 428.876 653.439 445.861 647.294 466.643C675.258 474.128 698.253 462.16 720.971 449.85C744.673 437.004 758.376 412.448 774.713 390.229C785.59 399.065 781.693 407.708 777.925 415.622C763.387 446.119 739.834 466.9 711.079 477.58C687.055 486.502 674.208 499.499 673.266 528.022C672.11 563.302 670.119 598.088 675.836 633.474C680.032 659.553 683.158 685.932 687.419 712.097C689.774 726.616 676.093 738.025 653.589 745.51C617.126 757.649 580.684 770.045 542.722 774.913C517.478 778.152 492.02 780.318 466.497 778.087C462.322 777.723 458.104 777.422 453.929 777.551C407.017 779.095 360.897 771.868 314.862 763.075C307.24 761.616 299.339 762.088 291.567 761.381C285.229 760.802 277.842 761.917 276.108 752.03C279.341 743.773 285.572 745.575 291.46 746.282C363.873 755.032 436.564 751.429 509.063 749.971C536.855 749.414 566.188 747.012 591.497 732.685C593.081 727.045 590.726 723.742 587.985 723.785C568.051 724 549.745 714.177 529.639 714.134C482.856 714.07 436.093 711.217 389.31 711.217C346.765 711.217 303.814 709.931 261.848 715.979C234.741 719.882 205.815 718.466 180.164 733.994C166.975 741.993 154.642 732.106 158.324 716.129C168.773 670.684 164.405 625.217 161.729 579.622C161.172 569.993 161.579 569.972 169.33 555.731C183.718 603.063 177.959 652.047 190.42 699.915C218.083 690.35 246.218 690.243 273.239 682.694C276.129 681.879 279.041 680.785 281.996 680.613C346.594 676.86 411.213 666.738 475.854 673.214C529.746 678.619 584.045 682.973 636.76 697.792C652.412 702.189 654.788 694.79 654.617 681.321C654.339 661.676 654.189 642.031 653.739 620.585Z" fill="#764C1C"></path>
</g>
<defs>
<clipPath id="clip0_44_30">
<rect width="824" height="824" fill="white"></rect>
</clipPath>
<clipPath id="SvgjsClipPath1037"><rect width="1000" height="1000" x="0" y="0" rx="350" ry="350"></rect></clipPath></defs>
</svg></svg></g></g></svg></g></svg>