<svg xmlns="http://www.w3.org/2000/svg" version="1.1" xmlns:xlink="http://www.w3.org/1999/xlink" width="1000" height="1000"><style>
    #light-icon {
      display: inline;
    }
    #dark-icon {
      display: none;
    }

    @media (prefers-color-scheme: dark) {
      #light-icon {
        display: none;
      }
      #dark-icon {
        display: inline;
      }
    }
  </style><g id="light-icon"><svg xmlns="http://www.w3.org/2000/svg" version="1.1" xmlns:xlink="http://www.w3.org/1999/xlink" width="1000" height="1000"><g><g transform="matrix(1.953125,0,0,1.953125,0,0)"><svg xmlns="http://www.w3.org/2000/svg" version="1.1" xmlns:xlink="http://www.w3.org/1999/xlink" width="512" height="512"><svg width="512" height="512" viewBox="0 0 512 512" fill="none" xmlns="http://www.w3.org/2000/svg">
<path d="M50.7372 121.952C0.245107 186.35 17.3312 241.988 71.2781 292.87C53.0067 296.499 17.8371 263.917 8.88933 240.167C-12.5767 183.228 7.28479 131.247 42.2809 104.288C62.417 88.7772 89.2314 85.5392 98.6562 96.3951C81.9605 103.232 64.6865 108.06 50.7372 121.952Z" fill="#784C16"></path>
<path d="M402.852 104.027C402.505 74.7981 388.079 56.3822 354.947 43.0978C364.546 33.1093 375.185 37.894 383.048 41.2042C404.427 50.1809 418.406 67.9319 423.696 92.5202C425.503 100.89 428.12 103.015 436.475 103.622C480.216 106.816 515.921 135.568 511.28 191.669C510.948 195.658 510.76 200.414 505.99 200.602C500.15 200.819 500.598 195.355 500.193 191.047C497.071 156.701 476.096 134.845 444.02 130.48C433.743 129.077 424.26 125.42 413.679 130.277C408.403 132.706 403.502 128.297 403.054 121.127C402.736 115.851 402.91 110.546 402.852 104.027Z" fill="#784C16"></path>
<path d="M190.591 41.1623C165.584 47.6527 147.457 65.3314 128.622 81.5936C123.215 72.8771 128.174 67.5286 131.122 63.1631C150.362 34.6141 176.367 19.2771 208.443 11.876C229.548 7.0046 249.308 8.07429 269.329 13.1047C287.918 17.7737 304.903 26.7649 317.392 43.4607C319.59 46.4095 319.459 46.5252 319.821 54.7357C307.274 52.2783 298.225 41.8128 285.721 39.0374C266.597 34.7875 247.631 32.3591 228.247 33.9925C215.83 35.0477 203.558 37.2449 190.591 41.1623Z" fill="#784C19"></path>
<path d="M316.077 152.77C309.355 130.668 310.786 106.412 320.081 84.9316C323.449 96.7126 326.817 108.595 327.598 120.81C328.364 133.01 326.384 145.716 316.077 152.77Z" fill="#074F27" stroke="black" stroke-width="0.2" stroke-miterlimit="10"></path>
<g opacity="0.7">
<path d="M200.594 275.64C208.559 275.756 216.669 275.264 224.272 274.686C240.476 273.458 254.151 275.944 269.965 274.296C289.783 272.229 309.442 273.544 330.084 271.029C334.811 270.465 339.567 269.873 344.323 269.179C346.693 268.846 349.078 268.514 351.463 268.181C353.849 267.806 356.234 267.43 358.619 267.04C368.174 265.551 377.743 263.744 387.269 261.575C389.64 260.983 392.025 260.462 394.395 259.826L401.479 257.803C403.849 257.065 406.191 256.256 408.518 255.302C410.86 254.333 413.028 253.379 415.702 251.746C418.203 250.156 420.516 248.291 421.947 245.848C422.641 244.634 423.089 243.246 423.075 241.815C423.017 240.384 422.525 239.025 421.759 237.84C418.738 233.171 412.016 230.569 407.868 229.051C399.036 225.943 390.102 224.266 381.27 222.879C372.424 221.534 363.62 220.624 354.889 219.93C337.413 218.571 320.168 218.065 303.024 217.906C268.939 217.603 235.157 216.388 200.768 212.457C190.779 211.286 180.487 209.927 170.094 208.221C159.715 206.472 149.192 204.419 138.986 201.557C133.898 200.112 128.868 198.478 124.17 196.469C121.828 195.457 119.573 194.344 117.52 193.115C115.468 191.901 113.617 190.499 112.389 189.111C111.781 188.432 111.348 187.753 111.131 187.232C110.914 186.697 110.871 186.35 110.914 185.946C110.958 185.541 111.131 185.006 111.55 184.37C111.969 183.734 112.605 183.04 113.357 182.361C114.889 181.002 116.855 179.744 118.995 178.66C121.076 177.533 123.505 176.694 125.832 175.798C129.171 174.353 133.349 173.355 137.743 172.054C139.955 171.418 142.34 170.985 144.754 170.421C147.182 169.915 149.654 169.235 152.256 168.831C157.446 167.949 162.823 166.836 168.388 166.099C173.939 165.289 179.591 164.422 185.243 163.786C207.836 160.967 230.054 159.059 243.281 157.715C234.405 158.351 225.428 159.247 216.394 159.97C211.884 160.403 207.374 160.837 202.849 161.285L196.07 161.936L189.305 162.702C171.308 164.74 153.326 166.966 136.644 171.071C138.871 170.363 141.241 169.958 143.54 169.394C145.852 168.889 148.165 168.325 150.507 167.848C155.219 167.024 159.917 166.099 164.673 165.347C169.443 164.653 174.228 163.959 179.013 163.265C183.826 162.687 188.64 162.109 193.468 161.531C198.296 160.967 203.153 160.548 207.995 160.042L215.266 159.334L222.566 158.727L237.166 157.541L251.78 156.529C290.737 153.898 329.636 152.222 367.379 150.906C332.007 152.077 296.534 153.624 261.248 155.705C252.431 156.284 243.628 156.847 234.824 157.426C230.43 157.758 226.036 158.105 221.656 158.437L215.078 158.943L208.516 159.536C204.15 159.941 199.77 160.331 195.419 160.736C191.068 161.213 186.717 161.69 182.381 162.167C178.03 162.586 173.722 163.251 169.4 163.8L162.939 164.668L156.52 165.723L150.102 166.778L143.771 168.079C141.66 168.542 139.536 168.903 137.454 169.423L131.253 171.071C130.226 171.36 129.171 171.592 128.159 171.91L125.167 172.965L122.175 174.02C121.163 174.353 120.18 174.714 119.226 175.148C115.453 176.824 111.738 178.906 109.281 181.783C108.688 182.505 108.211 183.272 107.864 184.052C107.546 184.847 107.387 185.657 107.387 186.481C107.387 188.128 108.211 189.791 109.396 191.294C111.868 194.286 115.439 196.599 119.11 198.522C126.54 202.396 134.65 205.012 142.759 207.311C159.05 211.792 175.674 214.712 192.138 217.183C208.631 219.626 225.038 221.52 241.271 223.182C222.248 221.824 202.546 219.959 182.453 216.995C172.407 215.507 162.274 213.729 152.126 211.416C142.007 209.06 131.802 206.299 122.088 202.005C117.289 199.794 112.461 197.264 108.731 193.361C106.939 191.41 105.436 188.909 105.522 186.163C105.595 183.416 107.228 181.016 109.165 179.224C111.102 177.374 113.415 175.972 115.786 174.743C116.971 174.121 118.2 173.586 119.428 173.066C120.671 172.575 121.958 172.17 123.216 171.722L127.017 170.392C128.275 169.915 129.605 169.669 130.906 169.293C133.522 168.628 136.095 167.862 138.74 167.298C159.86 162.76 181.557 160.505 203.211 158.568C214.038 157.57 224.894 156.891 235.706 156.11C246.533 155.503 257.331 154.766 268.086 154.289C273.463 154.014 278.826 153.754 284.174 153.479C289.523 153.248 294.857 153.031 300.176 152.8C310.815 152.308 321.382 151.961 331.848 151.571C373.739 150.097 414.112 149.114 451.494 148.564C457.16 148.492 463.145 148.42 468.898 148.348C471.774 148.319 474.593 148.29 477.282 148.261C477.961 148.261 478.626 148.246 479.277 148.246H479.464C479.479 148.246 479.522 148.246 479.522 148.246L479.464 148.203L479.089 147.957L478.279 147.437C477.209 146.743 476.169 146.078 475.171 145.428L478.106 147.321L479.508 148.218C479.508 148.246 479.074 148.232 478.814 148.246L477.932 148.261C475.59 148.275 473.249 148.304 470.878 148.319C466.151 148.377 461.395 148.42 456.596 148.478C446.998 148.579 437.255 148.738 427.382 148.926C407.622 149.273 387.341 149.764 366.67 150.328C325.357 151.499 282.541 153.002 239.551 155.474C218.071 156.804 196.518 158.293 175.153 160.736C164.485 162.022 153.832 163.381 143.352 165.52C132.901 167.631 122.348 169.958 112.851 175.22C110.538 176.637 108.283 178.256 106.549 180.539C105.696 181.681 104.988 182.997 104.641 184.457C104.279 185.917 104.337 187.492 104.756 188.923C105.161 190.369 105.884 191.67 106.751 192.783C107.604 193.925 108.572 194.937 109.613 195.833C111.68 197.654 113.95 199.129 116.292 200.444C120.961 203.061 125.875 205.041 130.805 206.79C135.748 208.525 140.735 209.97 145.737 211.271C165.757 216.388 185.763 219.308 205.206 221.621C223.072 223.703 241.026 225.163 259.037 226.232C268.042 226.767 277.062 227.201 286.097 227.548C295.103 227.851 304.108 228.14 313.128 228.444C331.038 229.152 348.992 230.237 366.67 232.347C375.503 233.417 384.291 234.732 392.719 236.626C396.911 237.58 401.03 238.693 404.76 240.066C405.685 240.413 406.581 240.774 407.434 241.15L407.882 241.353L408.012 241.425C408.186 241.526 408.345 241.627 408.46 241.786C408.562 241.96 408.489 242.205 408.33 242.335C408.186 242.466 407.998 242.552 407.839 242.61L407.781 242.625C407.723 242.639 407.579 242.697 407.477 242.755L407.318 242.827L407 242.972L406.307 243.261C405.367 243.651 404.398 244.027 403.372 244.374C401.334 245.068 399.238 245.704 396.983 246.238C388.021 248.551 378.394 249.982 368.795 251.197C348.992 253.596 328.697 254.81 308.372 255.736C288.034 256.632 267.623 257.181 247.27 257.73C229.201 258.251 204.02 258.482 181.629 259.552C159.238 260.592 139.622 262.501 132.727 266.606C144.364 266.895 157.229 266.013 168.417 266.505C164.196 267.227 159.339 268.124 154.338 268.615C159.108 268.601 164.398 268.817 168.836 268.355C165.165 268.789 161.406 269.309 159.99 270.118C165.728 270.292 173.838 269.092 178.362 268.586C181.008 268.297 193.135 266.375 196.619 266.664C187.628 268.21 176.237 269.656 168.909 271.506C172.031 271.535 175.11 271.405 178.145 271.55C174.401 272.272 167.058 272.634 165.15 273.588C172.913 273.4 179.764 272.836 187.801 272.778C194.321 272.72 200.19 272.764 206.42 272.258C198.99 273.038 188.972 273.689 183.841 275.048C187.296 275.308 190.924 275.062 194.465 274.845C194.032 274.975 193.786 275.12 193.699 275.279C195.275 275.236 197.356 275.38 198.99 275.308C199.033 275.525 199.395 275.713 199.091 275.929C199.134 275.785 199.149 275.626 199.178 275.481" fill="white"></path>
</g>
<g opacity="0.7">
<path d="M200.594 275.64C208.559 275.756 216.669 275.264 224.272 274.686C240.476 273.458 254.151 275.944 269.965 274.296C289.783 272.229 309.442 273.544 330.084 271.029C334.811 270.465 339.567 269.873 344.323 269.179C346.693 268.846 349.078 268.514 351.463 268.181C353.849 267.806 356.234 267.43 358.619 267.04C368.174 265.551 377.743 263.744 387.269 261.575C389.64 260.983 392.025 260.462 394.395 259.826L401.479 257.803C403.849 257.065 406.191 256.256 408.518 255.302C410.86 254.333 413.028 253.379 415.702 251.746C418.203 250.156 420.516 248.291 421.947 245.848C422.641 244.634 423.089 243.246 423.075 241.815C423.017 240.384 422.525 239.025 421.759 237.84C418.738 233.171 412.016 230.569 407.868 229.051C399.036 225.943 390.102 224.266 381.27 222.879C372.424 221.534 363.62 220.624 354.889 219.93C337.413 218.571 320.168 218.065 303.024 217.906C268.939 217.603 235.157 216.388 200.768 212.457C190.779 211.286 180.487 209.927 170.094 208.221C159.715 206.472 149.192 204.419 138.986 201.557C133.898 200.112 128.868 198.478 124.17 196.469C121.828 195.457 119.573 194.344 117.52 193.115C115.468 191.901 113.617 190.499 112.389 189.111C111.781 188.432 111.348 187.753 111.131 187.232C110.914 186.697 110.871 186.35 110.914 185.946C110.958 185.541 111.131 185.006 111.55 184.37C111.969 183.734 112.605 183.04 113.357 182.361C114.889 181.002 116.855 179.744 118.995 178.66C121.076 177.533 123.505 176.694 125.832 175.798C129.171 174.353 133.349 173.355 137.743 172.054C139.955 171.418 142.34 170.985 144.754 170.421C147.182 169.915 149.654 169.235 152.256 168.831C157.446 167.949 162.823 166.836 168.388 166.099C173.939 165.289 179.591 164.422 185.243 163.786C207.836 160.967 230.054 159.059 243.281 157.715C234.405 158.351 225.428 159.247 216.394 159.97C211.884 160.403 207.374 160.837 202.849 161.285L196.07 161.936L189.305 162.702C171.308 164.74 153.326 166.966 136.644 171.071C138.871 170.363 141.241 169.958 143.54 169.394C145.852 168.889 148.165 168.325 150.507 167.848C155.219 167.024 159.917 166.099 164.673 165.347C169.443 164.653 174.228 163.959 179.013 163.265C183.826 162.687 188.64 162.109 193.468 161.531C198.296 160.967 203.153 160.548 207.995 160.042L215.266 159.334L222.566 158.727L237.166 157.541L251.78 156.529C290.737 153.898 329.636 152.222 367.379 150.906C332.007 152.077 296.534 153.624 261.248 155.705C252.431 156.284 243.628 156.847 234.824 157.426C230.43 157.758 226.036 158.105 221.656 158.437L215.078 158.943L208.516 159.536C204.15 159.941 199.77 160.331 195.419 160.736C191.068 161.213 186.717 161.69 182.381 162.167C178.03 162.586 173.722 163.251 169.4 163.8L162.939 164.668L156.52 165.723L150.102 166.778L143.771 168.079C141.66 168.542 139.536 168.903 137.454 169.423L131.253 171.071C130.226 171.36 129.171 171.592 128.159 171.91L125.167 172.965L122.175 174.02C121.163 174.353 120.18 174.714 119.226 175.148C115.453 176.824 111.738 178.906 109.281 181.783C108.688 182.505 108.211 183.272 107.864 184.052C107.546 184.847 107.387 185.657 107.387 186.481C107.387 188.128 108.211 189.791 109.396 191.294C111.868 194.286 115.439 196.599 119.11 198.522C126.54 202.396 134.65 205.012 142.759 207.311C159.05 211.792 175.674 214.712 192.138 217.183C208.631 219.626 225.038 221.52 241.271 223.182C222.248 221.824 202.546 219.959 182.453 216.995C172.407 215.507 162.274 213.729 152.126 211.416C142.007 209.06 131.802 206.299 122.088 202.005C117.289 199.794 112.461 197.264 108.731 193.361C106.939 191.41 105.436 188.909 105.522 186.163C105.595 183.416 107.228 181.016 109.165 179.224C111.102 177.374 113.415 175.972 115.786 174.743C116.971 174.121 118.2 173.586 119.428 173.066C120.671 172.575 121.958 172.17 123.216 171.722L127.017 170.392C128.275 169.915 129.605 169.669 130.906 169.293C133.522 168.628 136.095 167.862 138.74 167.298C159.86 162.76 181.557 160.505 203.211 158.568C214.038 157.57 224.894 156.891 235.706 156.11C246.533 155.503 257.331 154.766 268.086 154.289C273.463 154.014 278.826 153.754 284.174 153.479C289.523 153.248 294.857 153.031 300.176 152.8C310.815 152.308 321.382 151.961 331.848 151.571C373.739 150.097 414.112 149.114 451.494 148.564C457.16 148.492 463.145 148.42 468.898 148.348C471.774 148.319 474.593 148.29 477.282 148.261C477.961 148.261 478.626 148.246 479.277 148.246H479.464C479.479 148.246 479.522 148.246 479.522 148.246L479.464 148.203L479.089 147.957L478.279 147.437C477.209 146.743 476.169 146.078 475.171 145.428L478.106 147.321L479.508 148.218C479.508 148.246 479.074 148.232 478.814 148.246L477.932 148.261C475.59 148.275 473.249 148.304 470.878 148.319C466.151 148.377 461.395 148.42 456.596 148.478C446.998 148.579 437.255 148.738 427.382 148.926C407.622 149.273 387.341 149.764 366.67 150.328C325.357 151.499 282.541 153.002 239.551 155.474C218.071 156.804 196.518 158.293 175.153 160.736C164.485 162.022 153.832 163.381 143.352 165.52C132.901 167.631 122.348 169.958 112.851 175.22C110.538 176.637 108.283 178.256 106.549 180.539C105.696 181.681 104.988 182.997 104.641 184.457C104.279 185.917 104.337 187.492 104.756 188.923C105.161 190.369 105.884 191.67 106.751 192.783C107.604 193.925 108.572 194.937 109.613 195.833C111.68 197.654 113.95 199.129 116.292 200.444C120.961 203.061 125.875 205.041 130.805 206.79C135.748 208.525 140.735 209.97 145.737 211.271C165.757 216.388 185.763 219.308 205.206 221.621C223.072 223.703 241.026 225.163 259.037 226.232C268.042 226.767 277.062 227.201 286.097 227.548C295.103 227.851 304.108 228.14 313.128 228.444C331.038 229.152 348.992 230.237 366.67 232.347C375.503 233.417 384.291 234.732 392.719 236.626C396.911 237.58 401.03 238.693 404.76 240.066C405.685 240.413 406.581 240.774 407.434 241.15L407.882 241.353L408.012 241.425C408.186 241.526 408.345 241.627 408.46 241.786C408.562 241.96 408.489 242.205 408.33 242.335C408.186 242.466 407.998 242.552 407.839 242.61L407.781 242.625C407.723 242.639 407.579 242.697 407.477 242.755L407.318 242.827L407 242.972L406.307 243.261C405.367 243.651 404.398 244.027 403.372 244.374C401.334 245.068 399.238 245.704 396.983 246.238C388.021 248.551 378.394 249.982 368.795 251.197C348.992 253.596 328.697 254.81 308.372 255.736C288.034 256.632 267.623 257.181 247.27 257.73C229.201 258.251 204.02 258.482 181.629 259.552C159.238 260.592 139.622 262.501 132.727 266.606C144.364 266.895 157.229 266.013 168.417 266.505C164.196 267.227 159.339 268.124 154.338 268.615C159.108 268.601 164.398 268.817 168.836 268.355C165.165 268.789 161.406 269.309 159.99 270.118C165.728 270.292 173.838 269.092 178.362 268.586C181.008 268.297 193.135 266.375 196.619 266.664C187.628 268.21 176.237 269.656 168.909 271.506C172.031 271.535 175.11 271.405 178.145 271.55C174.401 272.272 167.058 272.634 165.15 273.588C172.913 273.4 179.764 272.836 187.801 272.778C194.321 272.72 200.19 272.764 206.42 272.258C198.99 273.038 188.972 273.689 183.841 275.048C187.296 275.308 190.924 275.062 194.465 274.845C194.032 274.975 193.786 275.12 193.699 275.279C195.275 275.236 197.356 275.38 198.99 275.308C199.033 275.525 199.395 275.713 199.091 275.929C199.134 275.785 199.149 275.626 199.178 275.481" fill="white"></path>
</g>
<g opacity="0.7">
<path d="M200.594 275.64C208.559 275.756 216.669 275.264 224.272 274.686C240.476 273.458 254.151 275.944 269.965 274.296C289.783 272.229 309.442 273.544 330.084 271.029C334.811 270.465 339.567 269.873 344.323 269.179C346.693 268.846 349.078 268.514 351.463 268.181C353.849 267.806 356.234 267.43 358.619 267.04C368.174 265.551 377.743 263.744 387.269 261.575C389.64 260.983 392.025 260.462 394.395 259.826L401.479 257.803C403.849 257.065 406.191 256.256 408.518 255.302C410.86 254.333 413.028 253.379 415.702 251.746C418.203 250.156 420.516 248.291 421.947 245.848C422.641 244.634 423.089 243.246 423.075 241.815C423.017 240.384 422.525 239.025 421.759 237.84C418.738 233.171 412.016 230.569 407.868 229.051C399.036 225.943 390.102 224.266 381.27 222.879C372.424 221.534 363.62 220.624 354.889 219.93C337.413 218.571 320.168 218.065 303.024 217.906C268.939 217.603 235.157 216.388 200.768 212.457C190.779 211.286 180.487 209.927 170.094 208.221C159.715 206.472 149.192 204.419 138.986 201.557C133.898 200.112 128.868 198.478 124.17 196.469C121.828 195.457 119.573 194.344 117.52 193.115C115.468 191.901 113.617 190.499 112.389 189.111C111.781 188.432 111.348 187.753 111.131 187.232C110.914 186.697 110.871 186.35 110.914 185.946C110.958 185.541 111.131 185.006 111.55 184.37C111.969 183.734 112.605 183.04 113.357 182.361C114.889 181.002 116.855 179.744 118.995 178.66C121.076 177.533 123.505 176.694 125.832 175.798C129.171 174.353 133.349 173.355 137.743 172.054C139.955 171.418 142.34 170.985 144.754 170.421C147.182 169.915 149.654 169.235 152.256 168.831C157.446 167.949 162.823 166.836 168.388 166.099C173.939 165.289 179.591 164.422 185.243 163.786C207.836 160.967 230.054 159.059 243.281 157.715C234.405 158.351 225.428 159.247 216.394 159.97C211.884 160.403 207.374 160.837 202.849 161.285L196.07 161.936L189.305 162.702C171.308 164.74 153.326 166.966 136.644 171.071C138.871 170.363 141.241 169.958 143.54 169.394C145.852 168.889 148.165 168.325 150.507 167.848C155.219 167.024 159.917 166.099 164.673 165.347C169.443 164.653 174.228 163.959 179.013 163.265C183.826 162.687 188.64 162.109 193.468 161.531C198.296 160.967 203.153 160.548 207.995 160.042L215.266 159.334L222.566 158.727L237.166 157.541L251.78 156.529C290.737 153.898 329.636 152.222 367.379 150.906C332.007 152.077 296.534 153.624 261.248 155.705C252.431 156.284 243.628 156.847 234.824 157.426C230.43 157.758 226.036 158.105 221.656 158.437L215.078 158.943L208.516 159.536C204.15 159.941 199.77 160.331 195.419 160.736C191.068 161.213 186.717 161.69 182.381 162.167C178.03 162.586 173.722 163.251 169.4 163.8L162.939 164.668L156.52 165.723L150.102 166.778L143.771 168.079C141.66 168.542 139.536 168.903 137.454 169.423L131.253 171.071C130.226 171.36 129.171 171.592 128.159 171.91L125.167 172.965L122.175 174.02C121.163 174.353 120.18 174.714 119.226 175.148C115.453 176.824 111.738 178.906 109.281 181.783C108.688 182.505 108.211 183.272 107.864 184.052C107.546 184.847 107.387 185.657 107.387 186.481C107.387 188.128 108.211 189.791 109.396 191.294C111.868 194.286 115.439 196.599 119.11 198.522C126.54 202.396 134.65 205.012 142.759 207.311C159.05 211.792 175.674 214.712 192.138 217.183C208.631 219.626 225.038 221.52 241.271 223.182C222.248 221.824 202.546 219.959 182.453 216.995C172.407 215.507 162.274 213.729 152.126 211.416C142.007 209.06 131.802 206.299 122.088 202.005C117.289 199.794 112.461 197.264 108.731 193.361C106.939 191.41 105.436 188.909 105.522 186.163C105.595 183.416 107.228 181.016 109.165 179.224C111.102 177.374 113.415 175.972 115.786 174.743C116.971 174.121 118.2 173.586 119.428 173.066C120.671 172.575 121.958 172.17 123.216 171.722L127.017 170.392C128.275 169.915 129.605 169.669 130.906 169.293C133.522 168.628 136.095 167.862 138.74 167.298C159.86 162.76 181.557 160.505 203.211 158.568C214.038 157.57 224.894 156.891 235.706 156.11C246.533 155.503 257.331 154.766 268.086 154.289C273.463 154.014 278.826 153.754 284.174 153.479C289.523 153.248 294.857 153.031 300.176 152.8C310.815 152.308 321.382 151.961 331.848 151.571C373.739 150.097 414.112 149.114 451.494 148.564C457.16 148.492 463.145 148.42 468.898 148.348C471.774 148.319 474.593 148.29 477.282 148.261C477.961 148.261 478.626 148.246 479.277 148.246H479.464C479.479 148.246 479.522 148.246 479.522 148.246L479.464 148.203L479.089 147.957L478.279 147.437C477.209 146.743 476.169 146.078 475.171 145.428L478.106 147.321L479.508 148.218C479.508 148.246 479.074 148.232 478.814 148.246L477.932 148.261C475.59 148.275 473.249 148.304 470.878 148.319C466.151 148.377 461.395 148.42 456.596 148.478C446.998 148.579 437.255 148.738 427.382 148.926C407.622 149.273 387.341 149.764 366.67 150.328C325.357 151.499 282.541 153.002 239.551 155.474C218.071 156.804 196.518 158.293 175.153 160.736C164.485 162.022 153.832 163.381 143.352 165.52C132.901 167.631 122.348 169.958 112.851 175.22C110.538 176.637 108.283 178.256 106.549 180.539C105.696 181.681 104.988 182.997 104.641 184.457C104.279 185.917 104.337 187.492 104.756 188.923C105.161 190.369 105.884 191.67 106.751 192.783C107.604 193.925 108.572 194.937 109.613 195.833C111.68 197.654 113.95 199.129 116.292 200.444C120.961 203.061 125.875 205.041 130.805 206.79C135.748 208.525 140.735 209.97 145.737 211.271C165.757 216.388 185.763 219.308 205.206 221.621C223.072 223.703 241.026 225.163 259.037 226.232C268.042 226.767 277.062 227.201 286.097 227.548C295.103 227.851 304.108 228.14 313.128 228.444C331.038 229.152 348.992 230.237 366.67 232.347C375.503 233.417 384.291 234.732 392.719 236.626C396.911 237.58 401.03 238.693 404.76 240.066C405.685 240.413 406.581 240.774 407.434 241.15L407.882 241.353L408.012 241.425C408.186 241.526 408.345 241.627 408.46 241.786C408.562 241.96 408.489 242.205 408.33 242.335C408.186 242.466 407.998 242.552 407.839 242.61L407.781 242.625C407.723 242.639 407.579 242.697 407.477 242.755L407.318 242.827L407 242.972L406.307 243.261C405.367 243.651 404.398 244.027 403.372 244.374C401.334 245.068 399.238 245.704 396.983 246.238C388.021 248.551 378.394 249.982 368.795 251.197C348.992 253.596 328.697 254.81 308.372 255.736C288.034 256.632 267.623 257.181 247.27 257.73C229.201 258.251 204.02 258.482 181.629 259.552C159.238 260.592 139.622 262.501 132.727 266.606C144.364 266.895 157.229 266.013 168.417 266.505C164.196 267.227 159.339 268.124 154.338 268.615C159.108 268.601 164.398 268.817 168.836 268.355C165.165 268.789 161.406 269.309 159.99 270.118C165.728 270.292 173.838 269.092 178.362 268.586C181.008 268.297 193.135 266.375 196.619 266.664C187.628 268.21 176.237 269.656 168.909 271.506C172.031 271.535 175.11 271.405 178.145 271.55C174.401 272.272 167.058 272.634 165.15 273.588C172.913 273.4 179.764 272.836 187.801 272.778C194.321 272.72 200.19 272.764 206.42 272.258C198.99 273.038 188.972 273.689 183.841 275.048C187.296 275.308 190.924 275.062 194.465 274.845C194.032 274.975 193.786 275.12 193.699 275.279C195.275 275.236 197.356 275.38 198.99 275.308C199.033 275.525 199.395 275.713 199.091 275.929C199.134 275.785 199.149 275.626 199.178 275.481" fill="#856F47"></path>
</g>
<path d="M151.693 209.102C139.247 168.049 139.666 122.501 152.878 81.7373C159.166 103.651 165.468 125.739 167.666 148.564C169.834 171.403 167.637 195.312 151.693 209.102Z" fill="#074F27" stroke="black" stroke-width="0.2" stroke-miterlimit="10"></path>
<path d="M252.228 314.958C255.712 321.434 251.91 328.127 244.133 330.671C223.13 337.537 190.346 327.52 178.449 307.846C170.947 295.429 164.008 297.106 153.629 301.038C128.405 310.578 103.701 308.829 80.9051 292.567C67.4907 282.983 59.4825 269.164 56.5914 251.832C56.0566 248.667 54.9725 245.602 57.9936 243.578C61.9688 240.89 63.5299 244.72 65.7271 247.264C72.5066 255.157 76.0481 265.68 85.126 271.911C113.747 291.541 140.62 282.477 167.087 266.909C178.059 260.448 181.933 261.026 185.807 273.472C190.071 287.175 196.634 298.985 207.764 307.037C221.092 316.693 235.142 323.501 252.228 314.958Z" fill="#784C19"></path>
<path d="M247.213 270.811C230.618 212.051 232.671 147.349 252.951 89.9043C261.277 121.258 269.661 152.857 272.075 185.367C274.49 217.891 270.558 251.774 247.213 270.811Z" fill="#074F27" stroke="black" stroke-width="0.2" stroke-miterlimit="10"></path>
<path d="M416.888 396.311C415.153 376.594 414.199 357.918 416.469 339.618C418.189 325.712 412.32 320.523 402.114 316.475C379.333 307.441 355.814 304.896 331.804 305.619C324.114 305.851 316.409 305.706 308.719 305.431C305.033 305.301 300.928 304.622 300.321 299.635C299.612 293.824 304.224 294.503 307.563 293.173C318.838 288.707 330.489 287.854 342.255 288.331C348.587 288.591 352.157 286.061 355.814 280.019C365.832 263.439 369.793 244.835 373.537 226.014C374.115 223.138 373.19 219.726 377.107 217.37C390.666 240.961 378.813 263.193 373.565 286.481C403.213 296.021 405.121 262.601 421.99 250.357C427.021 267.096 416.685 278.545 412.537 292.552C431.415 297.597 446.94 289.531 462.277 281.233C478.279 272.575 487.53 256.023 498.56 241.048C505.903 247.003 503.272 252.829 500.728 258.163C490.913 278.718 475.012 292.725 455.599 299.924C439.38 305.937 430.707 314.697 430.071 333.923C429.29 357.701 427.946 381.148 431.806 404.999C434.639 422.576 436.749 440.356 439.626 457.992C441.216 467.778 431.979 475.468 416.787 480.513C392.169 488.695 367.567 497.05 341.937 500.331C324.895 502.514 307.707 503.974 290.477 502.47C287.658 502.225 284.81 502.022 281.992 502.109C250.32 503.15 219.184 498.278 188.105 492.352C182.959 491.369 177.625 491.687 172.378 491.21C168.099 490.82 163.112 491.571 161.941 484.907C164.124 479.342 168.33 480.556 172.305 481.033C221.193 486.931 270.268 484.503 319.214 483.52C337.977 483.144 357.78 481.525 374.866 471.869C375.936 468.067 374.346 465.841 372.496 465.87C359.038 466.014 346.679 459.394 333.105 459.365C301.521 459.322 269.95 457.399 238.366 457.399C209.643 457.399 180.646 456.532 152.314 460.608C134.014 463.239 114.484 462.285 97.1671 472.75C88.2627 478.142 79.9365 471.478 82.4228 460.709C89.477 430.079 86.5281 399.434 84.7212 368.702C84.3454 362.211 84.62 362.197 89.8528 352.599C99.5667 384.501 95.6783 417.517 104.091 449.781C122.767 443.334 141.761 443.262 160.004 438.174C161.955 437.624 163.921 436.887 165.916 436.771C209.528 434.242 253.153 427.419 296.794 431.784C333.178 435.427 369.836 438.362 405.425 448.35C415.992 451.313 417.596 446.326 417.48 437.248C417.292 424.008 417.191 410.767 416.888 396.311Z" fill="#764C1C"></path>
</svg></svg></g></g></svg></g><g id="dark-icon"><svg xmlns="http://www.w3.org/2000/svg" version="1.1" xmlns:xlink="http://www.w3.org/1999/xlink" width="1000" height="1000"><g clip-path="url(#SvgjsClipPath1109)"><rect width="1000" height="1000" fill="#fffaed"></rect><g transform="matrix(1.5625,0,0,1.5625,100,100)"><svg xmlns="http://www.w3.org/2000/svg" version="1.1" xmlns:xlink="http://www.w3.org/1999/xlink" width="512" height="512"><svg width="512" height="512" viewBox="0 0 512 512" fill="none" xmlns="http://www.w3.org/2000/svg">
<path d="M50.7372 121.952C0.245107 186.35 17.3312 241.988 71.2781 292.87C53.0067 296.499 17.8371 263.917 8.88933 240.167C-12.5767 183.228 7.28479 131.247 42.2809 104.288C62.417 88.7772 89.2314 85.5392 98.6562 96.3951C81.9605 103.232 64.6865 108.06 50.7372 121.952Z" fill="#784C16"></path>
<path d="M402.852 104.027C402.505 74.7981 388.079 56.3822 354.947 43.0978C364.546 33.1093 375.185 37.894 383.048 41.2042C404.427 50.1809 418.406 67.9319 423.696 92.5202C425.503 100.89 428.12 103.015 436.475 103.622C480.216 106.816 515.921 135.568 511.28 191.669C510.948 195.658 510.76 200.414 505.99 200.602C500.15 200.819 500.598 195.355 500.193 191.047C497.071 156.701 476.096 134.845 444.02 130.48C433.743 129.077 424.26 125.42 413.679 130.277C408.403 132.706 403.502 128.297 403.054 121.127C402.736 115.851 402.91 110.546 402.852 104.027Z" fill="#784C16"></path>
<path d="M190.591 41.1623C165.584 47.6527 147.457 65.3314 128.622 81.5936C123.215 72.8771 128.174 67.5286 131.122 63.1631C150.362 34.6141 176.367 19.2771 208.443 11.876C229.548 7.0046 249.308 8.07429 269.329 13.1047C287.918 17.7737 304.903 26.7649 317.392 43.4607C319.59 46.4095 319.459 46.5252 319.821 54.7357C307.274 52.2783 298.225 41.8128 285.721 39.0374C266.597 34.7875 247.631 32.3591 228.247 33.9925C215.83 35.0477 203.558 37.2449 190.591 41.1623Z" fill="#784C19"></path>
<path d="M316.077 152.77C309.355 130.668 310.786 106.412 320.081 84.9316C323.449 96.7126 326.817 108.595 327.598 120.81C328.364 133.01 326.384 145.716 316.077 152.77Z" fill="#074F27" stroke="black" stroke-width="0.2" stroke-miterlimit="10"></path>
<g opacity="0.7">
<path d="M200.594 275.64C208.559 275.756 216.669 275.264 224.272 274.686C240.476 273.458 254.151 275.944 269.965 274.296C289.783 272.229 309.442 273.544 330.084 271.029C334.811 270.465 339.567 269.873 344.323 269.179C346.693 268.846 349.078 268.514 351.463 268.181C353.849 267.806 356.234 267.43 358.619 267.04C368.174 265.551 377.743 263.744 387.269 261.575C389.64 260.983 392.025 260.462 394.395 259.826L401.479 257.803C403.849 257.065 406.191 256.256 408.518 255.302C410.86 254.333 413.028 253.379 415.702 251.746C418.203 250.156 420.516 248.291 421.947 245.848C422.641 244.634 423.089 243.246 423.075 241.815C423.017 240.384 422.525 239.025 421.759 237.84C418.738 233.171 412.016 230.569 407.868 229.051C399.036 225.943 390.102 224.266 381.27 222.879C372.424 221.534 363.62 220.624 354.889 219.93C337.413 218.571 320.168 218.065 303.024 217.906C268.939 217.603 235.157 216.388 200.768 212.457C190.779 211.286 180.487 209.927 170.094 208.221C159.715 206.472 149.192 204.419 138.986 201.557C133.898 200.112 128.868 198.478 124.17 196.469C121.828 195.457 119.573 194.344 117.52 193.115C115.468 191.901 113.617 190.499 112.389 189.111C111.781 188.432 111.348 187.753 111.131 187.232C110.914 186.697 110.871 186.35 110.914 185.946C110.958 185.541 111.131 185.006 111.55 184.37C111.969 183.734 112.605 183.04 113.357 182.361C114.889 181.002 116.855 179.744 118.995 178.66C121.076 177.533 123.505 176.694 125.832 175.798C129.171 174.353 133.349 173.355 137.743 172.054C139.955 171.418 142.34 170.985 144.754 170.421C147.182 169.915 149.654 169.235 152.256 168.831C157.446 167.949 162.823 166.836 168.388 166.099C173.939 165.289 179.591 164.422 185.243 163.786C207.836 160.967 230.054 159.059 243.281 157.715C234.405 158.351 225.428 159.247 216.394 159.97C211.884 160.403 207.374 160.837 202.849 161.285L196.07 161.936L189.305 162.702C171.308 164.74 153.326 166.966 136.644 171.071C138.871 170.363 141.241 169.958 143.54 169.394C145.852 168.889 148.165 168.325 150.507 167.848C155.219 167.024 159.917 166.099 164.673 165.347C169.443 164.653 174.228 163.959 179.013 163.265C183.826 162.687 188.64 162.109 193.468 161.531C198.296 160.967 203.153 160.548 207.995 160.042L215.266 159.334L222.566 158.727L237.166 157.541L251.78 156.529C290.737 153.898 329.636 152.222 367.379 150.906C332.007 152.077 296.534 153.624 261.248 155.705C252.431 156.284 243.628 156.847 234.824 157.426C230.43 157.758 226.036 158.105 221.656 158.437L215.078 158.943L208.516 159.536C204.15 159.941 199.77 160.331 195.419 160.736C191.068 161.213 186.717 161.69 182.381 162.167C178.03 162.586 173.722 163.251 169.4 163.8L162.939 164.668L156.52 165.723L150.102 166.778L143.771 168.079C141.66 168.542 139.536 168.903 137.454 169.423L131.253 171.071C130.226 171.36 129.171 171.592 128.159 171.91L125.167 172.965L122.175 174.02C121.163 174.353 120.18 174.714 119.226 175.148C115.453 176.824 111.738 178.906 109.281 181.783C108.688 182.505 108.211 183.272 107.864 184.052C107.546 184.847 107.387 185.657 107.387 186.481C107.387 188.128 108.211 189.791 109.396 191.294C111.868 194.286 115.439 196.599 119.11 198.522C126.54 202.396 134.65 205.012 142.759 207.311C159.05 211.792 175.674 214.712 192.138 217.183C208.631 219.626 225.038 221.52 241.271 223.182C222.248 221.824 202.546 219.959 182.453 216.995C172.407 215.507 162.274 213.729 152.126 211.416C142.007 209.06 131.802 206.299 122.088 202.005C117.289 199.794 112.461 197.264 108.731 193.361C106.939 191.41 105.436 188.909 105.522 186.163C105.595 183.416 107.228 181.016 109.165 179.224C111.102 177.374 113.415 175.972 115.786 174.743C116.971 174.121 118.2 173.586 119.428 173.066C120.671 172.575 121.958 172.17 123.216 171.722L127.017 170.392C128.275 169.915 129.605 169.669 130.906 169.293C133.522 168.628 136.095 167.862 138.74 167.298C159.86 162.76 181.557 160.505 203.211 158.568C214.038 157.57 224.894 156.891 235.706 156.11C246.533 155.503 257.331 154.766 268.086 154.289C273.463 154.014 278.826 153.754 284.174 153.479C289.523 153.248 294.857 153.031 300.176 152.8C310.815 152.308 321.382 151.961 331.848 151.571C373.739 150.097 414.112 149.114 451.494 148.564C457.16 148.492 463.145 148.42 468.898 148.348C471.774 148.319 474.593 148.29 477.282 148.261C477.961 148.261 478.626 148.246 479.277 148.246H479.464C479.479 148.246 479.522 148.246 479.522 148.246L479.464 148.203L479.089 147.957L478.279 147.437C477.209 146.743 476.169 146.078 475.171 145.428L478.106 147.321L479.508 148.218C479.508 148.246 479.074 148.232 478.814 148.246L477.932 148.261C475.59 148.275 473.249 148.304 470.878 148.319C466.151 148.377 461.395 148.42 456.596 148.478C446.998 148.579 437.255 148.738 427.382 148.926C407.622 149.273 387.341 149.764 366.67 150.328C325.357 151.499 282.541 153.002 239.551 155.474C218.071 156.804 196.518 158.293 175.153 160.736C164.485 162.022 153.832 163.381 143.352 165.52C132.901 167.631 122.348 169.958 112.851 175.22C110.538 176.637 108.283 178.256 106.549 180.539C105.696 181.681 104.988 182.997 104.641 184.457C104.279 185.917 104.337 187.492 104.756 188.923C105.161 190.369 105.884 191.67 106.751 192.783C107.604 193.925 108.572 194.937 109.613 195.833C111.68 197.654 113.95 199.129 116.292 200.444C120.961 203.061 125.875 205.041 130.805 206.79C135.748 208.525 140.735 209.97 145.737 211.271C165.757 216.388 185.763 219.308 205.206 221.621C223.072 223.703 241.026 225.163 259.037 226.232C268.042 226.767 277.062 227.201 286.097 227.548C295.103 227.851 304.108 228.14 313.128 228.444C331.038 229.152 348.992 230.237 366.67 232.347C375.503 233.417 384.291 234.732 392.719 236.626C396.911 237.58 401.03 238.693 404.76 240.066C405.685 240.413 406.581 240.774 407.434 241.15L407.882 241.353L408.012 241.425C408.186 241.526 408.345 241.627 408.46 241.786C408.562 241.96 408.489 242.205 408.33 242.335C408.186 242.466 407.998 242.552 407.839 242.61L407.781 242.625C407.723 242.639 407.579 242.697 407.477 242.755L407.318 242.827L407 242.972L406.307 243.261C405.367 243.651 404.398 244.027 403.372 244.374C401.334 245.068 399.238 245.704 396.983 246.238C388.021 248.551 378.394 249.982 368.795 251.197C348.992 253.596 328.697 254.81 308.372 255.736C288.034 256.632 267.623 257.181 247.27 257.73C229.201 258.251 204.02 258.482 181.629 259.552C159.238 260.592 139.622 262.501 132.727 266.606C144.364 266.895 157.229 266.013 168.417 266.505C164.196 267.227 159.339 268.124 154.338 268.615C159.108 268.601 164.398 268.817 168.836 268.355C165.165 268.789 161.406 269.309 159.99 270.118C165.728 270.292 173.838 269.092 178.362 268.586C181.008 268.297 193.135 266.375 196.619 266.664C187.628 268.21 176.237 269.656 168.909 271.506C172.031 271.535 175.11 271.405 178.145 271.55C174.401 272.272 167.058 272.634 165.15 273.588C172.913 273.4 179.764 272.836 187.801 272.778C194.321 272.72 200.19 272.764 206.42 272.258C198.99 273.038 188.972 273.689 183.841 275.048C187.296 275.308 190.924 275.062 194.465 274.845C194.032 274.975 193.786 275.12 193.699 275.279C195.275 275.236 197.356 275.38 198.99 275.308C199.033 275.525 199.395 275.713 199.091 275.929C199.134 275.785 199.149 275.626 199.178 275.481" fill="white"></path>
</g>
<g opacity="0.7">
<path d="M200.594 275.64C208.559 275.756 216.669 275.264 224.272 274.686C240.476 273.458 254.151 275.944 269.965 274.296C289.783 272.229 309.442 273.544 330.084 271.029C334.811 270.465 339.567 269.873 344.323 269.179C346.693 268.846 349.078 268.514 351.463 268.181C353.849 267.806 356.234 267.43 358.619 267.04C368.174 265.551 377.743 263.744 387.269 261.575C389.64 260.983 392.025 260.462 394.395 259.826L401.479 257.803C403.849 257.065 406.191 256.256 408.518 255.302C410.86 254.333 413.028 253.379 415.702 251.746C418.203 250.156 420.516 248.291 421.947 245.848C422.641 244.634 423.089 243.246 423.075 241.815C423.017 240.384 422.525 239.025 421.759 237.84C418.738 233.171 412.016 230.569 407.868 229.051C399.036 225.943 390.102 224.266 381.27 222.879C372.424 221.534 363.62 220.624 354.889 219.93C337.413 218.571 320.168 218.065 303.024 217.906C268.939 217.603 235.157 216.388 200.768 212.457C190.779 211.286 180.487 209.927 170.094 208.221C159.715 206.472 149.192 204.419 138.986 201.557C133.898 200.112 128.868 198.478 124.17 196.469C121.828 195.457 119.573 194.344 117.52 193.115C115.468 191.901 113.617 190.499 112.389 189.111C111.781 188.432 111.348 187.753 111.131 187.232C110.914 186.697 110.871 186.35 110.914 185.946C110.958 185.541 111.131 185.006 111.55 184.37C111.969 183.734 112.605 183.04 113.357 182.361C114.889 181.002 116.855 179.744 118.995 178.66C121.076 177.533 123.505 176.694 125.832 175.798C129.171 174.353 133.349 173.355 137.743 172.054C139.955 171.418 142.34 170.985 144.754 170.421C147.182 169.915 149.654 169.235 152.256 168.831C157.446 167.949 162.823 166.836 168.388 166.099C173.939 165.289 179.591 164.422 185.243 163.786C207.836 160.967 230.054 159.059 243.281 157.715C234.405 158.351 225.428 159.247 216.394 159.97C211.884 160.403 207.374 160.837 202.849 161.285L196.07 161.936L189.305 162.702C171.308 164.74 153.326 166.966 136.644 171.071C138.871 170.363 141.241 169.958 143.54 169.394C145.852 168.889 148.165 168.325 150.507 167.848C155.219 167.024 159.917 166.099 164.673 165.347C169.443 164.653 174.228 163.959 179.013 163.265C183.826 162.687 188.64 162.109 193.468 161.531C198.296 160.967 203.153 160.548 207.995 160.042L215.266 159.334L222.566 158.727L237.166 157.541L251.78 156.529C290.737 153.898 329.636 152.222 367.379 150.906C332.007 152.077 296.534 153.624 261.248 155.705C252.431 156.284 243.628 156.847 234.824 157.426C230.43 157.758 226.036 158.105 221.656 158.437L215.078 158.943L208.516 159.536C204.15 159.941 199.77 160.331 195.419 160.736C191.068 161.213 186.717 161.69 182.381 162.167C178.03 162.586 173.722 163.251 169.4 163.8L162.939 164.668L156.52 165.723L150.102 166.778L143.771 168.079C141.66 168.542 139.536 168.903 137.454 169.423L131.253 171.071C130.226 171.36 129.171 171.592 128.159 171.91L125.167 172.965L122.175 174.02C121.163 174.353 120.18 174.714 119.226 175.148C115.453 176.824 111.738 178.906 109.281 181.783C108.688 182.505 108.211 183.272 107.864 184.052C107.546 184.847 107.387 185.657 107.387 186.481C107.387 188.128 108.211 189.791 109.396 191.294C111.868 194.286 115.439 196.599 119.11 198.522C126.54 202.396 134.65 205.012 142.759 207.311C159.05 211.792 175.674 214.712 192.138 217.183C208.631 219.626 225.038 221.52 241.271 223.182C222.248 221.824 202.546 219.959 182.453 216.995C172.407 215.507 162.274 213.729 152.126 211.416C142.007 209.06 131.802 206.299 122.088 202.005C117.289 199.794 112.461 197.264 108.731 193.361C106.939 191.41 105.436 188.909 105.522 186.163C105.595 183.416 107.228 181.016 109.165 179.224C111.102 177.374 113.415 175.972 115.786 174.743C116.971 174.121 118.2 173.586 119.428 173.066C120.671 172.575 121.958 172.17 123.216 171.722L127.017 170.392C128.275 169.915 129.605 169.669 130.906 169.293C133.522 168.628 136.095 167.862 138.74 167.298C159.86 162.76 181.557 160.505 203.211 158.568C214.038 157.57 224.894 156.891 235.706 156.11C246.533 155.503 257.331 154.766 268.086 154.289C273.463 154.014 278.826 153.754 284.174 153.479C289.523 153.248 294.857 153.031 300.176 152.8C310.815 152.308 321.382 151.961 331.848 151.571C373.739 150.097 414.112 149.114 451.494 148.564C457.16 148.492 463.145 148.42 468.898 148.348C471.774 148.319 474.593 148.29 477.282 148.261C477.961 148.261 478.626 148.246 479.277 148.246H479.464C479.479 148.246 479.522 148.246 479.522 148.246L479.464 148.203L479.089 147.957L478.279 147.437C477.209 146.743 476.169 146.078 475.171 145.428L478.106 147.321L479.508 148.218C479.508 148.246 479.074 148.232 478.814 148.246L477.932 148.261C475.59 148.275 473.249 148.304 470.878 148.319C466.151 148.377 461.395 148.42 456.596 148.478C446.998 148.579 437.255 148.738 427.382 148.926C407.622 149.273 387.341 149.764 366.67 150.328C325.357 151.499 282.541 153.002 239.551 155.474C218.071 156.804 196.518 158.293 175.153 160.736C164.485 162.022 153.832 163.381 143.352 165.52C132.901 167.631 122.348 169.958 112.851 175.22C110.538 176.637 108.283 178.256 106.549 180.539C105.696 181.681 104.988 182.997 104.641 184.457C104.279 185.917 104.337 187.492 104.756 188.923C105.161 190.369 105.884 191.67 106.751 192.783C107.604 193.925 108.572 194.937 109.613 195.833C111.68 197.654 113.95 199.129 116.292 200.444C120.961 203.061 125.875 205.041 130.805 206.79C135.748 208.525 140.735 209.97 145.737 211.271C165.757 216.388 185.763 219.308 205.206 221.621C223.072 223.703 241.026 225.163 259.037 226.232C268.042 226.767 277.062 227.201 286.097 227.548C295.103 227.851 304.108 228.14 313.128 228.444C331.038 229.152 348.992 230.237 366.67 232.347C375.503 233.417 384.291 234.732 392.719 236.626C396.911 237.58 401.03 238.693 404.76 240.066C405.685 240.413 406.581 240.774 407.434 241.15L407.882 241.353L408.012 241.425C408.186 241.526 408.345 241.627 408.46 241.786C408.562 241.96 408.489 242.205 408.33 242.335C408.186 242.466 407.998 242.552 407.839 242.61L407.781 242.625C407.723 242.639 407.579 242.697 407.477 242.755L407.318 242.827L407 242.972L406.307 243.261C405.367 243.651 404.398 244.027 403.372 244.374C401.334 245.068 399.238 245.704 396.983 246.238C388.021 248.551 378.394 249.982 368.795 251.197C348.992 253.596 328.697 254.81 308.372 255.736C288.034 256.632 267.623 257.181 247.27 257.73C229.201 258.251 204.02 258.482 181.629 259.552C159.238 260.592 139.622 262.501 132.727 266.606C144.364 266.895 157.229 266.013 168.417 266.505C164.196 267.227 159.339 268.124 154.338 268.615C159.108 268.601 164.398 268.817 168.836 268.355C165.165 268.789 161.406 269.309 159.99 270.118C165.728 270.292 173.838 269.092 178.362 268.586C181.008 268.297 193.135 266.375 196.619 266.664C187.628 268.21 176.237 269.656 168.909 271.506C172.031 271.535 175.11 271.405 178.145 271.55C174.401 272.272 167.058 272.634 165.15 273.588C172.913 273.4 179.764 272.836 187.801 272.778C194.321 272.72 200.19 272.764 206.42 272.258C198.99 273.038 188.972 273.689 183.841 275.048C187.296 275.308 190.924 275.062 194.465 274.845C194.032 274.975 193.786 275.12 193.699 275.279C195.275 275.236 197.356 275.38 198.99 275.308C199.033 275.525 199.395 275.713 199.091 275.929C199.134 275.785 199.149 275.626 199.178 275.481" fill="white"></path>
</g>
<g opacity="0.7">
<path d="M200.594 275.64C208.559 275.756 216.669 275.264 224.272 274.686C240.476 273.458 254.151 275.944 269.965 274.296C289.783 272.229 309.442 273.544 330.084 271.029C334.811 270.465 339.567 269.873 344.323 269.179C346.693 268.846 349.078 268.514 351.463 268.181C353.849 267.806 356.234 267.43 358.619 267.04C368.174 265.551 377.743 263.744 387.269 261.575C389.64 260.983 392.025 260.462 394.395 259.826L401.479 257.803C403.849 257.065 406.191 256.256 408.518 255.302C410.86 254.333 413.028 253.379 415.702 251.746C418.203 250.156 420.516 248.291 421.947 245.848C422.641 244.634 423.089 243.246 423.075 241.815C423.017 240.384 422.525 239.025 421.759 237.84C418.738 233.171 412.016 230.569 407.868 229.051C399.036 225.943 390.102 224.266 381.27 222.879C372.424 221.534 363.62 220.624 354.889 219.93C337.413 218.571 320.168 218.065 303.024 217.906C268.939 217.603 235.157 216.388 200.768 212.457C190.779 211.286 180.487 209.927 170.094 208.221C159.715 206.472 149.192 204.419 138.986 201.557C133.898 200.112 128.868 198.478 124.17 196.469C121.828 195.457 119.573 194.344 117.52 193.115C115.468 191.901 113.617 190.499 112.389 189.111C111.781 188.432 111.348 187.753 111.131 187.232C110.914 186.697 110.871 186.35 110.914 185.946C110.958 185.541 111.131 185.006 111.55 184.37C111.969 183.734 112.605 183.04 113.357 182.361C114.889 181.002 116.855 179.744 118.995 178.66C121.076 177.533 123.505 176.694 125.832 175.798C129.171 174.353 133.349 173.355 137.743 172.054C139.955 171.418 142.34 170.985 144.754 170.421C147.182 169.915 149.654 169.235 152.256 168.831C157.446 167.949 162.823 166.836 168.388 166.099C173.939 165.289 179.591 164.422 185.243 163.786C207.836 160.967 230.054 159.059 243.281 157.715C234.405 158.351 225.428 159.247 216.394 159.97C211.884 160.403 207.374 160.837 202.849 161.285L196.07 161.936L189.305 162.702C171.308 164.74 153.326 166.966 136.644 171.071C138.871 170.363 141.241 169.958 143.54 169.394C145.852 168.889 148.165 168.325 150.507 167.848C155.219 167.024 159.917 166.099 164.673 165.347C169.443 164.653 174.228 163.959 179.013 163.265C183.826 162.687 188.64 162.109 193.468 161.531C198.296 160.967 203.153 160.548 207.995 160.042L215.266 159.334L222.566 158.727L237.166 157.541L251.78 156.529C290.737 153.898 329.636 152.222 367.379 150.906C332.007 152.077 296.534 153.624 261.248 155.705C252.431 156.284 243.628 156.847 234.824 157.426C230.43 157.758 226.036 158.105 221.656 158.437L215.078 158.943L208.516 159.536C204.15 159.941 199.77 160.331 195.419 160.736C191.068 161.213 186.717 161.69 182.381 162.167C178.03 162.586 173.722 163.251 169.4 163.8L162.939 164.668L156.52 165.723L150.102 166.778L143.771 168.079C141.66 168.542 139.536 168.903 137.454 169.423L131.253 171.071C130.226 171.36 129.171 171.592 128.159 171.91L125.167 172.965L122.175 174.02C121.163 174.353 120.18 174.714 119.226 175.148C115.453 176.824 111.738 178.906 109.281 181.783C108.688 182.505 108.211 183.272 107.864 184.052C107.546 184.847 107.387 185.657 107.387 186.481C107.387 188.128 108.211 189.791 109.396 191.294C111.868 194.286 115.439 196.599 119.11 198.522C126.54 202.396 134.65 205.012 142.759 207.311C159.05 211.792 175.674 214.712 192.138 217.183C208.631 219.626 225.038 221.52 241.271 223.182C222.248 221.824 202.546 219.959 182.453 216.995C172.407 215.507 162.274 213.729 152.126 211.416C142.007 209.06 131.802 206.299 122.088 202.005C117.289 199.794 112.461 197.264 108.731 193.361C106.939 191.41 105.436 188.909 105.522 186.163C105.595 183.416 107.228 181.016 109.165 179.224C111.102 177.374 113.415 175.972 115.786 174.743C116.971 174.121 118.2 173.586 119.428 173.066C120.671 172.575 121.958 172.17 123.216 171.722L127.017 170.392C128.275 169.915 129.605 169.669 130.906 169.293C133.522 168.628 136.095 167.862 138.74 167.298C159.86 162.76 181.557 160.505 203.211 158.568C214.038 157.57 224.894 156.891 235.706 156.11C246.533 155.503 257.331 154.766 268.086 154.289C273.463 154.014 278.826 153.754 284.174 153.479C289.523 153.248 294.857 153.031 300.176 152.8C310.815 152.308 321.382 151.961 331.848 151.571C373.739 150.097 414.112 149.114 451.494 148.564C457.16 148.492 463.145 148.42 468.898 148.348C471.774 148.319 474.593 148.29 477.282 148.261C477.961 148.261 478.626 148.246 479.277 148.246H479.464C479.479 148.246 479.522 148.246 479.522 148.246L479.464 148.203L479.089 147.957L478.279 147.437C477.209 146.743 476.169 146.078 475.171 145.428L478.106 147.321L479.508 148.218C479.508 148.246 479.074 148.232 478.814 148.246L477.932 148.261C475.59 148.275 473.249 148.304 470.878 148.319C466.151 148.377 461.395 148.42 456.596 148.478C446.998 148.579 437.255 148.738 427.382 148.926C407.622 149.273 387.341 149.764 366.67 150.328C325.357 151.499 282.541 153.002 239.551 155.474C218.071 156.804 196.518 158.293 175.153 160.736C164.485 162.022 153.832 163.381 143.352 165.52C132.901 167.631 122.348 169.958 112.851 175.22C110.538 176.637 108.283 178.256 106.549 180.539C105.696 181.681 104.988 182.997 104.641 184.457C104.279 185.917 104.337 187.492 104.756 188.923C105.161 190.369 105.884 191.67 106.751 192.783C107.604 193.925 108.572 194.937 109.613 195.833C111.68 197.654 113.95 199.129 116.292 200.444C120.961 203.061 125.875 205.041 130.805 206.79C135.748 208.525 140.735 209.97 145.737 211.271C165.757 216.388 185.763 219.308 205.206 221.621C223.072 223.703 241.026 225.163 259.037 226.232C268.042 226.767 277.062 227.201 286.097 227.548C295.103 227.851 304.108 228.14 313.128 228.444C331.038 229.152 348.992 230.237 366.67 232.347C375.503 233.417 384.291 234.732 392.719 236.626C396.911 237.58 401.03 238.693 404.76 240.066C405.685 240.413 406.581 240.774 407.434 241.15L407.882 241.353L408.012 241.425C408.186 241.526 408.345 241.627 408.46 241.786C408.562 241.96 408.489 242.205 408.33 242.335C408.186 242.466 407.998 242.552 407.839 242.61L407.781 242.625C407.723 242.639 407.579 242.697 407.477 242.755L407.318 242.827L407 242.972L406.307 243.261C405.367 243.651 404.398 244.027 403.372 244.374C401.334 245.068 399.238 245.704 396.983 246.238C388.021 248.551 378.394 249.982 368.795 251.197C348.992 253.596 328.697 254.81 308.372 255.736C288.034 256.632 267.623 257.181 247.27 257.73C229.201 258.251 204.02 258.482 181.629 259.552C159.238 260.592 139.622 262.501 132.727 266.606C144.364 266.895 157.229 266.013 168.417 266.505C164.196 267.227 159.339 268.124 154.338 268.615C159.108 268.601 164.398 268.817 168.836 268.355C165.165 268.789 161.406 269.309 159.99 270.118C165.728 270.292 173.838 269.092 178.362 268.586C181.008 268.297 193.135 266.375 196.619 266.664C187.628 268.21 176.237 269.656 168.909 271.506C172.031 271.535 175.11 271.405 178.145 271.55C174.401 272.272 167.058 272.634 165.15 273.588C172.913 273.4 179.764 272.836 187.801 272.778C194.321 272.72 200.19 272.764 206.42 272.258C198.99 273.038 188.972 273.689 183.841 275.048C187.296 275.308 190.924 275.062 194.465 274.845C194.032 274.975 193.786 275.12 193.699 275.279C195.275 275.236 197.356 275.38 198.99 275.308C199.033 275.525 199.395 275.713 199.091 275.929C199.134 275.785 199.149 275.626 199.178 275.481" fill="#856F47"></path>
</g>
<path d="M151.693 209.102C139.247 168.049 139.666 122.501 152.878 81.7373C159.166 103.651 165.468 125.739 167.666 148.564C169.834 171.403 167.637 195.312 151.693 209.102Z" fill="#074F27" stroke="black" stroke-width="0.2" stroke-miterlimit="10"></path>
<path d="M252.228 314.958C255.712 321.434 251.91 328.127 244.133 330.671C223.13 337.537 190.346 327.52 178.449 307.846C170.947 295.429 164.008 297.106 153.629 301.038C128.405 310.578 103.701 308.829 80.9051 292.567C67.4907 282.983 59.4825 269.164 56.5914 251.832C56.0566 248.667 54.9725 245.602 57.9936 243.578C61.9688 240.89 63.5299 244.72 65.7271 247.264C72.5066 255.157 76.0481 265.68 85.126 271.911C113.747 291.541 140.62 282.477 167.087 266.909C178.059 260.448 181.933 261.026 185.807 273.472C190.071 287.175 196.634 298.985 207.764 307.037C221.092 316.693 235.142 323.501 252.228 314.958Z" fill="#784C19"></path>
<path d="M247.213 270.811C230.618 212.051 232.671 147.349 252.951 89.9043C261.277 121.258 269.661 152.857 272.075 185.367C274.49 217.891 270.558 251.774 247.213 270.811Z" fill="#074F27" stroke="black" stroke-width="0.2" stroke-miterlimit="10"></path>
<path d="M416.888 396.311C415.153 376.594 414.199 357.918 416.469 339.618C418.189 325.712 412.32 320.523 402.114 316.475C379.333 307.441 355.814 304.896 331.804 305.619C324.114 305.851 316.409 305.706 308.719 305.431C305.033 305.301 300.928 304.622 300.321 299.635C299.612 293.824 304.224 294.503 307.563 293.173C318.838 288.707 330.489 287.854 342.255 288.331C348.587 288.591 352.157 286.061 355.814 280.019C365.832 263.439 369.793 244.835 373.537 226.014C374.115 223.138 373.19 219.726 377.107 217.37C390.666 240.961 378.813 263.193 373.565 286.481C403.213 296.021 405.121 262.601 421.99 250.357C427.021 267.096 416.685 278.545 412.537 292.552C431.415 297.597 446.94 289.531 462.277 281.233C478.279 272.575 487.53 256.023 498.56 241.048C505.903 247.003 503.272 252.829 500.728 258.163C490.913 278.718 475.012 292.725 455.599 299.924C439.38 305.937 430.707 314.697 430.071 333.923C429.29 357.701 427.946 381.148 431.806 404.999C434.639 422.576 436.749 440.356 439.626 457.992C441.216 467.778 431.979 475.468 416.787 480.513C392.169 488.695 367.567 497.05 341.937 500.331C324.895 502.514 307.707 503.974 290.477 502.47C287.658 502.225 284.81 502.022 281.992 502.109C250.32 503.15 219.184 498.278 188.105 492.352C182.959 491.369 177.625 491.687 172.378 491.21C168.099 490.82 163.112 491.571 161.941 484.907C164.124 479.342 168.33 480.556 172.305 481.033C221.193 486.931 270.268 484.503 319.214 483.52C337.977 483.144 357.78 481.525 374.866 471.869C375.936 468.067 374.346 465.841 372.496 465.87C359.038 466.014 346.679 459.394 333.105 459.365C301.521 459.322 269.95 457.399 238.366 457.399C209.643 457.399 180.646 456.532 152.314 460.608C134.014 463.239 114.484 462.285 97.1671 472.75C88.2627 478.142 79.9365 471.478 82.4228 460.709C89.477 430.079 86.5281 399.434 84.7212 368.702C84.3454 362.211 84.62 362.197 89.8528 352.599C99.5667 384.501 95.6783 417.517 104.091 449.781C122.767 443.334 141.761 443.262 160.004 438.174C161.955 437.624 163.921 436.887 165.916 436.771C209.528 434.242 253.153 427.419 296.794 431.784C333.178 435.427 369.836 438.362 405.425 448.35C415.992 451.313 417.596 446.326 417.48 437.248C417.292 424.008 417.191 410.767 416.888 396.311Z" fill="#764C1C"></path>
</svg></svg></g></g><defs><clipPath id="SvgjsClipPath1109"><rect width="1000" height="1000" x="0" y="0" rx="350" ry="350"></rect></clipPath></defs></svg></g></svg>